SplineFontDB: 3.0
FontName: Cormorant-Regular
FullName: Cormorant Regular
FamilyName: Cormorant
Weight: Book
Copyright: Copyright 2015 The Cormorant Project Authors (github.com/CatharsisFonts/Cormorant)
Version: 3.600
ItalicAngle: 0
UnderlinePosition: -100
UnderlineWidth: 50
Ascent: 800
Descent: 200
InvalidEm: 0
sfntRevision: 0x00039999
LayerCount: 2
Layer: 0 1 "Back" 1
Layer: 1 1 "Fore" 0
XUID: [1021 55 -2146410917 12905725]
StyleMap: 0x0040
FSType: 0
OS2Version: 4
OS2_WeightWidthSlopeOnly: 0
OS2_UseTypoMetrics: 1
CreationTime: 1539984709
ModificationTime: 1540874622
PfmFamily: 81
TTFWeight: 400
TTFWidth: 5
LineGap: 0
VLineGap: 0
Panose: 0 0 5 0 0 0 0 0 0 0
OS2TypoAscent: 924
OS2TypoAOffset: 0
OS2TypoDescent: -287
OS2TypoDOffset: 0
OS2TypoLinegap: 0
OS2WinAscent: 937
OS2WinAOffset: 0
OS2WinDescent: 283
OS2WinDOffset: 0
HheadAscent: 924
HheadAOffset: 0
HheadDescent: -287
HheadDOffset: 0
OS2SubXSize: 650
OS2SubYSize: 600
OS2SubXOff: 0
OS2SubYOff: 75
OS2SupXSize: 650
OS2SupYSize: 600
OS2SupXOff: 0
OS2SupYOff: 350
OS2StrikeYSize: 50
OS2StrikeYPos: 231
OS2CapHeight: 625
OS2XHeight: 386
OS2Vendor: 'UKWN'
OS2CodePages: 20000197.00000000
OS2UnicodeRanges: a0000207.00000001.00000000.00000000
Lookup: 1 0 0 "'aalt' Access All Alternates lookup 0" { "'aalt' Access All Alternates lookup 0 subtable"  } ['aalt' ('DFLT' <'dflt' > 'cyrl' <'BGR ' 'MKD ' 'SRB ' 'dflt' > 'latn' <'AZE ' 'CAT ' 'CRT ' 'HUN ' 'KAZ ' 'MOL ' 'NLD ' 'PLK ' 'ROM ' 'TAT ' 'TRK ' 'dflt' > ) ]
Lookup: 3 0 0 "'aalt' Access All Alternates lookup 1" { "'aalt' Access All Alternates lookup 1 subtable"  } ['aalt' ('DFLT' <'dflt' > 'cyrl' <'BGR ' 'MKD ' 'SRB ' 'dflt' > 'latn' <'AZE ' 'CAT ' 'CRT ' 'HUN ' 'KAZ ' 'MOL ' 'NLD ' 'PLK ' 'ROM ' 'TAT ' 'TRK ' 'dflt' > ) ]

StartChar: .notdef
Encoding: 65536 -1 0
Width: 501
Flags: W
LayerCount: 2
Fore
SplineSet
94 725 m 1,0,-1
 411 725 l 1,1,-1
 411 -275 l 1,2,-1
 94 -275 l 1,3,-1
 94 725 l 1,0,-1
233 626 m 1,4,-1
 233 588 l 1,5,-1
 167 588 l 1,6,-1
 167 556 l 1,7,-1
 333 556 l 1,8,-1
 333 588 l 1,9,-1
 267 588 l 1,10,-1
 267 626 l 1,11,-1
 333 626 l 1,12,-1
 333 658 l 1,13,-1
 168 658 l 1,14,-1
 168 626 l 1,15,-1
 233 626 l 1,4,-1
333 426 m 1,16,-1
 333 460 l 1,17,-1
 267 460 l 1,18,-1
 267 529 l 1,19,-1
 167 529 l 1,20,-1
 167 426 l 1,21,-1
 333 426 l 1,16,-1
200 495 m 1,22,-1
 233 495 l 1,23,-1
 233 460 l 1,24,-1
 200 460 l 1,25,-1
 200 495 l 1,22,-1
233 365 m 1,26,-1
 233 329 l 1,27,-1
 167 329 l 1,28,-1
 167 295 l 1,29,-1
 267 295 l 1,30,-1
 267 365 l 1,31,-1
 333 365 l 1,32,-1
 333 398 l 1,33,-1
 167 398 l 1,34,-1
 167 365 l 1,35,-1
 233 365 l 1,26,-1
167 273 m 1,36,-1
 167 239 l 1,37,-1
 333 239 l 1,38,-1
 333 338 l 1,39,-1
 301 338 l 1,40,-1
 301 273 l 1,41,-1
 167 273 l 1,36,-1
267 160 m 1,42,-1
 267 184 l 1,43,-1
 301 184 l 1,44,-1
 301 136 l 1,45,-1
 200 136 l 1,46,-1
 200 216 l 1,47,-1
 167 216 l 1,48,-1
 167 103 l 1,49,-1
 333 103 l 1,50,-1
 333 216 l 1,51,-1
 233 216 l 1,52,-1
 233 160 l 1,53,-1
 267 160 l 1,42,-1
333 -70 m 1,54,-1
 333 43 l 1,55,-1
 167 43 l 1,56,-1
 167 -70 l 1,57,-1
 333 -70 l 1,54,-1
200 11 m 1,58,-1
 301 11 l 1,59,-1
 301 -37 l 1,60,-1
 200 -37 l 1,61,-1
 200 11 l 1,58,-1
237 -126 m 1,62,-1
 167 -173 l 1,63,-1
 167 -206 l 1,64,-1
 333 -206 l 1,65,-1
 333 -173 l 1,66,-1
 232 -173 l 1,67,-1
 301 -126 l 1,68,-1
 333 -126 l 1,69,-1
 333 -92 l 1,70,-1
 167 -92 l 1,71,-1
 167 -126 l 1,72,-1
 237 -126 l 1,62,-1
EndSplineSet
Validated: 1
EndChar

StartChar: A
Encoding: 65 65 2
Width: 702
GlyphClass: 2
Flags: W
AnchorPoint: "Anchor-15" 0 0 basechar 0
AnchorPoint: "Anchor-14" 341 625 basechar 0
AnchorPoint: "Anchor-13" 664 12 basechar 0
AnchorPoint: "Anchor-12" 352 0 basechar 0
LayerCount: 2
Fore
SplineSet
703 6 m 128,-1,1
 703 0 703 0 699 0 c 0,2,3
 680 0 680 0 640 2 c 256,4,5
 600 4 600 4 582 4 c 0,6,7
 560 4 560 4 526 2 c 0,8,9
 494 0 494 0 477 0 c 0,10,11
 473 0 473 0 473 6 c 128,-1,12
 473 12 473 12 477 12 c 0,13,14
 514 12 514 12 531 19 c 128,-1,15
 548 26 548 26 548 43 c 0,16,17
 548 57 548 57 535 86 c 2,18,-1
 420 331 l 1,19,-1
 231 331 l 1,20,-1
 145 127 l 2,21,22
 131 93 131 93 131 71 c 0,23,24
 131 12 131 12 229 12 c 0,25,26
 234 12 234 12 234 6 c 128,-1,27
 234 0 234 0 229 0 c 0,28,29
 211 0 211 0 177 2 c 0,30,31
 139 4 139 4 111 4 c 0,32,33
 85 4 85 4 51 2 c 0,34,35
 21 0 21 0 1 0 c 0,36,37
 -4 0 -4 0 -4 6 c 128,-1,38
 -4 12 -4 12 1 12 c 0,39,40
 29 12 29 12 48.5 22.5 c 128,-1,41
 68 33 68 33 85.5 59.5 c 128,-1,42
 103 86 103 86 124 136 c 2,43,-1
 335 634 l 2,44,45
 337 637 337 637 342 637 c 128,-1,46
 347 637 347 637 348 634 c 2,47,-1
 584 137 l 2,48,49
 618 63 618 63 642 37.5 c 128,-1,50
 666 12 666 12 699 12 c 0,51,0
 703 12 703 12 703 6 c 128,-1,1
410 352 m 1,52,-1
 320 542 l 1,53,-1
 240 352 l 1,54,-1
 410 352 l 1,52,-1
EndSplineSet
Validated: 1
Substitution2: "Single Substitution lookup 63 subtable" ordfeminine
Substitution2: "'ss02' Style Set 2 lookup 55 subtable" A.ss02
Substitution2: "'ss01' Style Set 1 lookup 54 subtable" A.ss01
AlternateSubs2: "'aalt' Access All Alternates lookup 1 subtable" ordfeminine A.ss01 A.ss02
Position2: "'cpsp' Capital Spacing lookup 0 subtable" dx=5 dy=0 dh=10 dv=0
EndChar

StartChar: Aogonek
Encoding: 260 260 22
Width: 704
GlyphClass: 2
Flags: W
AnchorPoint: "Anchor-15" 0 0 basechar 0
AnchorPoint: "Anchor-14" 344 625 basechar 0
AnchorPoint: "Anchor-13" 665 12 basechar 0
AnchorPoint: "Anchor-12" 0 0 basechar 0
LayerCount: 2
Fore
SplineSet
703 3.5 m 128,-1,1
 703 -2 703 -2 699 -2 c 0,2,3
 677 -2 677 -2 645 0 c 2,4,-1
 603 1 l 2,5,6
 549 1 549 1 512 -35.5 c 128,-1,7
 475 -72 475 -72 475 -129 c 0,8,9
 475 -178 475 -178 502.5 -211.5 c 128,-1,10
 530 -245 530 -245 583 -245 c 0,11,12
 613 -245 613 -245 639 -232 c 1,13,-1
 640 -232 l 2,14,15
 643 -232 643 -232 645.5 -235 c 128,-1,16
 648 -238 648 -238 646 -240 c 0,17,18
 601 -275 601 -275 541 -275 c 0,19,20
 483 -275 483 -275 450 -245.5 c 128,-1,21
 417 -216 417 -216 417 -166 c 0,22,23
 417 -125 417 -125 436 -96.5 c 128,-1,24
 455 -68 455 -68 491 -34 c 0,25,26
 518 -9 518 -9 531 9 c 128,-1,27
 544 27 544 27 544 49 c 0,28,29
 544 65 544 65 535 84 c 2,30,-1
 417 331 l 1,31,-1
 231 331 l 1,32,-1
 145 127 l 2,33,34
 131 93 131 93 131 71 c 0,35,36
 131 12 131 12 229 12 c 0,37,38
 234 12 234 12 234 6 c 128,-1,39
 234 0 234 0 229 0 c 0,40,41
 211 0 211 0 177 2 c 0,42,43
 139 4 139 4 111 4 c 0,44,45
 85 4 85 4 51 2 c 0,46,47
 21 0 21 0 1 0 c 0,48,49
 -4 0 -4 0 -4 6 c 128,-1,50
 -4 12 -4 12 1 12 c 0,51,52
 29 12 29 12 48.5 22.5 c 128,-1,53
 68 33 68 33 85.5 59.5 c 128,-1,54
 103 86 103 86 124 136 c 2,55,-1
 335 634 l 2,56,57
 337 637 337 637 342 637 c 128,-1,58
 347 637 347 637 348 634 c 2,59,-1
 584 135 l 2,60,61
 618 62 618 62 642.5 35.5 c 128,-1,62
 667 9 667 9 699 9 c 0,63,0
 703 9 703 9 703 3.5 c 128,-1,1
407 352 m 1,64,-1
 319 538 l 1,65,-1
 240 352 l 1,66,-1
 407 352 l 1,64,-1
EndSplineSet
Validated: 1
Substitution2: "'ss02' Style Set 2 lookup 55 subtable" Aogonek.ss02
Substitution2: "'ss01' Style Set 1 lookup 54 subtable" Aogonek.ss01
AlternateSubs2: "'aalt' Access All Alternates lookup 1 subtable" Aogonek.ss01 Aogonek.ss02
Position2: "'cpsp' Capital Spacing lookup 0 subtable" dx=5 dy=0 dh=10 dv=0
EndChar

StartChar: AE
Encoding: 198 198 26
Width: 874
GlyphClass: 2
Flags: W
AnchorPoint: "Anchor-15" 0 0 basechar 0
AnchorPoint: "Anchor-14" 579 625 basechar 0
AnchorPoint: "Anchor-13" 0 0 basechar 0
AnchorPoint: "Anchor-12" 438 0 basechar 0
LayerCount: 2
Fore
SplineSet
817 151 m 0,1,2
 820 151 820 151 822.5 149.5 c 128,-1,3
 825 148 825 148 825 147 c 0,4,5
 816 84 816 84 816 15 c 0,6,7
 816 7 816 7 812.5 3.5 c 128,-1,8
 809 0 809 0 800 0 c 2,9,-1
 392 0 l 2,10,11
 390 0 390 0 390 6 c 128,-1,12
 390 12 390 12 392 12 c 0,13,14
 429 12 429 12 446.5 17 c 128,-1,15
 464 22 464 22 470.5 36.5 c 128,-1,16
 477 51 477 51 477 81 c 2,17,-1
 477 315 l 1,18,-1
 305 315 l 1,19,-1
 176 126 l 2,20,21
 146 83 146 83 146 55 c 0,22,23
 146 12 146 12 224 12 c 0,24,25
 229 12 229 12 229 6 c 128,-1,26
 229 0 229 0 224 0 c 0,27,28
 206 0 206 0 170 2 c 0,29,30
 130 4 130 4 101 4 c 0,31,32
 77 4 77 4 47 2 c 0,33,34
 19 0 19 0 3 0 c 0,35,36
 -2 0 -2 0 -2 6 c 128,-1,37
 -2 12 -2 12 3 12 c 0,38,39
 34 12 34 12 72 43 c 128,-1,40
 110 74 110 74 150 132 c 2,41,-1
 453 574 l 2,42,43
 466 592 466 592 466 599 c 0,44,45
 466 608 466 608 449.5 610.5 c 128,-1,46
 433 613 433 613 389 613 c 0,47,48
 387 613 387 613 387 619 c 128,-1,49
 387 625 387 625 389 625 c 2,50,-1
 783 625 l 2,51,52
 792 625 792 625 792 616 c 2,53,-1
 794 493 l 2,54,55
 794 490 794 490 788.5 489.5 c 128,-1,56
 783 489 783 489 783 492 c 0,57,58
 781 539 781 539 750.5 571.5 c 128,-1,59
 720 604 720 604 676 604 c 2,60,-1
 621 604 l 2,61,62
 587 604 587 604 570.5 599 c 128,-1,63
 554 594 554 594 547.5 581.5 c 128,-1,64
 541 569 541 569 541 543 c 2,65,-1
 541 336 l 1,66,-1
 653 336 l 2,67,68
 702 336 702 336 722.5 352 c 128,-1,69
 743 368 743 368 743 406 c 0,70,71
 743 408 743 408 749 408 c 128,-1,72
 755 408 755 408 755 406 c 2,73,-1
 754 325 l 2,74,75
 754 296 754 296 755 281 c 2,76,-1
 756 233 l 2,77,78
 756 231 756 231 750 231 c 128,-1,79
 744 231 744 231 744 233 c 0,80,81
 744 277 744 277 722.5 296 c 128,-1,82
 701 315 701 315 651 315 c 2,83,-1
 541 315 l 1,84,-1
 541 85 l 2,85,86
 541 58 541 58 547 44.5 c 128,-1,87
 553 31 553 31 569.5 26 c 128,-1,88
 586 21 586 21 619 21 c 2,89,-1
 692 21 l 2,90,91
 735 21 735 21 769 57 c 128,-1,92
 803 93 803 93 813 149 c 0,93,0
 813 151 813 151 817 151 c 0,1,2
477 336 m 1,94,-1
 477 567 l 1,95,-1
 319 336 l 1,96,-1
 477 336 l 1,94,-1
EndSplineSet
Validated: 1
Position2: "'cpsp' Capital Spacing lookup 0 subtable" dx=5 dy=0 dh=10 dv=0
EndChar

StartChar: B
Encoding: 66 66 29
Width: 558
GlyphClass: 2
Flags: W
AnchorPoint: "Anchor-15" 0 0 basechar 0
AnchorPoint: "Anchor-14" 280 625 basechar 0
AnchorPoint: "Anchor-13" 0 0 basechar 0
AnchorPoint: "Anchor-12" 280 0 basechar 0
LayerCount: 2
Fore
SplineSet
459.5 299.5 m 128,-1,1
 508 253 508 253 508 184 c 0,2,3
 508 131 508 131 482 88 c 128,-1,4
 456 45 456 45 410.5 20.5 c 128,-1,5
 365 -4 365 -4 309 -4 c 0,6,7
 276 -4 276 -4 237 -1 c 0,8,9
 223 0 223 0 204 1 c 128,-1,10
 185 2 185 2 162 2 c 2,11,-1
 94 1 l 2,12,13
 76 0 76 0 43 0 c 0,14,15
 41 0 41 0 41 6 c 128,-1,16
 41 12 41 12 43 12 c 0,17,18
 81 12 81 12 99 17.5 c 128,-1,19
 117 23 117 23 124 37 c 128,-1,20
 131 51 131 51 131 81 c 2,21,-1
 131 544 l 2,22,23
 131 574 131 574 124.5 588 c 128,-1,24
 118 602 118 602 100 607.5 c 128,-1,25
 82 613 82 613 45 613 c 0,26,27
 42 613 42 613 42 619 c 128,-1,28
 42 625 42 625 45 625 c 2,29,-1
 94 624 l 2,30,31
 136 622 136 622 162 622 c 0,32,33
 180 622 180 622 195.5 623 c 128,-1,34
 211 624 211 624 222 625 c 0,35,36
 253 628 253 628 280 628 c 0,37,38
 364 628 364 628 406 591.5 c 128,-1,39
 448 555 448 555 448 496 c 0,40,41
 448 448 448 448 417 410.5 c 128,-1,42
 386 373 386 373 332 352 c 1,43,0
 411 346 411 346 459.5 299.5 c 128,-1,1
219.5 609 m 128,-1,45
 207 605 207 605 201 590 c 128,-1,46
 195 575 195 575 195 542 c 2,47,-1
 195 352 l 1,48,-1
 240 351 l 2,49,50
 313 351 313 351 348 388.5 c 128,-1,51
 383 426 383 426 383 488 c 0,52,53
 383 544 383 544 352.5 578.5 c 128,-1,54
 322 613 322 613 258 613 c 0,55,44
 232 613 232 613 219.5 609 c 128,-1,45
402.5 51.5 m 128,-1,57
 438 89 438 89 438 159 c 0,58,59
 438 235 438 235 394 282 c 0,60,61
 348 330 348 330 271 330 c 0,62,63
 262 330 262 330 254 330 c 0,64,65
 249 330 249 330 244 330 c 0,66,67
 240 330 240 330 236 330 c 0,68,69
 233 330 233 330 230 330 c 0,70,71
 228 330 228 330 226 330 c 0,72,73
 221 331 221 331 195 328 c 1,74,-1
 195 81 l 2,75,76
 195 55 195 55 202.5 41 c 128,-1,77
 210 27 210 27 231.5 20.5 c 128,-1,78
 253 14 253 14 294 14 c 0,79,56
 367 14 367 14 402.5 51.5 c 128,-1,57
EndSplineSet
Validated: 1
Substitution2: "'ss01' Style Set 1 lookup 54 subtable" B.ss01
Substitution2: "'aalt' Access All Alternates lookup 0 subtable" B.ss01
Position2: "'cpsp' Capital Spacing lookup 0 subtable" dx=5 dy=0 dh=10 dv=0
EndChar

StartChar: C
Encoding: 67 67 30
Width: 669
GlyphClass: 2
Flags: W
AnchorPoint: "Anchor-15" 0 0 basechar 0
AnchorPoint: "Anchor-14" 379 625 basechar 0
AnchorPoint: "Anchor-13" 0 0 basechar 0
AnchorPoint: "Anchor-12" 391 0 basechar 0
LayerCount: 2
Fore
SplineSet
512 627 m 128,-1,1
 561 618 561 618 590 601 c 0,2,3
 599 597 599 597 601.5 592.5 c 128,-1,4
 604 588 604 588 605 577 c 2,5,-1
 616 465 l 2,6,7
 616 462 616 462 611 461.5 c 128,-1,8
 606 461 606 461 605 464 c 0,9,10
 583 541 583 541 523.5 577.5 c 128,-1,11
 464 614 464 614 376 614 c 0,12,13
 300 614 300 614 243 580.5 c 128,-1,14
 186 547 186 547 155 486 c 128,-1,15
 124 425 124 425 124 345 c 0,16,17
 124 252 124 252 162.5 173 c 128,-1,18
 201 94 201 94 266.5 48 c 128,-1,19
 332 2 332 2 408 2 c 0,20,21
 480 2 480 2 533 41.5 c 128,-1,22
 586 81 586 81 614 163 c 0,23,24
 614 166 614 166 618 166 c 0,25,26
 621 166 621 166 623.5 165 c 128,-1,27
 626 164 626 164 626 162 c 2,28,-1
 612 49 l 2,29,30
 610 37 610 37 607.5 33.5 c 128,-1,31
 605 30 605 30 596 26 c 0,32,33
 506 -12 506 -12 406 -12 c 0,34,35
 286 -12 286 -12 205.5 36.5 c 128,-1,36
 125 85 125 85 87 160 c 128,-1,37
 49 235 49 235 49 318 c 0,38,39
 49 410 49 410 100 483 c 128,-1,40
 151 556 151 556 235 596 c 128,-1,41
 319 636 319 636 415 636 c 0,42,0
 463 636 463 636 512 627 c 128,-1,1
EndSplineSet
Validated: 1
Substitution2: "'ss02' Style Set 2 lookup 55 subtable" C.ss02
Substitution2: "'aalt' Access All Alternates lookup 0 subtable" C.ss02
Position2: "'cpsp' Capital Spacing lookup 0 subtable" dx=5 dy=0 dh=10 dv=0
EndChar

StartChar: Ccedilla
Encoding: 199 199 33
Width: 669
GlyphClass: 2
Flags: W
AnchorPoint: "Anchor-15" 0 0 basechar 0
AnchorPoint: "Anchor-14" 0 0 basechar 0
AnchorPoint: "Anchor-13" 0 0 basechar 0
AnchorPoint: "Anchor-12" 391 0 basechar 0
LayerCount: 2
Fore
SplineSet
618 166 m 0,1,2
 621 166 621 166 623.5 165 c 128,-1,3
 626 164 626 164 626 162 c 2,4,-1
 612 49 l 2,5,6
 610 37 610 37 607.5 33.5 c 128,-1,7
 605 30 605 30 596 26 c 0,8,9
 506 -12 506 -12 406 -12 c 2,10,-1
 387 -12 l 1,11,12
 377 -42 377 -42 377 -57 c 0,13,14
 377 -71 377 -71 385.5 -78.5 c 128,-1,15
 394 -86 394 -86 420 -102 c 0,16,17
 445 -116 445 -116 459.5 -134 c 128,-1,18
 474 -152 474 -152 474 -179 c 0,19,20
 474 -216 474 -216 448 -245.5 c 128,-1,21
 422 -275 422 -275 371 -275 c 0,22,23
 343 -275 343 -275 324.5 -265 c 128,-1,24
 306 -255 306 -255 306 -237 c 0,25,26
 306 -224 306 -224 315 -215.5 c 128,-1,27
 324 -207 324 -207 337 -207 c 0,28,29
 348 -207 348 -207 354 -212.5 c 128,-1,30
 360 -218 360 -218 366 -229 c 0,31,32
 372 -242 372 -242 379.5 -248.5 c 128,-1,33
 387 -255 387 -255 402 -255 c 0,34,35
 436 -255 436 -255 436 -217 c 0,36,37
 436 -191 436 -191 417.5 -170.5 c 128,-1,38
 399 -150 399 -150 351 -124 c 0,39,40
 344 -121 344 -121 340 -118 c 128,-1,41
 336 -115 336 -115 336 -111 c 0,42,43
 336 -106 336 -106 342 -94 c 0,44,45
 355 -61 355 -61 373 -11 c 1,46,47
 264 -4 264 -4 191 45 c 128,-1,48
 118 94 118 94 83.5 166.5 c 128,-1,49
 49 239 49 239 49 318 c 0,50,51
 49 410 49 410 100 483 c 128,-1,52
 151 556 151 556 235 596 c 128,-1,53
 319 636 319 636 415 636 c 0,54,55
 463 636 463 636 512 627 c 128,-1,56
 561 618 561 618 590 601 c 0,57,58
 599 597 599 597 601.5 592.5 c 128,-1,59
 604 588 604 588 605 577 c 2,60,-1
 616 465 l 2,61,62
 616 462 616 462 611 461.5 c 128,-1,63
 606 461 606 461 605 464 c 0,64,65
 583 541 583 541 523.5 577.5 c 128,-1,66
 464 614 464 614 376 614 c 0,67,68
 300 614 300 614 243 580.5 c 128,-1,69
 186 547 186 547 155 486 c 128,-1,70
 124 425 124 425 124 345 c 0,71,72
 124 252 124 252 162.5 173 c 128,-1,73
 201 94 201 94 266.5 48 c 128,-1,74
 332 2 332 2 408 2 c 0,75,76
 480 2 480 2 533 41.5 c 128,-1,77
 586 81 586 81 614 163 c 0,78,0
 614 166 614 166 618 166 c 0,1,2
EndSplineSet
Validated: 1
Substitution2: "'ss02' Style Set 2 lookup 55 subtable" Ccedilla.ss02
Substitution2: "'aalt' Access All Alternates lookup 0 subtable" Ccedilla.ss02
Position2: "'cpsp' Capital Spacing lookup 0 subtable" dx=5 dy=0 dh=10 dv=0
EndChar

StartChar: D
Encoding: 68 68 36
Width: 691
GlyphClass: 2
Flags: W
AnchorPoint: "Anchor-15" 0 0 basechar 0
AnchorPoint: "Anchor-14" 318 625 basechar 0
AnchorPoint: "Anchor-13" 0 0 basechar 0
AnchorPoint: "Anchor-12" 323 0 basechar 0
LayerCount: 2
Fore
SplineSet
236 -1 m 0,1,2
 222 0 222 0 200.5 1 c 128,-1,3
 179 2 179 2 153 2 c 2,4,-1
 85 1 l 2,5,6
 67 0 67 0 35 0 c 0,7,8
 33 0 33 0 33 6 c 128,-1,9
 33 12 33 12 35 12 c 0,10,11
 73 12 73 12 90.5 17 c 128,-1,12
 108 22 108 22 114.5 36.5 c 128,-1,13
 121 51 121 51 121 81 c 2,14,-1
 121 544 l 2,15,16
 121 574 121 574 115 588 c 128,-1,17
 109 602 109 602 91.5 607.5 c 128,-1,18
 74 613 74 613 36 613 c 0,19,20
 34 613 34 613 34 619 c 128,-1,21
 34 625 34 625 36 625 c 2,22,-1
 86 624 l 2,23,24
 128 622 128 622 153 622 c 0,25,26
 191 622 191 622 228 625 c 0,27,28
 272 627 272 627 289 627 c 0,29,30
 393 627 393 627 473 587 c 128,-1,31
 553 547 553 547 597.5 478 c 128,-1,32
 642 409 642 409 642 323 c 0,33,34
 642 226 642 226 596.5 151.5 c 128,-1,35
 551 77 551 77 473 36.5 c 128,-1,36
 395 -4 395 -4 303 -4 c 0,37,0
 274 -4 274 -4 236 -1 c 0,1,2
435 44.5 m 128,-1,39
 497 78 497 78 531.5 143.5 c 128,-1,40
 566 209 566 209 566 301 c 0,41,42
 566 388 566 388 533 459 c 128,-1,43
 500 530 500 530 439 571 c 128,-1,44
 378 612 378 612 298 612 c 0,45,46
 255 612 255 612 231.5 607 c 128,-1,47
 208 602 208 602 197 587 c 128,-1,48
 186 572 186 572 186 542 c 2,49,-1
 186 92 l 2,50,51
 186 62 186 62 194.5 45 c 128,-1,52
 203 28 203 28 226.5 19.5 c 128,-1,53
 250 11 250 11 293 11 c 0,54,38
 373 11 373 11 435 44.5 c 128,-1,39
EndSplineSet
Validated: 1
Position2: "'cpsp' Capital Spacing lookup 0 subtable" dx=5 dy=0 dh=10 dv=0
EndChar

StartChar: Eth
Encoding: 208 208 37
Width: 691
GlyphClass: 2
Flags: W
AnchorPoint: "Anchor-15" 0 0 basechar 0
AnchorPoint: "Anchor-14" 318 625 basechar 0
AnchorPoint: "Anchor-13" 0 0 basechar 0
AnchorPoint: "Anchor-12" 323 0 basechar 0
LayerCount: 2
Fore
SplineSet
473 587 m 128,-1,1
 553 547 553 547 597.5 478 c 128,-1,2
 642 409 642 409 642 323 c 0,3,4
 642 226 642 226 596.5 151.5 c 128,-1,5
 551 77 551 77 473 36.5 c 128,-1,6
 395 -4 395 -4 303 -4 c 0,7,8
 274 -4 274 -4 236 -1 c 0,9,10
 222 0 222 0 200.5 1 c 128,-1,11
 179 2 179 2 153 2 c 2,12,-1
 85 1 l 2,13,14
 67 0 67 0 35 0 c 0,15,16
 33 0 33 0 33 6 c 128,-1,17
 33 12 33 12 35 12 c 0,18,19
 73 12 73 12 90.5 17 c 128,-1,20
 108 22 108 22 114.5 36.5 c 128,-1,21
 121 51 121 51 121 81 c 2,22,-1
 121 301 l 1,23,-1
 53 301 l 2,24,25
 49 301 49 301 49 311 c 256,26,27
 49 321 49 321 53 321 c 2,28,-1
 121 321 l 1,29,-1
 121 544 l 2,30,31
 121 574 121 574 115 588 c 128,-1,32
 109 602 109 602 91.5 607.5 c 128,-1,33
 74 613 74 613 36 613 c 0,34,35
 34 613 34 613 34 619 c 128,-1,36
 34 625 34 625 36 625 c 2,37,-1
 86 624 l 2,38,39
 128 622 128 622 153 622 c 0,40,41
 191 622 191 622 228 625 c 0,42,43
 272 627 272 627 289 627 c 0,44,0
 393 627 393 627 473 587 c 128,-1,1
435 44.5 m 128,-1,46
 497 78 497 78 531.5 143.5 c 128,-1,47
 566 209 566 209 566 301 c 0,48,49
 566 388 566 388 533 459 c 128,-1,50
 500 530 500 530 439 571 c 128,-1,51
 378 612 378 612 298 612 c 0,52,53
 255 612 255 612 231.5 607 c 128,-1,54
 208 602 208 602 197 587 c 128,-1,55
 186 572 186 572 186 542 c 2,56,-1
 186 321 l 1,57,-1
 322 321 l 2,58,59
 326 321 326 321 326 311 c 256,60,61
 326 301 326 301 322 301 c 2,62,-1
 186 301 l 1,63,-1
 186 92 l 2,64,65
 186 62 186 62 194.5 45 c 128,-1,66
 203 28 203 28 226.5 19.5 c 128,-1,67
 250 11 250 11 293 11 c 0,68,45
 373 11 373 11 435 44.5 c 128,-1,46
EndSplineSet
Validated: 1
Position2: "'cpsp' Capital Spacing lookup 0 subtable" dx=5 dy=0 dh=10 dv=0
EndChar

StartChar: E
Encoding: 69 69 42
Width: 537
GlyphClass: 2
Flags: W
AnchorPoint: "Anchor-15" 0 0 basechar 0
AnchorPoint: "Anchor-14" 292 625 basechar 0
AnchorPoint: "Anchor-13" 472 12 basechar 0
AnchorPoint: "Anchor-12" 287 0 basechar 0
LayerCount: 2
Fore
SplineSet
479 151 m 0,1,2
 482 151 482 151 484.5 150 c 128,-1,3
 487 149 487 149 487 147 c 0,4,5
 478 84 478 84 478 15 c 0,6,7
 478 7 478 7 474.5 3.5 c 128,-1,8
 471 0 471 0 462 0 c 2,9,-1
 43 0 l 2,10,11
 41 0 41 0 41 6 c 128,-1,12
 41 12 41 12 43 12 c 0,13,14
 81 12 81 12 98.5 17 c 128,-1,15
 116 22 116 22 122.5 36.5 c 128,-1,16
 129 51 129 51 129 81 c 2,17,-1
 129 544 l 2,18,19
 129 574 129 574 122.5 588 c 128,-1,20
 116 602 116 602 98.5 607.5 c 128,-1,21
 81 613 81 613 43 613 c 0,22,23
 41 613 41 613 41 619 c 128,-1,24
 41 625 41 625 43 625 c 2,25,-1
 445 625 l 2,26,27
 454 625 454 625 454 616 c 2,28,-1
 456 493 l 2,29,30
 456 490 456 490 451 489.5 c 128,-1,31
 446 489 446 489 445 492 c 0,32,33
 442 545 442 545 413 574.5 c 128,-1,34
 384 604 384 604 336 604 c 2,35,-1
 275 604 l 2,36,37
 240 604 240 604 223.5 598.5 c 128,-1,38
 207 593 207 593 200.5 579.5 c 128,-1,39
 194 566 194 566 194 539 c 2,40,-1
 194 336 l 1,41,-1
 316 336 l 2,42,43
 364 336 364 336 384.5 352 c 128,-1,44
 405 368 405 368 405 406 c 0,45,46
 405 408 405 408 411 408 c 128,-1,47
 417 408 417 408 417 406 c 2,48,-1
 416 325 l 2,49,50
 416 296 416 296 417 281 c 2,51,-1
 418 233 l 2,52,53
 418 231 418 231 412 231 c 128,-1,54
 406 231 406 231 406 233 c 0,55,56
 406 277 406 277 384.5 296 c 128,-1,57
 363 315 363 315 313 315 c 2,58,-1
 194 315 l 1,59,-1
 194 85 l 2,60,61
 194 57 194 57 200 44 c 128,-1,62
 206 31 206 31 222 26 c 128,-1,63
 238 21 238 21 272 21 c 2,64,-1
 352 21 l 2,65,66
 400 21 400 21 432 55 c 128,-1,67
 464 89 464 89 475 149 c 0,68,0
 475 151 475 151 479 151 c 0,1,2
EndSplineSet
Validated: 1
Position2: "'cpsp' Capital Spacing lookup 0 subtable" dx=5 dy=0 dh=10 dv=0
EndChar

StartChar: Eogonek
Encoding: 280 280 58
Width: 537
GlyphClass: 2
Flags: W
AnchorPoint: "Anchor-15" 0 0 basechar 0
AnchorPoint: "Anchor-14" 269 625 basechar 0
AnchorPoint: "Anchor-13" 472 12 basechar 0
AnchorPoint: "Anchor-12" 287 0 basechar 0
LayerCount: 2
Fore
SplineSet
499 -222 m 2,0,1
 502 -222 502 -222 504.5 -225 c 128,-1,2
 507 -228 507 -228 504 -230 c 0,3,4
 452 -275 452 -275 396 -275 c 0,5,6
 342 -275 342 -275 312.5 -248 c 128,-1,7
 283 -221 283 -221 283 -176 c 0,8,9
 283 -89 283 -89 396 0 c 1,10,-1
 43 0 l 2,11,12
 41 0 41 0 41 6 c 128,-1,13
 41 12 41 12 43 12 c 0,14,15
 81 12 81 12 98.5 17 c 128,-1,16
 116 22 116 22 122.5 36.5 c 128,-1,17
 129 51 129 51 129 81 c 2,18,-1
 129 544 l 2,19,20
 129 574 129 574 122.5 588 c 128,-1,21
 116 602 116 602 98.5 607.5 c 128,-1,22
 81 613 81 613 43 613 c 0,23,24
 41 613 41 613 41 619 c 128,-1,25
 41 625 41 625 43 625 c 2,26,-1
 445 625 l 2,27,28
 454 625 454 625 454 616 c 2,29,-1
 456 493 l 2,30,31
 456 490 456 490 451 489.5 c 128,-1,32
 446 489 446 489 445 492 c 0,33,34
 442 545 442 545 413 574.5 c 128,-1,35
 384 604 384 604 336 604 c 2,36,-1
 275 604 l 2,37,38
 240 604 240 604 223.5 598.5 c 128,-1,39
 207 593 207 593 200.5 579.5 c 128,-1,40
 194 566 194 566 194 539 c 2,41,-1
 194 336 l 1,42,-1
 316 336 l 2,43,44
 364 336 364 336 384.5 352 c 128,-1,45
 405 368 405 368 405 406 c 0,46,47
 405 408 405 408 411 408 c 128,-1,48
 417 408 417 408 417 406 c 2,49,-1
 416 325 l 2,50,51
 416 296 416 296 417 281 c 2,52,-1
 418 233 l 2,53,54
 418 231 418 231 412 231 c 128,-1,55
 406 231 406 231 406 233 c 0,56,57
 406 277 406 277 384.5 296 c 128,-1,58
 363 315 363 315 313 315 c 2,59,-1
 194 315 l 1,60,-1
 194 85 l 2,61,62
 194 57 194 57 200 44 c 128,-1,63
 206 31 206 31 222 26 c 128,-1,64
 238 21 238 21 272 21 c 2,65,-1
 352 21 l 2,66,67
 400 21 400 21 432 55 c 128,-1,68
 464 89 464 89 475 149 c 0,69,70
 475 151 475 151 479 151 c 0,71,72
 482 151 482 151 484.5 150 c 128,-1,73
 487 149 487 149 487 147 c 0,74,75
 478 84 478 84 478 15 c 0,76,77
 478 7 478 7 474.5 3.5 c 128,-1,78
 471 0 471 0 462 0 c 2,79,-1
 415 0 l 1,80,81
 374 -37 374 -37 356 -70.5 c 128,-1,82
 338 -104 338 -104 338 -143 c 0,83,84
 338 -191 338 -191 362 -218 c 128,-1,85
 386 -245 386 -245 431 -245 c 0,86,87
 452 -245 452 -245 466.5 -239 c 128,-1,88
 481 -233 481 -233 497 -222 c 1,89,-1
 499 -222 l 2,0,1
EndSplineSet
Validated: 1
Position2: "'cpsp' Capital Spacing lookup 0 subtable" dx=5 dy=0 dh=10 dv=0
EndChar

StartChar: F
Encoding: 70 70 60
Width: 509
GlyphClass: 2
Flags: W
AnchorPoint: "Anchor-15" 0 0 basechar 0
AnchorPoint: "Anchor-14" 255 625 basechar 0
AnchorPoint: "Anchor-13" 0 0 basechar 0
AnchorPoint: "Anchor-12" 255 0 basechar 0
LayerCount: 2
Fore
SplineSet
456 493 m 2,0,1
 456 490 456 490 451 489.5 c 128,-1,2
 446 489 446 489 445 492 c 0,3,4
 442 545 442 545 413 574.5 c 128,-1,5
 384 604 384 604 336 604 c 2,6,-1
 275 604 l 2,7,8
 241 604 241 604 224 599 c 128,-1,9
 207 594 207 594 200.5 581 c 128,-1,10
 194 568 194 568 194 543 c 2,11,-1
 194 324 l 1,12,-1
 295 324 l 2,13,14
 348 324 348 324 370.5 340.5 c 128,-1,15
 393 357 393 357 393 394 c 0,16,17
 393 396 393 396 399 396 c 128,-1,18
 405 396 405 396 405 394 c 2,19,-1
 404 313 l 2,20,21
 404 284 404 284 405 269 c 2,22,-1
 406 221 l 2,23,24
 406 219 406 219 400 219 c 128,-1,25
 394 219 394 219 394 221 c 0,26,27
 394 265 394 265 370.5 284 c 128,-1,28
 347 303 347 303 292 303 c 2,29,-1
 194 303 l 1,30,-1
 194 85 l 2,31,32
 194 53 194 53 202.5 38.5 c 128,-1,33
 211 24 211 24 236 18 c 128,-1,34
 261 12 261 12 315 12 c 0,35,36
 318 12 318 12 318 6 c 128,-1,37
 318 0 318 0 315 0 c 0,38,39
 274 0 274 0 251 1 c 2,40,-1
 161 2 l 1,41,-1
 93 1 l 2,42,43
 75 0 75 0 42 0 c 0,44,45
 40 0 40 0 40 6 c 128,-1,46
 40 12 40 12 42 12 c 0,47,48
 80 12 80 12 98 17 c 128,-1,49
 116 22 116 22 122.5 36.5 c 128,-1,50
 129 51 129 51 129 81 c 2,51,-1
 129 544 l 2,52,53
 129 574 129 574 122.5 588 c 128,-1,54
 116 602 116 602 98.5 607.5 c 128,-1,55
 81 613 81 613 43 613 c 0,56,57
 41 613 41 613 41 619 c 128,-1,58
 41 625 41 625 43 625 c 2,59,-1
 445 625 l 2,60,61
 454 625 454 625 454 616 c 2,62,-1
 456 493 l 2,0,1
EndSplineSet
Validated: 1
Position2: "'cpsp' Capital Spacing lookup 0 subtable" dx=5 dy=0 dh=10 dv=0
EndChar

StartChar: G
Encoding: 71 71 61
Width: 714
GlyphClass: 2
Flags: W
AnchorPoint: "Anchor-15" 0 0 basechar 0
AnchorPoint: "Anchor-14" 394 625 basechar 0
AnchorPoint: "Anchor-13" 0 0 basechar 0
AnchorPoint: "Anchor-12" 418 0 basechar 0
LayerCount: 2
Fore
SplineSet
215 30 m 128,-1,1
 134 72 134 72 91.5 144 c 128,-1,2
 49 216 49 216 49 305 c 0,3,4
 49 402 49 402 98.5 477 c 128,-1,5
 148 552 148 552 234.5 594 c 128,-1,6
 321 636 321 636 430 636 c 0,7,8
 479 636 479 636 523.5 626.5 c 128,-1,9
 568 617 568 617 596 600 c 0,10,11
 604 595 604 595 605.5 591.5 c 128,-1,12
 607 588 607 588 608 577 c 2,13,-1
 620 465 l 2,14,15
 620 462 620 462 614.5 461.5 c 128,-1,16
 609 461 609 461 608 464 c 0,17,18
 586 536 586 536 528.5 575 c 128,-1,19
 471 614 471 614 387 614 c 0,20,21
 261 614 261 614 192 541 c 128,-1,22
 123 468 123 468 123 341 c 0,23,24
 123 244 123 244 162.5 167.5 c 128,-1,25
 202 91 202 91 272 48 c 128,-1,26
 342 5 342 5 429 5 c 0,27,28
 480 5 480 5 508 14 c 128,-1,29
 536 23 536 23 549 49 c 128,-1,30
 562 75 562 75 562 126 c 0,31,32
 562 178 562 178 555.5 198.5 c 128,-1,33
 549 219 549 219 526.5 226 c 128,-1,34
 504 233 504 233 449 233 c 0,35,36
 443 233 443 233 443 241 c 0,37,38
 443 244 443 244 444.5 246.5 c 128,-1,39
 446 249 446 249 448 249 c 0,40,41
 526 244 526 244 574 244 c 0,42,43
 621 244 621 244 672 247 c 0,44,45
 674 247 674 247 675.5 244.5 c 128,-1,46
 677 242 677 242 677 240 c 0,47,48
 677 233 677 233 672 233 c 0,49,50
 669 233 669 233 667 233 c 0,51,52
 648 234 648 234 638 226.5 c 128,-1,53
 628 219 628 219 625 196 c 128,-1,54
 622 173 622 173 622 116 c 0,55,56
 622 71 622 71 625.5 52 c 128,-1,57
 629 33 629 33 629 28 c 0,58,59
 629 22 629 22 627 20 c 128,-1,60
 625 18 625 18 618 16 c 0,61,62
 497 -12 497 -12 405 -12 c 0,63,0
 296 -12 296 -12 215 30 c 128,-1,1
EndSplineSet
Validated: 1
Substitution2: "'ss02' Style Set 2 lookup 55 subtable" G.ss02
Substitution2: "'aalt' Access All Alternates lookup 0 subtable" G.ss02
Position2: "'cpsp' Capital Spacing lookup 0 subtable" dx=5 dy=0 dh=10 dv=0
EndChar

StartChar: H
Encoding: 72 72 69
Width: 759
GlyphClass: 2
Flags: W
AnchorPoint: "Anchor-15" 0 0 basechar 0
AnchorPoint: "Anchor-14" 380 625 basechar 0
AnchorPoint: "Anchor-13" 0 0 basechar 0
AnchorPoint: "Anchor-12" 380 0 basechar 0
LayerCount: 2
Fore
SplineSet
725 6 m 128,-1,1
 725 0 725 0 722 0 c 0,2,3
 691 0 691 0 673 1 c 2,4,-1
 604 2 l 1,5,-1
 531 1 l 2,6,7
 513 0 513 0 483 0 c 0,8,9
 480 0 480 0 480 6 c 128,-1,10
 480 12 480 12 483 12 c 0,11,12
 522 12 522 12 540 17 c 128,-1,13
 558 22 558 22 564.5 36.5 c 128,-1,14
 571 51 571 51 571 81 c 2,15,-1
 571 315 l 1,16,-1
 187 315 l 1,17,-1
 187 81 l 2,18,19
 187 51 187 51 193.5 36.5 c 128,-1,20
 200 22 200 22 218 17 c 128,-1,21
 236 12 236 12 275 12 c 0,22,23
 277 12 277 12 277 6 c 128,-1,24
 277 0 277 0 275 0 c 0,25,26
 244 0 244 0 226 1 c 2,27,-1
 154 2 l 1,28,-1
 85 1 l 2,29,30
 67 0 67 0 35 0 c 0,31,32
 33 0 33 0 33 6 c 128,-1,33
 33 12 33 12 35 12 c 0,34,35
 73 12 73 12 91.5 17 c 128,-1,36
 110 22 110 22 116.5 36.5 c 128,-1,37
 123 51 123 51 123 81 c 2,38,-1
 123 544 l 2,39,40
 123 574 123 574 116.5 588 c 128,-1,41
 110 602 110 602 92 607.5 c 128,-1,42
 74 613 74 613 36 613 c 0,43,44
 34 613 34 613 34 619 c 128,-1,45
 34 625 34 625 36 625 c 2,46,-1
 87 624 l 2,47,48
 129 622 129 622 154 622 c 0,49,50
 183 622 183 622 227 624 c 2,51,-1
 275 625 l 2,52,53
 277 625 277 625 277 619 c 128,-1,54
 277 613 277 613 275 613 c 0,55,56
 237 613 237 613 218.5 607 c 128,-1,57
 200 601 200 601 193.5 586.5 c 128,-1,58
 187 572 187 572 187 542 c 2,59,-1
 187 336 l 1,60,-1
 571 336 l 1,61,-1
 571 542 l 2,62,63
 571 572 571 572 564.5 586.5 c 128,-1,64
 558 601 558 601 540 607 c 128,-1,65
 522 613 522 613 483 613 c 0,66,67
 480 613 480 613 480 619 c 128,-1,68
 480 625 480 625 483 625 c 2,69,-1
 531 624 l 2,70,71
 575 622 575 622 604 622 c 0,72,73
 631 622 631 622 673 624 c 2,74,-1
 722 625 l 2,75,76
 725 625 725 625 725 619 c 128,-1,77
 725 613 725 613 722 613 c 0,78,79
 684 613 684 613 666 607.5 c 128,-1,80
 648 602 648 602 641.5 588 c 128,-1,81
 635 574 635 574 635 544 c 2,82,-1
 635 81 l 2,83,84
 635 51 635 51 641.5 36.5 c 128,-1,85
 648 22 648 22 666 17 c 128,-1,86
 684 12 684 12 722 12 c 0,87,0
 725 12 725 12 725 6 c 128,-1,1
EndSplineSet
Validated: 1
Position2: "'cpsp' Capital Spacing lookup 0 subtable" dx=5 dy=0 dh=10 dv=0
EndChar

StartChar: Hbar
Encoding: 294 294 70
Width: 759
GlyphClass: 2
Flags: W
AnchorPoint: "Anchor-15" 0 0 basechar 0
AnchorPoint: "Anchor-14" 379 625 basechar 0
AnchorPoint: "Anchor-13" 0 0 basechar 0
AnchorPoint: "Anchor-12" 0 0 basechar 0
LayerCount: 2
Fore
SplineSet
725 6 m 128,-1,1
 725 0 725 0 722 0 c 0,2,3
 691 0 691 0 673 1 c 2,4,-1
 604 2 l 1,5,-1
 531 1 l 2,6,7
 513 0 513 0 483 0 c 0,8,9
 480 0 480 0 480 6 c 128,-1,10
 480 12 480 12 483 12 c 0,11,12
 522 12 522 12 540 17 c 128,-1,13
 558 22 558 22 564.5 36.5 c 128,-1,14
 571 51 571 51 571 81 c 2,15,-1
 571 221 l 1,16,-1
 187 221 l 1,17,-1
 187 81 l 2,18,19
 187 51 187 51 193.5 36.5 c 128,-1,20
 200 22 200 22 218 17 c 128,-1,21
 236 12 236 12 275 12 c 0,22,23
 277 12 277 12 277 6 c 128,-1,24
 277 0 277 0 275 0 c 0,25,26
 244 0 244 0 226 1 c 2,27,-1
 154 2 l 1,28,-1
 85 1 l 2,29,30
 67 0 67 0 35 0 c 0,31,32
 33 0 33 0 33 6 c 128,-1,33
 33 12 33 12 35 12 c 0,34,35
 73 12 73 12 91.5 17 c 128,-1,36
 110 22 110 22 116.5 36.5 c 128,-1,37
 123 51 123 51 123 81 c 2,38,-1
 123 544 l 2,39,40
 123 574 123 574 116.5 588 c 128,-1,41
 110 602 110 602 92 607.5 c 128,-1,42
 74 613 74 613 36 613 c 0,43,44
 34 613 34 613 34 619 c 128,-1,45
 34 625 34 625 36 625 c 2,46,-1
 87 624 l 2,47,48
 129 622 129 622 154 622 c 0,49,50
 183 622 183 622 227 624 c 2,51,-1
 275 625 l 2,52,53
 277 625 277 625 277 619 c 128,-1,54
 277 613 277 613 275 613 c 0,55,56
 237 613 237 613 218.5 607 c 128,-1,57
 200 601 200 601 193.5 586.5 c 128,-1,58
 187 572 187 572 187 542 c 2,59,-1
 187 429 l 1,60,-1
 571 429 l 1,61,-1
 571 542 l 2,62,63
 571 572 571 572 564.5 586.5 c 128,-1,64
 558 601 558 601 540 607 c 128,-1,65
 522 613 522 613 483 613 c 0,66,67
 480 613 480 613 480 619 c 128,-1,68
 480 625 480 625 483 625 c 2,69,-1
 531 624 l 2,70,71
 575 622 575 622 604 622 c 0,72,73
 631 622 631 622 673 624 c 2,74,-1
 722 625 l 2,75,76
 725 625 725 625 725 619 c 128,-1,77
 725 613 725 613 722 613 c 0,78,79
 684 613 684 613 666 607.5 c 128,-1,80
 648 602 648 602 641.5 588 c 128,-1,81
 635 574 635 574 635 544 c 2,82,-1
 635 81 l 2,83,84
 635 51 635 51 641.5 36.5 c 128,-1,85
 648 22 648 22 666 17 c 128,-1,86
 684 12 684 12 722 12 c 0,87,0
 725 12 725 12 725 6 c 128,-1,1
571 242 m 1,88,-1
 571 408 l 1,89,-1
 187 408 l 1,90,-1
 187 242 l 1,91,-1
 571 242 l 1,88,-1
EndSplineSet
Validated: 1
Position2: "'cpsp' Capital Spacing lookup 0 subtable" dx=5 dy=0 dh=10 dv=0
EndChar

StartChar: I
Encoding: 73 73 74
Width: 332
GlyphClass: 2
Flags: W
AnchorPoint: "Anchor-15" 0 0 basechar 0
AnchorPoint: "Anchor-14" 166 625 basechar 0
AnchorPoint: "Anchor-13" 268 12 basechar 0
AnchorPoint: "Anchor-12" 166 0 basechar 0
LayerCount: 2
Fore
SplineSet
205 36.5 m 128,-1,1
 211 22 211 22 228.5 17 c 128,-1,2
 246 12 246 12 284 12 c 0,3,4
 287 12 287 12 287 6 c 128,-1,5
 287 0 287 0 284 0 c 0,6,7
 254 0 254 0 236 1 c 2,8,-1
 165 2 l 1,9,-1
 96 1 l 2,10,11
 78 0 78 0 47 0 c 0,12,13
 44 0 44 0 44 6 c 128,-1,14
 44 12 44 12 47 12 c 0,15,16
 85 12 85 12 102.5 17 c 128,-1,17
 120 22 120 22 126.5 36.5 c 128,-1,18
 133 51 133 51 133 81 c 2,19,-1
 133 544 l 2,20,21
 133 574 133 574 126.5 588 c 128,-1,22
 120 602 120 602 102.5 607.5 c 128,-1,23
 85 613 85 613 47 613 c 0,24,25
 44 613 44 613 44 619 c 128,-1,26
 44 625 44 625 47 625 c 2,27,-1
 96 624 l 2,28,29
 138 622 138 622 165 622 c 0,30,31
 195 622 195 622 237 624 c 2,32,-1
 284 625 l 2,33,34
 287 625 287 625 287 619 c 128,-1,35
 287 613 287 613 284 613 c 0,36,37
 247 613 247 613 229.5 607 c 128,-1,38
 212 601 212 601 205.5 586.5 c 128,-1,39
 199 572 199 572 199 542 c 2,40,-1
 199 81 l 2,41,0
 199 51 199 51 205 36.5 c 128,-1,1
EndSplineSet
Validated: 1
Substitution2: "'locl' Localized Forms in Latin lookup 9 subtable" I.loclNLD
Substitution2: "'aalt' Access All Alternates lookup 0 subtable" I.loclNLD
Position2: "'cpsp' Capital Spacing lookup 0 subtable" dx=5 dy=0 dh=10 dv=0
EndChar

StartChar: IJ
Encoding: 306 306 75
Width: 690
GlyphClass: 2
Flags: W
AnchorPoint: "Anchor-15" 0 0 basechar 0
AnchorPoint: "Anchor-14" 0 0 basechar 0
AnchorPoint: "Anchor-13" 221 12 basechar 0
AnchorPoint: "Anchor-12" 0 0 basechar 0
LayerCount: 2
Fore
SplineSet
200 305 m 128,-1,1
 206 291 206 291 223.5 286 c 128,-1,2
 241 281 241 281 280 281 c 0,3,4
 282 281 282 281 282 275 c 128,-1,5
 282 269 282 269 280 269 c 0,6,7
 249 269 249 269 231 270 c 2,8,-1
 160 271 l 1,9,-1
 93 270 l 2,10,11
 74 269 74 269 42 269 c 0,12,13
 40 269 40 269 40 275 c 128,-1,14
 40 281 40 281 42 281 c 0,15,16
 80 281 80 281 97.5 286 c 128,-1,17
 115 291 115 291 121.5 305.5 c 128,-1,18
 128 320 128 320 128 350 c 2,19,-1
 128 544 l 2,20,21
 128 574 128 574 121.5 588 c 128,-1,22
 115 602 115 602 97.5 607.5 c 128,-1,23
 80 613 80 613 42 613 c 0,24,25
 40 613 40 613 40 619 c 128,-1,26
 40 625 40 625 42 625 c 2,27,-1
 93 624 l 2,28,29
 135 622 135 622 160 622 c 0,30,31
 189 622 189 622 233 624 c 2,32,-1
 280 625 l 2,33,34
 282 625 282 625 282 619 c 128,-1,35
 282 613 282 613 280 613 c 0,36,37
 243 613 243 613 225 607 c 128,-1,38
 207 601 207 601 200.5 586.5 c 128,-1,39
 194 572 194 572 194 542 c 2,40,-1
 194 350 l 2,41,0
 194 319 194 319 200 305 c 128,-1,1
659 619 m 128,-1,43
 659 613 659 613 656 613 c 0,44,45
 624 613 624 613 608.5 607 c 128,-1,46
 593 601 593 601 587.5 586.5 c 128,-1,47
 582 572 582 572 582 542 c 2,48,-1
 582 258 l 2,49,50
 582 172 582 172 552 111 c 128,-1,51
 522 50 522 50 468 18.5 c 128,-1,52
 414 -13 414 -13 343 -13 c 0,53,54
 281 -13 281 -13 229.5 9.5 c 128,-1,55
 178 32 178 32 148.5 66.5 c 128,-1,56
 119 101 119 101 119 135 c 0,57,58
 119 152 119 152 128 161.5 c 128,-1,59
 137 171 137 171 153 171 c 0,60,61
 175 171 175 171 183.5 157 c 128,-1,62
 192 143 192 143 200 112 c 0,63,64
 208 78 208 78 218.5 56 c 128,-1,65
 229 34 229 34 257.5 18 c 128,-1,66
 286 2 286 2 338 2 c 0,67,68
 430 2 430 2 473.5 54 c 128,-1,69
 517 106 517 106 517 200 c 2,70,-1
 517 544 l 2,71,72
 517 574 517 574 509.5 588 c 128,-1,73
 502 602 502 602 482 607.5 c 128,-1,74
 462 613 462 613 419 613 c 0,75,76
 416 613 416 613 416 619 c 128,-1,77
 416 625 416 625 419 625 c 2,78,-1
 477 624 l 2,79,80
 521 622 521 622 548 622 c 256,81,82
 575 622 575 622 613 624 c 2,83,-1
 656 625 l 2,84,42
 659 625 659 625 659 619 c 128,-1,43
EndSplineSet
Validated: 1
Position2: "'cpsp' Capital Spacing lookup 0 subtable" dx=5 dy=0 dh=10 dv=0
EndChar

StartChar: Iogonek
Encoding: 302 302 86
Width: 332
GlyphClass: 2
Flags: W
AnchorPoint: "Anchor-15" 0 0 basechar 0
AnchorPoint: "Anchor-14" 166 625 basechar 0
AnchorPoint: "Anchor-13" 268 12 basechar 0
AnchorPoint: "Anchor-12" 166 0 basechar 0
LayerCount: 2
Fore
SplineSet
287 6 m 128,-1,1
 287 0 287 0 284 0 c 0,2,3
 256 0 256 0 240 1 c 2,4,-1
 175 2 l 1,5,6
 126 -63 126 -63 126 -138 c 0,7,8
 126 -186 126 -186 148.5 -215 c 128,-1,9
 171 -244 171 -244 210 -244 c 0,10,11
 228 -244 228 -244 237.5 -239 c 128,-1,12
 247 -234 247 -234 262 -222 c 1,13,-1
 264 -222 l 2,14,15
 267 -222 267 -222 269.5 -225 c 128,-1,16
 272 -228 272 -228 269 -230 c 0,17,18
 245 -254 245 -254 222.5 -264.5 c 128,-1,19
 200 -275 200 -275 174 -275 c 0,20,21
 125 -275 125 -275 98 -248.5 c 128,-1,22
 71 -222 71 -222 71 -177 c 0,23,24
 71 -89 71 -89 159 2 c 1,25,-1
 94 1 l 2,26,27
 77 0 77 0 47 0 c 0,28,29
 44 0 44 0 44 6 c 128,-1,30
 44 12 44 12 47 12 c 0,31,32
 85 12 85 12 102.5 17 c 128,-1,33
 120 22 120 22 126.5 36.5 c 128,-1,34
 133 51 133 51 133 81 c 2,35,-1
 133 544 l 2,36,37
 133 574 133 574 126.5 588 c 128,-1,38
 120 602 120 602 102.5 607.5 c 128,-1,39
 85 613 85 613 47 613 c 0,40,41
 44 613 44 613 44 619 c 128,-1,42
 44 625 44 625 47 625 c 2,43,-1
 96 624 l 2,44,45
 138 622 138 622 165 622 c 0,46,47
 195 622 195 622 237 624 c 2,48,-1
 284 625 l 2,49,50
 287 625 287 625 287 619 c 128,-1,51
 287 613 287 613 284 613 c 0,52,53
 247 613 247 613 229.5 607 c 128,-1,54
 212 601 212 601 205.5 586.5 c 128,-1,55
 199 572 199 572 199 542 c 2,56,-1
 199 81 l 2,57,58
 199 51 199 51 205 36.5 c 128,-1,59
 211 22 211 22 228.5 17 c 128,-1,60
 246 12 246 12 284 12 c 0,61,0
 287 12 287 12 287 6 c 128,-1,1
EndSplineSet
Validated: 1
Position2: "'cpsp' Capital Spacing lookup 0 subtable" dx=5 dy=0 dh=10 dv=0
EndChar

StartChar: J
Encoding: 74 74 88
Width: 322
GlyphClass: 2
Flags: W
AnchorPoint: "Anchor-15" 0 0 basechar 0
AnchorPoint: "Anchor-14" 163 634 basechar 0
AnchorPoint: "Anchor-13" 0 0 basechar 0
AnchorPoint: "Anchor-12" 161 0 basechar 0
LayerCount: 2
Fore
SplineSet
282 619 m 128,-1,1
 282 613 282 613 280 613 c 0,2,3
 247 613 247 613 232 607 c 128,-1,4
 217 601 217 601 211.5 586.5 c 128,-1,5
 206 572 206 572 206 542 c 2,6,-1
 206 -28 l 2,7,8
 206 -127 206 -127 160 -185.5 c 128,-1,9
 114 -244 114 -244 27 -244 c 0,10,11
 -7 -244 -7 -244 -26.5 -232.5 c 128,-1,12
 -46 -221 -46 -221 -46 -201 c 0,13,14
 -46 -186 -46 -186 -37 -177 c 128,-1,15
 -28 -168 -28 -168 -12 -168 c 0,16,17
 5 -168 5 -168 14 -175.5 c 128,-1,18
 23 -183 23 -183 33 -198 c 0,19,20
 42 -212 42 -212 49 -218 c 128,-1,21
 56 -224 56 -224 69 -224 c 0,22,23
 105 -224 105 -224 122.5 -182.5 c 128,-1,24
 140 -141 140 -141 140 -49 c 2,25,-1
 140 544 l 2,26,27
 140 574 140 574 133 588 c 128,-1,28
 126 602 126 602 105.5 607.5 c 128,-1,29
 85 613 85 613 42 613 c 0,30,31
 40 613 40 613 40 619 c 128,-1,32
 40 625 40 625 42 625 c 2,33,-1
 100 624 l 2,34,35
 146 622 146 622 172 622 c 256,36,37
 198 622 198 622 236 624 c 2,38,-1
 280 625 l 2,39,0
 282 625 282 625 282 619 c 128,-1,1
EndSplineSet
Validated: 1
Substitution2: "Single Substitution lookup 63 subtable" J.case
Substitution2: "'ss01' Style Set 1 lookup 54 subtable" J.ss01
Substitution2: "'case' Case-Sensitive Forms lookup 44 subtable" J.case
Substitution2: "'locl' Localized Forms in Latin lookup 9 subtable" J.loclNLD
AlternateSubs2: "'aalt' Access All Alternates lookup 1 subtable" J.loclNLD J.case J.ss01
Position2: "'cpsp' Capital Spacing lookup 0 subtable" dx=5 dy=0 dh=10 dv=0
EndChar

StartChar: K
Encoding: 75 75 90
Width: 650
GlyphClass: 2
Flags: W
AnchorPoint: "Anchor-15" 0 0 basechar 0
AnchorPoint: "Anchor-14" 326 625 basechar 0
AnchorPoint: "Anchor-13" 0 0 basechar 0
AnchorPoint: "Anchor-12" 344 0 basechar 0
LayerCount: 2
Fore
SplineSet
644 6 m 128,-1,1
 644 0 644 0 641 0 c 0,2,3
 570 0 570 0 500 -0 c 1,4,-1
 500 -1 l 1,5,6
 480 -1 480 -1 443 50.5 c 128,-1,7
 406 102 406 102 372 145 c 2,8,-1
 219 338 l 1,9,-1
 186 306 l 1,10,-1
 186 81 l 2,11,12
 186 51 186 51 192 36.5 c 128,-1,13
 198 22 198 22 215.5 17 c 128,-1,14
 233 12 233 12 271 12 c 0,15,16
 274 12 274 12 274 6 c 128,-1,17
 274 0 274 0 271 0 c 0,18,19
 241 0 241 0 223 1 c 2,20,-1
 153 2 l 1,21,-1
 85 1 l 2,22,23
 67 0 67 0 35 0 c 0,24,25
 33 0 33 0 33 6 c 128,-1,26
 33 12 33 12 35 12 c 0,27,28
 73 12 73 12 90.5 17 c 128,-1,29
 108 22 108 22 114.5 36.5 c 128,-1,30
 121 51 121 51 121 81 c 2,31,-1
 121 544 l 2,32,33
 121 574 121 574 115 588 c 128,-1,34
 109 602 109 602 91.5 607.5 c 128,-1,35
 74 613 74 613 36 613 c 0,36,37
 34 613 34 613 34 619 c 128,-1,38
 34 625 34 625 36 625 c 2,39,-1
 86 624 l 1,40,41
 128 622 128 622 155 622 c 128,-1,42
 182 622 182 622 224 624 c 1,43,-1
 271 625 l 2,44,45
 274 625 274 625 274 619 c 128,-1,46
 274 613 274 613 271 613 c 0,47,48
 234 613 234 613 216.5 607 c 128,-1,49
 199 601 199 601 192.5 586.5 c 128,-1,50
 186 572 186 572 186 542 c 2,51,-1
 186 331 l 1,52,-1
 400 544 l 2,53,54
 433 577 433 577 433 593 c 0,55,56
 433 613 433 613 374 613 c 0,57,58
 372 613 372 613 372 619 c 128,-1,59
 372 625 372 625 374 625 c 2,60,-1
 417 624 l 1,61,62
 457 622 457 622 490 622 c 256,63,64
 523 622 523 622 559 624 c 1,65,-1
 596 625 l 2,66,67
 599 625 599 625 599 619 c 128,-1,68
 599 613 599 613 596 613 c 0,69,70
 555 613 555 613 509 595 c 128,-1,71
 463 577 463 577 423 538 c 2,72,-1
 265 383 l 1,73,-1
 409 199 l 1,74,75
 536 34 536 34 580 19 c 0,76,77
 601 12 601 12 641 12 c 0,78,0
 644 12 644 12 644 6 c 128,-1,1
EndSplineSet
Validated: 1
Substitution2: "'ss01' Style Set 1 lookup 54 subtable" K.ss01
Substitution2: "'aalt' Access All Alternates lookup 0 subtable" K.ss01
Position2: "'cpsp' Capital Spacing lookup 0 subtable" dx=5 dy=0 dh=10 dv=0
EndChar

StartChar: L
Encoding: 76 76 94
Width: 533
GlyphClass: 2
Flags: W
AnchorPoint: "Anchor-15" 496 625 basechar 0
AnchorPoint: "Anchor-14" 158 625 basechar 0
AnchorPoint: "Anchor-13" 0 0 basechar 0
AnchorPoint: "Anchor-12" 297 0 basechar 0
LayerCount: 2
Fore
SplineSet
185 85 m 2,0,1
 185 56 185 56 191 43 c 128,-1,2
 197 30 197 30 213 25.5 c 128,-1,3
 229 21 229 21 265 21 c 2,4,-1
 374 21 l 2,5,6
 431 21 431 21 465 56 c 128,-1,7
 499 91 499 91 510 153 c 0,8,9
 510 156 510 156 515.5 155.5 c 128,-1,10
 521 155 521 155 521 152 c 0,11,12
 512 69 512 69 512 15 c 0,13,14
 512 7 512 7 509 3.5 c 128,-1,15
 506 0 506 0 497 0 c 2,16,-1
 35 0 l 2,17,18
 33 0 33 0 33 6 c 128,-1,19
 33 12 33 12 35 12 c 0,20,21
 73 12 73 12 90.5 17 c 128,-1,22
 108 22 108 22 114 36.5 c 128,-1,23
 120 51 120 51 120 81 c 2,24,-1
 120 544 l 2,25,26
 120 574 120 574 114 588 c 128,-1,27
 108 602 108 602 90.5 607.5 c 128,-1,28
 73 613 73 613 35 613 c 0,29,30
 33 613 33 613 33 619 c 128,-1,31
 33 625 33 625 35 625 c 2,32,-1
 84 624 l 2,33,34
 126 622 126 622 152 622 c 0,35,36
 180 622 180 622 222 624 c 2,37,-1
 270 625 l 2,38,39
 273 625 273 625 273 619 c 128,-1,40
 273 613 273 613 270 613 c 0,41,42
 233 613 233 613 215.5 607.5 c 128,-1,43
 198 602 198 602 191.5 587.5 c 128,-1,44
 185 573 185 573 185 543 c 2,45,-1
 185 85 l 2,0,1
EndSplineSet
Validated: 1
Position2: "'cpsp' Capital Spacing lookup 0 subtable" dx=5 dy=0 dh=10 dv=0
EndChar

StartChar: Lslash
Encoding: 321 321 102
Width: 524
GlyphClass: 2
Flags: W
AnchorPoint: "Anchor-15" 496 625 basechar 0
AnchorPoint: "Anchor-14" 158 625 basechar 0
AnchorPoint: "Anchor-13" 0 0 basechar 0
AnchorPoint: "Anchor-12" 297 0 basechar 0
LayerCount: 2
Fore
SplineSet
515.5 155.5 m 128,-1,1
 521 155 521 155 521 152 c 0,2,3
 512 69 512 69 512 15 c 0,4,5
 512 7 512 7 509 3.5 c 128,-1,6
 506 0 506 0 497 0 c 2,7,-1
 35 0 l 2,8,9
 33 0 33 0 33 6 c 128,-1,10
 33 12 33 12 35 12 c 0,11,12
 73 12 73 12 90.5 17 c 128,-1,13
 108 22 108 22 114 36.5 c 128,-1,14
 120 51 120 51 120 81 c 2,15,-1
 120 264 l 1,16,-1
 69 235 l 1,17,-1
 68 235 l 2,18,19
 64 235 64 235 59.5 243.5 c 128,-1,20
 55 252 55 252 58 253 c 2,21,-1
 120 289 l 1,22,-1
 120 544 l 2,23,24
 120 574 120 574 114 588 c 128,-1,25
 108 602 108 602 90.5 607.5 c 128,-1,26
 73 613 73 613 35 613 c 0,27,28
 33 613 33 613 33 619 c 128,-1,29
 33 625 33 625 35 625 c 2,30,-1
 84 624 l 2,31,32
 126 622 126 622 152 622 c 0,33,34
 180 622 180 622 222 624 c 2,35,-1
 270 625 l 2,36,37
 273 625 273 625 273 619 c 128,-1,38
 273 613 273 613 270 613 c 0,39,40
 233 613 233 613 215.5 607.5 c 128,-1,41
 198 602 198 602 191.5 587.5 c 128,-1,42
 185 573 185 573 185 543 c 2,43,-1
 185 326 l 1,44,-1
 292 387 l 1,45,-1
 293 387 l 2,46,47
 296 387 296 387 300.5 378.5 c 128,-1,48
 305 370 305 370 301 369 c 2,49,-1
 185 302 l 1,50,-1
 185 85 l 2,51,52
 185 56 185 56 191 43 c 128,-1,53
 197 30 197 30 213 25.5 c 128,-1,54
 229 21 229 21 265 21 c 2,55,-1
 374 21 l 2,56,57
 431 21 431 21 465 56 c 128,-1,58
 499 91 499 91 510 153 c 0,59,0
 510 156 510 156 515.5 155.5 c 128,-1,1
EndSplineSet
Validated: 1
Position2: "'cpsp' Capital Spacing lookup 0 subtable" dx=5 dy=0 dh=10 dv=0
EndChar

StartChar: M
Encoding: 77 77 103
Width: 836
GlyphClass: 2
Flags: W
AnchorPoint: "Anchor-15" 0 0 basechar 0
AnchorPoint: "Anchor-14" 418 625 basechar 0
AnchorPoint: "Anchor-13" 0 0 basechar 0
AnchorPoint: "Anchor-12" 408 0 basechar 0
LayerCount: 2
Fore
SplineSet
678 625 m 2,0,-1
 718 623 l 1,1,-1
 765 624 l 2,2,3
 776 625 776 625 798 625 c 0,4,5
 801 625 801 625 801 619 c 128,-1,6
 801 613 801 613 798 613 c 0,7,8
 749 613 749 613 727.5 599 c 128,-1,9
 706 585 706 585 706 548 c 0,10,11
 706 546 706 546 706 544 c 2,12,-1
 726 81 l 2,13,14
 727 50 727 50 733.5 36 c 128,-1,15
 740 22 740 22 757 17 c 128,-1,16
 774 12 774 12 812 12 c 0,17,18
 815 12 815 12 815 6 c 128,-1,19
 815 0 815 0 812 0 c 0,20,21
 781 0 781 0 763 1 c 2,22,-1
 694 2 l 1,23,-1
 630 1 l 2,24,25
 614 0 614 0 585 0 c 0,26,27
 583 0 583 0 583 6 c 128,-1,28
 583 12 583 12 585 12 c 0,29,30
 619 12 619 12 635.5 17.5 c 128,-1,31
 652 23 652 23 657 35 c 128,-1,32
 662 47 662 47 661.5 62 c 128,-1,33
 661 77 661 77 661 81 c 2,34,-1
 643 536 l 1,35,-1
 415 7 l 2,36,37
 413 3 413 3 407.5 3 c 128,-1,38
 402 3 402 3 398 7 c 1,39,-1
 152 530 l 1,40,-1
 143 109 l 1,41,-1
 143 64 l 2,42,43
 143 63 143 63 143 59 c 128,-1,44
 143 55 143 55 161.5 33.5 c 128,-1,45
 180 12 180 12 228 12 c 0,46,47
 230 12 230 12 230 6 c 128,-1,48
 230 0 230 0 228 0 c 0,49,50
 200 0 200 0 185 1 c 2,51,-1
 131 2 l 1,52,-1
 79 1 l 2,53,54
 65 0 65 0 39 0 c 0,55,56
 37 0 37 0 37 6 c 128,-1,57
 37 12 37 12 39 12 c 0,58,59
 81 12 81 12 99.5 34.5 c 128,-1,60
 118 57 118 57 119 109 c 2,61,-1
 128 573 l 1,62,63
 98 613 98 613 46 613 c 0,64,65
 44 613 44 613 44 619 c 128,-1,66
 44 625 44 625 46 625 c 2,67,-1
 83 624 l 2,68,69
 93 623 93 623 111 623 c 258,70,-1
 161 625 l 2,71,72
 174 625 174 625 182.5 615.5 c 128,-1,73
 191 606 191 606 207 573 c 2,74,-1
 430 103 l 1,75,-1
 648 600 l 2,76,77
 659 625 659 625 678 625 c 2,0,-1
EndSplineSet
Validated: 1
Position2: "'cpsp' Capital Spacing lookup 0 subtable" dx=5 dy=0 dh=10 dv=0
EndChar

StartChar: N
Encoding: 78 78 106
Width: 727
GlyphClass: 2
Flags: W
AnchorPoint: "Anchor-15" 0 0 basechar 0
AnchorPoint: "Anchor-14" 376 625 basechar 0
AnchorPoint: "Anchor-13" 0 0 basechar 0
AnchorPoint: "Anchor-12" 374 0 basechar 0
LayerCount: 2
Fore
SplineSet
707 619 m 128,-1,1
 707 613 707 613 704 613 c 0,2,3
 662 613 662 613 643 590 c 128,-1,4
 624 567 624 567 624 515 c 2,5,-1
 624 -12 l 2,6,7
 624 -14 624 -14 619 -15 c 128,-1,8
 614 -16 614 -16 612 -14 c 2,9,-1
 152 543 l 1,10,-1
 143 553 l 1,11,-1
 143 109 l 2,12,13
 143 57 143 57 161.5 34.5 c 128,-1,14
 180 12 180 12 221 12 c 0,15,16
 224 12 224 12 224 6 c 128,-1,17
 224 0 224 0 221 0 c 0,18,19
 196 0 196 0 183 1 c 2,20,-1
 133 2 l 1,21,-1
 82 1 l 2,22,23
 68 0 68 0 41 0 c 0,24,25
 39 0 39 0 39 6 c 128,-1,26
 39 12 39 12 41 12 c 0,27,28
 84 12 84 12 102 34.5 c 128,-1,29
 120 57 120 57 120 109 c 2,30,-1
 120 577 l 1,31,32
 81 613 81 613 41 613 c 0,33,34
 38 613 38 613 38 619 c 128,-1,35
 38 625 38 625 41 625 c 2,36,-1
 78 624 l 2,37,38
 90 623 90 623 111 623 c 0,39,40
 133 623 133 623 147 624 c 128,-1,41
 161 625 161 625 169 625 c 256,42,43
 177 625 177 625 180.5 621.5 c 128,-1,44
 184 618 184 618 192 606 c 0,45,46
 204 588 204 588 216 573 c 2,47,-1
 601 100 l 1,48,-1
 601 515 l 2,49,50
 601 567 601 567 583.5 590 c 128,-1,51
 566 613 566 613 525 613 c 0,52,53
 523 613 523 613 523 619 c 128,-1,54
 523 625 523 625 525 625 c 2,55,-1
 564 624 l 2,56,57
 594 622 594 622 613 622 c 0,58,59
 631 622 631 622 663 624 c 2,60,-1
 704 625 l 2,61,0
 707 625 707 625 707 619 c 128,-1,1
EndSplineSet
Validated: 1
Position2: "'cpsp' Capital Spacing lookup 0 subtable" dx=5 dy=0 dh=10 dv=0
EndChar

StartChar: Eng
Encoding: 330 330 112
Width: 727
GlyphClass: 2
Flags: W
AnchorPoint: "Anchor-15" 0 0 basechar 0
AnchorPoint: "Anchor-14" 374 625 basechar 0
AnchorPoint: "Anchor-13" 0 0 basechar 0
AnchorPoint: "Anchor-12" 374 0 basechar 0
LayerCount: 2
Fore
SplineSet
707 619 m 128,-1,1
 707 613 707 613 704 613 c 0,2,3
 662 613 662 613 643 590 c 128,-1,4
 624 567 624 567 624 515 c 2,5,-1
 624 -12 l 2,6,7
 624 -99 624 -99 591.5 -145 c 128,-1,8
 559 -191 559 -191 497 -191 c 0,9,10
 460 -191 460 -191 437.5 -174.5 c 128,-1,11
 415 -158 415 -158 415 -134 c 0,12,13
 415 -117 415 -117 423.5 -107.5 c 128,-1,14
 432 -98 432 -98 447 -98 c 0,15,16
 464 -98 464 -98 471 -107 c 128,-1,17
 478 -116 478 -116 484 -134 c 0,18,19
 490 -153 490 -153 497.5 -162 c 128,-1,20
 505 -171 505 -171 522 -171 c 0,21,22
 560 -171 560 -171 581 -128 c 128,-1,23
 602 -85 602 -85 602 -14 c 2,24,-1
 602 -2 l 1,25,-1
 152 543 l 1,26,-1
 143 553 l 1,27,-1
 143 109 l 2,28,29
 143 57 143 57 161.5 34.5 c 128,-1,30
 180 12 180 12 221 12 c 0,31,32
 224 12 224 12 224 6 c 128,-1,33
 224 0 224 0 221 0 c 0,34,35
 196 0 196 0 183 1 c 2,36,-1
 133 2 l 1,37,-1
 82 1 l 2,38,39
 68 0 68 0 41 0 c 0,40,41
 39 0 39 0 39 6 c 128,-1,42
 39 12 39 12 41 12 c 0,43,44
 84 12 84 12 102.5 34.5 c 128,-1,45
 121 57 121 57 121 109 c 2,46,-1
 121 576 l 1,47,48
 80 613 80 613 41 613 c 0,49,50
 38 613 38 613 38 619 c 128,-1,51
 38 625 38 625 41 625 c 2,52,-1
 78 624 l 2,53,54
 90 623 90 623 111 623 c 0,55,56
 133 623 133 623 147 624 c 128,-1,57
 161 625 161 625 169 625 c 256,58,59
 177 625 177 625 180.5 621.5 c 128,-1,60
 184 618 184 618 192 606 c 0,61,62
 204 588 204 588 216 573 c 2,63,-1
 602 99 l 1,64,-1
 602 515 l 2,65,66
 602 567 602 567 584 590 c 128,-1,67
 566 613 566 613 525 613 c 0,68,69
 523 613 523 613 523 619 c 128,-1,70
 523 625 523 625 525 625 c 2,71,-1
 564 624 l 2,72,73
 594 622 594 622 613 622 c 0,74,75
 631 622 631 622 663 624 c 2,76,-1
 704 625 l 2,77,0
 707 625 707 625 707 619 c 128,-1,1
EndSplineSet
Validated: 1
Position2: "'cpsp' Capital Spacing lookup 0 subtable" dx=5 dy=0 dh=10 dv=0
EndChar

StartChar: O
Encoding: 79 79 115
Width: 766
GlyphClass: 2
Flags: W
AnchorPoint: "Anchor-15" 607 579 basechar 0
AnchorPoint: "Anchor-14" 385 625 basechar 0
AnchorPoint: "Anchor-13" 501 12 basechar 0
AnchorPoint: "Anchor-12" 395 0 basechar 0
LayerCount: 2
Fore
SplineSet
200.5 31.5 m 128,-1,1
 128 75 128 75 88.5 149.5 c 128,-1,2
 49 224 49 224 49 312 c 0,3,4
 49 415 49 415 101 488.5 c 128,-1,5
 153 562 153 562 234.5 599 c 128,-1,6
 316 636 316 636 401 636 c 0,7,8
 496 636 496 636 568 591.5 c 128,-1,9
 640 547 640 547 678.5 474 c 128,-1,10
 717 401 717 401 717 319 c 0,11,12
 717 228 717 228 669 152 c 128,-1,13
 621 76 621 76 540.5 32 c 128,-1,14
 460 -12 460 -12 366 -12 c 0,15,0
 273 -12 273 -12 200.5 31.5 c 128,-1,1
523.5 42 m 128,-1,17
 578 75 578 75 609.5 139 c 128,-1,18
 641 203 641 203 641 291 c 0,19,20
 641 385 641 385 606 458 c 128,-1,21
 571 531 571 531 507.5 572 c 128,-1,22
 444 613 444 613 359 613 c 0,23,24
 249 613 249 613 187 542 c 128,-1,25
 125 471 125 471 125 347 c 0,26,27
 125 253 125 253 160 175.5 c 128,-1,28
 195 98 195 98 258 53.5 c 128,-1,29
 321 9 321 9 401 9 c 0,30,16
 469 9 469 9 523.5 42 c 128,-1,17
EndSplineSet
Validated: 1
Substitution2: "Single Substitution lookup 63 subtable" ordmasculine
Substitution2: "'aalt' Access All Alternates lookup 0 subtable" ordmasculine
Position2: "'cpsp' Capital Spacing lookup 0 subtable" dx=5 dy=0 dh=10 dv=0
EndChar

StartChar: Ohorn
Encoding: 416 416 129
Width: 766
GlyphClass: 2
Flags: W
AnchorPoint: "Anchor-15" 607 578 basechar 0
AnchorPoint: "Anchor-14" 384 625 basechar 0
AnchorPoint: "Anchor-13" 501 12 basechar 0
AnchorPoint: "Anchor-12" 384 0 basechar 0
LayerCount: 2
Fore
SplineSet
628 543 m 1,1,2
 671 498 671 498 694 439.5 c 128,-1,3
 717 381 717 381 717 319 c 0,4,5
 717 228 717 228 669 152 c 128,-1,6
 621 76 621 76 540.5 32 c 128,-1,7
 460 -12 460 -12 366 -12 c 0,8,9
 273 -12 273 -12 200.5 31.5 c 128,-1,10
 128 75 128 75 88.5 149.5 c 128,-1,11
 49 224 49 224 49 312 c 0,12,13
 49 415 49 415 101 488.5 c 128,-1,14
 153 562 153 562 234.5 599 c 128,-1,15
 316 636 316 636 401 636 c 0,16,17
 466 636 466 636 521 614.5 c 128,-1,18
 576 593 576 593 617 554 c 1,19,20
 645 567 645 567 659.5 583 c 128,-1,21
 674 599 674 599 674 616 c 0,22,23
 674 624 674 624 670 630 c 128,-1,24
 666 636 666 636 665 637 c 0,25,26
 659 644 659 644 656 650 c 128,-1,27
 653 656 653 656 653 666 c 0,28,29
 653 684 653 684 665.5 694 c 128,-1,30
 678 704 678 704 694 704 c 0,31,32
 713 704 713 704 723 691 c 128,-1,33
 733 678 733 678 733 660 c 0,34,0
 733 593 733 593 628 543 c 1,1,2
523.5 42 m 128,-1,36
 578 75 578 75 609.5 139 c 128,-1,37
 641 203 641 203 641 291 c 0,38,39
 641 385 641 385 606 458 c 128,-1,40
 571 531 571 531 507.5 572 c 128,-1,41
 444 613 444 613 359 613 c 0,42,43
 249 613 249 613 187 542 c 128,-1,44
 125 471 125 471 125 347 c 0,45,46
 125 253 125 253 160 175.5 c 128,-1,47
 195 98 195 98 258 53.5 c 128,-1,48
 321 9 321 9 401 9 c 0,49,35
 469 9 469 9 523.5 42 c 128,-1,36
EndSplineSet
Validated: 1
Position2: "'cpsp' Capital Spacing lookup 0 subtable" dx=5 dy=0 dh=10 dv=0
EndChar

StartChar: uni01EA
Encoding: 490 490 137
Width: 766
GlyphClass: 2
Flags: W
AnchorPoint: "Anchor-15" 607 579 basechar 0
AnchorPoint: "Anchor-14" 384 625 basechar 0
AnchorPoint: "Anchor-13" 501 12 basechar 0
AnchorPoint: "Anchor-12" 395 0 basechar 0
LayerCount: 2
Fore
SplineSet
385 -72 m 128,-1,1
 368 -105 368 -105 368 -143 c 0,2,3
 368 -191 368 -191 392 -218 c 128,-1,4
 416 -245 416 -245 461 -245 c 0,5,6
 482 -245 482 -245 497 -239 c 128,-1,7
 512 -233 512 -233 526 -222 c 1,8,-1
 528 -222 l 2,9,10
 531 -222 531 -222 533.5 -225 c 128,-1,11
 536 -228 536 -228 533 -230 c 0,12,13
 482 -275 482 -275 425 -275 c 0,14,15
 371 -275 371 -275 342 -248 c 128,-1,16
 313 -221 313 -221 313 -176 c 0,17,18
 313 -94 313 -94 416 -9 c 1,19,20
 391 -12 391 -12 366 -12 c 0,21,22
 273 -12 273 -12 200.5 31.5 c 128,-1,23
 128 75 128 75 88.5 149.5 c 128,-1,24
 49 224 49 224 49 312 c 0,25,26
 49 415 49 415 101 488.5 c 128,-1,27
 153 562 153 562 234.5 599 c 128,-1,28
 316 636 316 636 401 636 c 0,29,30
 496 636 496 636 568 591.5 c 128,-1,31
 640 547 640 547 678.5 474 c 128,-1,32
 717 401 717 401 717 319 c 0,33,34
 717 240 717 240 680.5 171.5 c 128,-1,35
 644 103 644 103 580.5 57 c 128,-1,36
 517 11 517 11 439 -5 c 1,37,0
 402 -39 402 -39 385 -72 c 128,-1,1
160 175.5 m 128,-1,39
 195 98 195 98 258 53.5 c 128,-1,40
 321 9 321 9 401 9 c 0,41,42
 469 9 469 9 523.5 42 c 128,-1,43
 578 75 578 75 609.5 139 c 128,-1,44
 641 203 641 203 641 291 c 0,45,46
 641 385 641 385 606 458 c 128,-1,47
 571 531 571 531 507.5 572 c 128,-1,48
 444 613 444 613 359 613 c 0,49,50
 249 613 249 613 187 542 c 128,-1,51
 125 471 125 471 125 347 c 0,52,38
 125 253 125 253 160 175.5 c 128,-1,39
EndSplineSet
Validated: 1
Position2: "'cpsp' Capital Spacing lookup 0 subtable" dx=5 dy=0 dh=10 dv=0
EndChar

StartChar: Oslash
Encoding: 216 216 138
Width: 771
GlyphClass: 2
Flags: W
AnchorPoint: "Anchor-15" 607 579 basechar 0
AnchorPoint: "Anchor-14" 388 625 basechar 0
AnchorPoint: "Anchor-13" 501 12 basechar 0
AnchorPoint: "Anchor-12" 386 0 basechar 0
LayerCount: 2
Fore
SplineSet
693 442 m 128,-1,1
 717 382 717 382 717 319 c 0,2,3
 717 228 717 228 669 152 c 128,-1,4
 621 76 621 76 540.5 32 c 128,-1,5
 460 -12 460 -12 366 -12 c 0,6,7
 303 -12 303 -12 249 8.5 c 128,-1,8
 195 29 195 29 153 67 c 1,9,-1
 80 -7 l 1,10,-1
 78 -8 l 2,11,12
 74 -8 74 -8 68 -1.5 c 128,-1,13
 62 5 62 5 65 8 c 2,14,-1
 138 82 l 1,15,16
 95 126 95 126 72 185.5 c 128,-1,17
 49 245 49 245 49 312 c 0,18,19
 49 415 49 415 101 488.5 c 128,-1,20
 153 562 153 562 234.5 599 c 128,-1,21
 316 636 316 636 401 636 c 0,22,23
 463 636 463 636 516 616.5 c 128,-1,24
 569 597 569 597 610 561 c 1,25,-1
 678 630 l 1,26,-1
 680 631 l 2,27,28
 685 631 685 631 691 625 c 128,-1,29
 697 619 697 619 694 617 c 2,30,-1
 625 546 l 1,31,0
 669 502 669 502 693 442 c 128,-1,1
140.5 229.5 m 128,-1,33
 156 174 156 174 185 130 c 1,34,-1
 568 518 l 1,35,36
 531 564 531 564 477.5 588.5 c 128,-1,37
 424 613 424 613 359 613 c 0,38,39
 249 613 249 613 187 542 c 128,-1,40
 125 471 125 471 125 347 c 0,41,32
 125 285 125 285 140.5 229.5 c 128,-1,33
523.5 42 m 128,-1,43
 578 75 578 75 609.5 139 c 128,-1,44
 641 203 641 203 641 291 c 0,45,46
 641 352 641 352 625.5 406 c 128,-1,47
 610 460 610 460 581 502 c 1,48,-1
 197 112 l 1,49,50
 234 63 234 63 286.5 36 c 128,-1,51
 339 9 339 9 401 9 c 0,52,42
 469 9 469 9 523.5 42 c 128,-1,43
EndSplineSet
Validated: 1
Position2: "'cpsp' Capital Spacing lookup 0 subtable" dx=5 dy=0 dh=10 dv=0
EndChar

StartChar: OE
Encoding: 338 338 141
Width: 914
GlyphClass: 2
Flags: W
AnchorPoint: "Anchor-15" 0 0 basechar 0
AnchorPoint: "Anchor-14" 457 625 basechar 0
AnchorPoint: "Anchor-13" 0 0 basechar 0
AnchorPoint: "Anchor-12" 457 0 basechar 0
LayerCount: 2
Fore
SplineSet
858.5 150.5 m 128,-1,1
 864 150 864 150 864 147 c 0,2,3
 855 68 855 68 855 15 c 0,4,5
 855 7 855 7 852 3.5 c 128,-1,6
 849 0 849 0 840 0 c 2,7,-1
 542 0 l 2,8,9
 520 0 520 0 472 -2 c 0,10,11
 422 -4 422 -4 398 -4 c 0,12,13
 297 -4 297 -4 217.5 36 c 128,-1,14
 138 76 138 76 93.5 146 c 128,-1,15
 49 216 49 216 49 301 c 0,16,17
 49 398 49 398 95.5 472 c 128,-1,18
 142 546 142 546 220.5 586.5 c 128,-1,19
 299 627 299 627 393 627 c 0,20,21
 436 627 436 627 461 626 c 2,22,-1
 540 625 l 1,23,-1
 822 625 l 2,24,25
 832 625 832 625 832 616 c 2,26,-1
 834 493 l 2,27,28
 834 490 834 490 828 489.5 c 128,-1,29
 822 489 822 489 822 492 c 0,30,31
 820 539 820 539 790 571.5 c 128,-1,32
 760 604 760 604 715 604 c 2,33,-1
 651 604 l 2,34,35
 616 604 616 604 599.5 599 c 128,-1,36
 583 594 583 594 577 581.5 c 128,-1,37
 571 569 571 569 571 543 c 2,38,-1
 571 336 l 1,39,-1
 693 336 l 2,40,41
 742 336 742 336 762.5 352 c 128,-1,42
 783 368 783 368 783 406 c 0,43,44
 783 408 783 408 788.5 408 c 128,-1,45
 794 408 794 408 794 406 c 2,46,-1
 793 325 l 2,47,48
 793 296 793 296 794 281 c 2,49,-1
 795 233 l 2,50,51
 795 231 795 231 789.5 231 c 128,-1,52
 784 231 784 231 784 233 c 0,53,54
 784 277 784 277 762.5 296 c 128,-1,55
 741 315 741 315 690 315 c 2,56,-1
 571 315 l 1,57,-1
 571 85 l 2,58,59
 571 58 571 58 577 44.5 c 128,-1,60
 583 31 583 31 599.5 26 c 128,-1,61
 616 21 616 21 649 21 c 2,62,-1
 732 21 l 2,63,64
 775 21 775 21 809 57 c 128,-1,65
 843 93 843 93 853 148 c 0,66,0
 853 151 853 151 858.5 150.5 c 128,-1,1
506 534 m 2,67,68
 506 563 506 563 497.5 579.5 c 128,-1,69
 489 596 489 596 467 604 c 128,-1,70
 445 612 445 612 403 612 c 0,71,72
 322 612 322 612 259 578.5 c 128,-1,73
 196 545 196 545 160.5 479.5 c 128,-1,74
 125 414 125 414 125 323 c 0,75,76
 125 235 125 235 158.5 164 c 128,-1,77
 192 93 192 93 253.5 52 c 128,-1,78
 315 11 315 11 397 11 c 0,79,80
 440 11 440 11 463 16 c 128,-1,81
 486 21 486 21 496 36.5 c 128,-1,82
 506 52 506 52 506 82 c 2,83,-1
 506 534 l 2,67,68
EndSplineSet
Validated: 1
Position2: "'cpsp' Capital Spacing lookup 0 subtable" dx=5 dy=0 dh=10 dv=0
EndChar

StartChar: P
Encoding: 80 80 142
Width: 543
GlyphClass: 2
Flags: W
AnchorPoint: "Anchor-15" 0 0 basechar 0
AnchorPoint: "Anchor-14" 271 625 basechar 0
AnchorPoint: "Anchor-13" 0 0 basechar 0
AnchorPoint: "Anchor-12" 271 0 basechar 0
LayerCount: 2
Fore
SplineSet
200.5 38.5 m 128,-1,1
 209 24 209 24 233.5 18 c 128,-1,2
 258 12 258 12 311 12 c 0,3,4
 314 12 314 12 314 6 c 128,-1,5
 314 0 314 0 311 0 c 0,6,7
 270 0 270 0 247 1 c 2,8,-1
 160 2 l 1,9,-1
 93 1 l 2,10,11
 74 0 74 0 42 0 c 0,12,13
 40 0 40 0 40 6 c 128,-1,14
 40 12 40 12 42 12 c 0,15,16
 80 12 80 12 97.5 17 c 128,-1,17
 115 22 115 22 121 36.5 c 128,-1,18
 127 51 127 51 127 81 c 2,19,-1
 127 544 l 2,20,21
 127 574 127 574 121 588 c 128,-1,22
 115 602 115 602 97.5 607.5 c 128,-1,23
 80 613 80 613 42 613 c 0,24,25
 40 613 40 613 40 619 c 128,-1,26
 40 625 40 625 42 625 c 2,27,-1
 92 624 l 2,28,29
 134 622 134 622 159 622 c 256,30,31
 184 622 184 622 215 625 c 0,32,33
 227 625 227 625 253 626.5 c 128,-1,34
 279 628 279 628 298 628 c 0,35,36
 390 628 390 628 445.5 587 c 128,-1,37
 501 546 501 546 501 462 c 0,38,39
 501 396 501 396 468.5 351 c 128,-1,40
 436 306 436 306 385 284 c 128,-1,41
 334 262 334 262 280 262 c 0,42,43
 251 262 251 262 232 267 c 0,44,45
 229 267 229 267 229 272 c 0,46,47
 229 275 229 275 230.5 278 c 128,-1,48
 232 281 232 281 234 280 c 0,49,50
 250 276 250 276 270 276 c 0,51,52
 336 276 336 276 381.5 319 c 128,-1,53
 427 362 427 362 427 443 c 0,54,55
 427 522 427 522 384 567.5 c 128,-1,56
 341 613 341 613 274 613 c 0,57,58
 238 613 238 613 222 609 c 128,-1,59
 206 605 206 605 199 590.5 c 128,-1,60
 192 576 192 576 192 542 c 2,61,-1
 192 85 l 2,62,0
 192 53 192 53 200.5 38.5 c 128,-1,1
EndSplineSet
Validated: 1
Position2: "'cpsp' Capital Spacing lookup 0 subtable" dx=5 dy=0 dh=10 dv=0
EndChar

StartChar: Thorn
Encoding: 222 222 143
Width: 538
GlyphClass: 2
Flags: W
AnchorPoint: "Anchor-15" 0 0 basechar 0
AnchorPoint: "Anchor-14" 269 625 basechar 0
AnchorPoint: "Anchor-13" 0 0 basechar 0
AnchorPoint: "Anchor-12" 269 0 basechar 0
LayerCount: 2
Fore
SplineSet
382 190.5 m 128,-1,1
 427 234 427 234 427 316 c 0,2,3
 427 396 427 396 381 440.5 c 128,-1,4
 335 485 335 485 260 485 c 0,5,6
 226 485 226 485 191 477 c 1,7,-1
 191 85 l 2,8,9
 191 53 191 53 199.5 38.5 c 128,-1,10
 208 24 208 24 232.5 18 c 128,-1,11
 257 12 257 12 310 12 c 0,12,13
 313 12 313 12 313 6 c 128,-1,14
 313 0 313 0 310 0 c 0,15,16
 269 0 269 0 246 1 c 2,17,-1
 159 2 l 1,18,-1
 93 1 l 2,19,20
 75 0 75 0 43 0 c 0,21,22
 41 0 41 0 41 6 c 128,-1,23
 41 12 41 12 43 12 c 0,24,25
 80 12 80 12 97 17 c 128,-1,26
 114 22 114 22 120 36.5 c 128,-1,27
 126 51 126 51 126 81 c 2,28,-1
 126 544 l 2,29,30
 126 574 126 574 120 588 c 128,-1,31
 114 602 114 602 97 607.5 c 128,-1,32
 80 613 80 613 43 613 c 0,33,34
 41 613 41 613 41 619 c 128,-1,35
 41 625 41 625 43 625 c 2,36,-1
 93 624 l 2,37,38
 133 622 133 622 159 622 c 0,39,40
 194 622 194 622 246 624 c 2,41,-1
 310 625 l 2,42,43
 313 625 313 625 313 619 c 128,-1,44
 313 613 313 613 310 613 c 0,45,46
 257 613 257 613 232.5 607 c 128,-1,47
 208 601 208 601 199.5 586 c 128,-1,48
 191 571 191 571 191 539 c 2,49,-1
 191 492 l 1,50,51
 236 499 236 499 285 499 c 0,52,53
 383 499 383 499 442 459 c 128,-1,54
 501 419 501 419 501 329 c 0,55,56
 501 264 501 264 468 220 c 128,-1,57
 435 176 435 176 385 154.5 c 128,-1,58
 335 133 335 133 283 133 c 0,59,60
 260 133 260 133 233 138 c 0,61,62
 231 138 231 138 231 143 c 0,63,64
 231 146 231 146 232.5 149 c 128,-1,65
 234 152 234 152 236 151 c 0,66,67
 260 147 260 147 272 147 c 0,68,0
 337 147 337 147 382 190.5 c 128,-1,1
EndSplineSet
Validated: 1
Position2: "'cpsp' Capital Spacing lookup 0 subtable" dx=5 dy=0 dh=10 dv=0
EndChar

StartChar: Q
Encoding: 81 81 144
Width: 766
GlyphClass: 2
Flags: W
AnchorPoint: "Anchor-15" 607 579 basechar 0
AnchorPoint: "Anchor-14" 384 625 basechar 0
AnchorPoint: "Anchor-13" 501 12 basechar 0
AnchorPoint: "Anchor-12" 384 0 basechar 0
LayerCount: 2
Fore
SplineSet
746 -161 m 2,0,1
 748 -161 748 -161 749.5 -165.5 c 128,-1,2
 751 -170 751 -170 749 -171 c 0,3,4
 698 -183 698 -183 664 -183 c 0,5,6
 595 -183 595 -183 518.5 -137.5 c 128,-1,7
 442 -92 442 -92 386 -11 c 1,8,9
 379 -12 379 -12 366 -12 c 0,10,11
 273 -12 273 -12 200.5 31.5 c 128,-1,12
 128 75 128 75 88.5 149.5 c 128,-1,13
 49 224 49 224 49 312 c 0,14,15
 49 415 49 415 101 488.5 c 128,-1,16
 153 562 153 562 234.5 599 c 128,-1,17
 316 636 316 636 401 636 c 0,18,19
 496 636 496 636 568 591.5 c 128,-1,20
 640 547 640 547 678.5 474 c 128,-1,21
 717 401 717 401 717 319 c 0,22,23
 717 245 717 245 684.5 179.5 c 128,-1,24
 652 114 652 114 595 68 c 128,-1,25
 538 22 538 22 466 2 c 1,26,27
 508 -70 508 -70 577.5 -116.5 c 128,-1,28
 647 -163 647 -163 709 -163 c 0,29,30
 727 -163 727 -163 745 -161 c 2,31,-1
 746 -161 l 2,0,1
160 175.5 m 128,-1,33
 195 98 195 98 258 53.5 c 128,-1,34
 321 9 321 9 401 9 c 0,35,36
 469 9 469 9 523.5 42 c 128,-1,37
 578 75 578 75 609.5 139 c 128,-1,38
 641 203 641 203 641 291 c 0,39,40
 641 385 641 385 606 458 c 128,-1,41
 571 531 571 531 507.5 572 c 128,-1,42
 444 613 444 613 359 613 c 0,43,44
 249 613 249 613 187 542 c 128,-1,45
 125 471 125 471 125 347 c 0,46,32
 125 253 125 253 160 175.5 c 128,-1,33
EndSplineSet
Validated: 1
Substitution2: "Single Substitution lookup 63 subtable" Q.long
Substitution2: "'ss01' Style Set 1 lookup 54 subtable" Q.ss01
Substitution2: "'cv02' Character Variants 02 lookup 48 subtable" Q.cv02
Substitution2: "'cv01' Character Variants 01 lookup 47 subtable" Q.cv01
AlternateSubs2: "'aalt' Access All Alternates lookup 1 subtable" Q.long Q.cv01 Q.cv02 Q.ss01
Position2: "'cpsp' Capital Spacing lookup 0 subtable" dx=5 dy=0 dh=10 dv=0
EndChar

StartChar: R
Encoding: 82 82 145
Width: 673
GlyphClass: 2
Flags: W
AnchorPoint: "Anchor-15" 0 0 basechar 0
AnchorPoint: "Anchor-14" 257 625 basechar 0
AnchorPoint: "Anchor-13" 0 0 basechar 0
AnchorPoint: "Anchor-12" 341 0 basechar 0
LayerCount: 2
Fore
SplineSet
685 6 m 128,-1,1
 685 0 685 0 683 0 c 2,2,-1
 554 0 l 2,3,4
 529 0 529 0 460.5 85.5 c 128,-1,5
 392 171 392 171 294 324 c 1,6,7
 270 317 270 317 240 317 c 0,8,9
 221 317 221 317 195 319 c 1,10,-1
 195 81 l 2,11,12
 195 50 195 50 201 36 c 128,-1,13
 207 22 207 22 224.5 17 c 128,-1,14
 242 12 242 12 280 12 c 0,15,16
 283 12 283 12 283 6 c 128,-1,17
 283 0 283 0 280 0 c 0,18,19
 249 0 249 0 231 1 c 2,20,-1
 162 2 l 1,21,-1
 94 1 l 2,22,23
 76 0 76 0 43 0 c 0,24,25
 41 0 41 0 41 6 c 128,-1,26
 41 12 41 12 43 12 c 0,27,28
 81 12 81 12 99 17.5 c 128,-1,29
 117 23 117 23 124 37 c 128,-1,30
 131 51 131 51 131 81 c 2,31,-1
 131 544 l 2,32,33
 131 574 131 574 124.5 588 c 128,-1,34
 118 602 118 602 100.5 607.5 c 128,-1,35
 83 613 83 613 45 613 c 0,36,37
 42 613 42 613 42 619 c 128,-1,38
 42 625 42 625 45 625 c 2,39,-1
 94 624 l 2,40,41
 136 622 136 622 162 622 c 0,42,43
 180 622 180 622 196 623 c 128,-1,44
 212 624 212 624 224 625 c 0,45,46
 256 628 256 628 282 628 c 0,47,48
 363 628 363 628 407 595 c 128,-1,49
 451 562 451 562 451 503 c 0,50,51
 451 455 451 455 423 412.5 c 128,-1,52
 395 370 395 370 349 345 c 1,53,54
 434 218 434 218 492 146.5 c 128,-1,55
 550 75 550 75 595 43.5 c 128,-1,56
 640 12 640 12 683 12 c 0,57,0
 685 12 685 12 685 6 c 128,-1,1
254 340 m 0,59,60
 323 340 323 340 353 369.5 c 128,-1,61
 383 399 383 399 383 468 c 0,62,63
 383 613 383 613 261 613 c 0,64,65
 234 613 234 613 220.5 608.5 c 128,-1,66
 207 604 207 604 201 589.5 c 128,-1,67
 195 575 195 575 195 542 c 2,68,-1
 195 344 l 1,69,58
 220 340 220 340 254 340 c 0,59,60
EndSplineSet
Validated: 1
Substitution2: "Single Substitution lookup 63 subtable" R.short
Substitution2: "'ss02' Style Set 2 lookup 55 subtable" R.ss02
Substitution2: "'ss01' Style Set 1 lookup 54 subtable" R.ss01
AlternateSubs2: "'aalt' Access All Alternates lookup 1 subtable" R.short R.ss01 R.ss02
Position2: "'cpsp' Capital Spacing lookup 0 subtable" dx=5 dy=0 dh=10 dv=0
EndChar

StartChar: S
Encoding: 83 83 152
Width: 491
GlyphClass: 2
Flags: W
AnchorPoint: "Anchor-15" 0 0 basechar 0
AnchorPoint: "Anchor-14" 255 625 basechar 0
AnchorPoint: "Anchor-13" 0 0 basechar 0
AnchorPoint: "Anchor-12" 265 0 basechar 0
LayerCount: 2
Fore
SplineSet
164 440 m 128,-1,1
 183 411 183 411 210 391.5 c 128,-1,2
 237 372 237 372 286 342 c 0,3,4
 338 311 338 311 367 290 c 128,-1,5
 396 269 396 269 416.5 236.5 c 128,-1,6
 437 204 437 204 437 159 c 0,7,8
 437 111 437 111 413 72 c 128,-1,9
 389 33 389 33 342.5 10.5 c 128,-1,10
 296 -12 296 -12 231 -12 c 0,11,12
 154 -12 154 -12 90 23 c 0,13,14
 85 26 85 26 83.5 30 c 128,-1,15
 82 34 82 34 81 42 c 2,16,-1
 68 178 l 2,17,18
 67 182 67 182 72.5 183 c 128,-1,19
 78 184 78 184 79 180 c 0,20,21
 95 108 95 108 138.5 56 c 128,-1,22
 182 4 182 4 254 4 c 0,23,24
 304 4 304 4 338.5 31.5 c 128,-1,25
 373 59 373 59 373 119 c 0,26,27
 373 164 373 164 353 197 c 128,-1,28
 333 230 333 230 304.5 251.5 c 128,-1,29
 276 273 276 273 227 302 c 0,30,31
 179 331 179 331 151.5 352 c 128,-1,32
 124 373 124 373 105 405 c 128,-1,33
 86 437 86 437 86 480 c 0,34,35
 86 530 86 530 112.5 565.5 c 128,-1,36
 139 601 139 601 181.5 618.5 c 128,-1,37
 224 636 224 636 272 636 c 0,38,39
 331 636 331 636 389 612 c 0,40,41
 404 607 404 607 404 595 c 2,42,-1
 411 480 l 2,43,44
 411 476 411 476 406 476 c 128,-1,45
 401 476 401 476 400 480 c 0,46,47
 392 532 392 532 357 576.5 c 128,-1,48
 322 621 322 621 256 621 c 0,49,50
 200 621 200 621 172.5 588.5 c 128,-1,51
 145 556 145 556 145 508 c 0,52,0
 145 469 145 469 164 440 c 128,-1,1
EndSplineSet
Validated: 1
Position2: "'cpsp' Capital Spacing lookup 0 subtable" dx=5 dy=0 dh=10 dv=0
EndChar

StartChar: uniA78B
Encoding: 42891 42891 154
Width: 247
Flags: W
LayerCount: 2
Fore
SplineSet
92.5 728.5 m 128,-1,1
 107 731 107 731 124 731 c 256,2,3
 141 731 141 731 155.5 728.5 c 128,-1,4
 170 726 170 726 168 722 c 0,5,6
 151 635 151 635 142.5 529 c 128,-1,7
 134 423 134 423 128 291 c 0,8,9
 128 288 128 288 121.5 288 c 128,-1,10
 115 288 115 288 115 291 c 0,11,12
 110 427 110 427 102.5 531 c 128,-1,13
 95 635 95 635 79 722 c 0,14,0
 78 726 78 726 92.5 728.5 c 128,-1,1
EndSplineSet
Validated: 1
Position2: "'cpsp' Capital Spacing lookup 0 subtable" dx=5 dy=0 dh=10 dv=0
EndChar

StartChar: Scedilla
Encoding: 350 350 156
Width: 491
GlyphClass: 2
Flags: W
AnchorPoint: "Anchor-15" 0 0 basechar 0
AnchorPoint: "Anchor-14" 0 0 basechar 0
AnchorPoint: "Anchor-13" 0 0 basechar 0
AnchorPoint: "Anchor-12" 265 0 basechar 0
LayerCount: 2
Fore
SplineSet
390.5 44 m 128,-1,1
 344 -3 344 -3 261 -11 c 1,2,3
 250 -44 250 -44 250 -57 c 0,4,5
 250 -71 250 -71 258.5 -78.5 c 128,-1,6
 267 -86 267 -86 294 -102 c 0,7,8
 319 -116 319 -116 334 -134 c 128,-1,9
 349 -152 349 -152 349 -179 c 0,10,11
 349 -216 349 -216 322.5 -245.5 c 128,-1,12
 296 -275 296 -275 245 -275 c 0,13,14
 217 -275 217 -275 198.5 -265 c 128,-1,15
 180 -255 180 -255 180 -237 c 0,16,17
 180 -224 180 -224 189 -215.5 c 128,-1,18
 198 -207 198 -207 211 -207 c 0,19,20
 222 -207 222 -207 228 -212.5 c 128,-1,21
 234 -218 234 -218 240 -229 c 0,22,23
 246 -242 246 -242 253.5 -248.5 c 128,-1,24
 261 -255 261 -255 276 -255 c 0,25,26
 310 -255 310 -255 310 -217 c 0,27,28
 310 -191 310 -191 291.5 -170.5 c 128,-1,29
 273 -150 273 -150 225 -124 c 0,30,31
 218 -121 218 -121 214 -118 c 128,-1,32
 210 -115 210 -115 210 -111 c 0,33,34
 210 -106 210 -106 216 -94 c 0,35,36
 229 -63 229 -63 247 -12 c 1,37,-1
 231 -12 l 2,38,39
 154 -12 154 -12 90 23 c 0,40,41
 85 26 85 26 83.5 30 c 128,-1,42
 82 34 82 34 81 42 c 2,43,-1
 68 178 l 2,44,45
 67 182 67 182 72.5 183 c 128,-1,46
 78 184 78 184 79 180 c 0,47,48
 95 108 95 108 138.5 56 c 128,-1,49
 182 4 182 4 254 4 c 0,50,51
 304 4 304 4 338.5 31.5 c 128,-1,52
 373 59 373 59 373 119 c 0,53,54
 373 164 373 164 353 197 c 128,-1,55
 333 230 333 230 304.5 251.5 c 128,-1,56
 276 273 276 273 227 302 c 0,57,58
 179 331 179 331 151.5 352 c 128,-1,59
 124 373 124 373 105 405 c 128,-1,60
 86 437 86 437 86 480 c 0,61,62
 86 530 86 530 112.5 565.5 c 128,-1,63
 139 601 139 601 181.5 618.5 c 128,-1,64
 224 636 224 636 272 636 c 0,65,66
 331 636 331 636 389 612 c 0,67,68
 404 607 404 607 404 595 c 2,69,-1
 411 480 l 2,70,71
 411 476 411 476 406 476 c 128,-1,72
 401 476 401 476 400 480 c 0,73,74
 392 532 392 532 357 576.5 c 128,-1,75
 322 621 322 621 256 621 c 0,76,77
 200 621 200 621 172.5 588.5 c 128,-1,78
 145 556 145 556 145 508 c 0,79,80
 145 469 145 469 164 440 c 128,-1,81
 183 411 183 411 210 391.5 c 128,-1,82
 237 372 237 372 286 342 c 0,83,84
 338 311 338 311 367 290 c 128,-1,85
 396 269 396 269 416.5 236.5 c 128,-1,86
 437 204 437 204 437 159 c 0,87,0
 437 91 437 91 390.5 44 c 128,-1,1
EndSplineSet
Validated: 1
Substitution2: "'locl' Localized Forms in Latin lookup 14 subtable" uni0218
Substitution2: "'locl' Localized Forms in Latin lookup 13 subtable" uni0218
Substitution2: "'aalt' Access All Alternates lookup 0 subtable" uni0218
Position2: "'cpsp' Capital Spacing lookup 0 subtable" dx=5 dy=0 dh=10 dv=0
EndChar

StartChar: uni1E9E
Encoding: 7838 7838 161
Width: 671
GlyphClass: 2
Flags: W
AnchorPoint: "Anchor-15" 0 0 basechar 0
AnchorPoint: "Anchor-14" 347 625 basechar 0
AnchorPoint: "Anchor-13" 0 0 basechar 0
AnchorPoint: "Anchor-12" 347 0 basechar 0
LayerCount: 2
Fore
SplineSet
554.5 44 m 128,-1,1
 584 79 584 79 584 135 c 0,2,3
 584 196 584 196 546.5 246.5 c 128,-1,4
 509 297 509 297 431 330 c 0,5,6
 426 332 426 332 425 336.5 c 128,-1,7
 424 341 424 341 427 345 c 2,8,-1
 539 552 l 1,9,10
 477 578 477 578 426.5 590 c 128,-1,11
 376 602 376 602 330 602 c 0,12,13
 250 602 250 602 212.5 557 c 128,-1,14
 175 512 175 512 175 402 c 2,15,-1
 175 81 l 2,16,17
 175 50 175 50 181 36 c 128,-1,18
 187 22 187 22 204 17 c 128,-1,19
 221 12 221 12 259 12 c 0,20,21
 262 12 262 12 262 6 c 128,-1,22
 262 0 262 0 259 0 c 2,23,-1
 141 1 l 1,24,-1
 26 0 l 2,25,26
 23 0 23 0 23 6 c 128,-1,27
 23 12 23 12 26 12 c 0,28,29
 62 12 62 12 79.5 17.5 c 128,-1,30
 97 23 97 23 104 37 c 128,-1,31
 111 51 111 51 111 81 c 2,32,-1
 111 377 l 2,33,34
 111 441 111 441 144.5 501 c 128,-1,35
 178 561 178 561 242 598.5 c 128,-1,36
 306 636 306 636 394 636 c 0,37,38
 434 636 434 636 482.5 630.5 c 128,-1,39
 531 625 531 625 569 617 c 2,40,-1
 577 616 l 2,41,42
 583 616 583 616 586.5 619 c 128,-1,43
 590 622 590 622 595 630 c 0,44,45
 596 631 596 631 598 631 c 0,46,47
 601 631 601 631 604 629 c 128,-1,48
 607 627 607 627 606 625 c 2,49,-1
 475 384 l 1,50,51
 556 348 556 348 595.5 296 c 128,-1,52
 635 244 635 244 635 183 c 0,53,54
 635 137 635 137 614 92 c 128,-1,55
 593 47 593 47 549.5 17.5 c 128,-1,56
 506 -12 506 -12 442 -12 c 0,57,58
 385 -12 385 -12 334 20 c 0,59,60
 325 25 325 25 325 39 c 2,61,-1
 312 143 l 2,62,63
 311 147 311 147 316.5 148 c 128,-1,64
 322 149 322 149 323 145 c 0,65,66
 329 113 329 113 354.5 81.5 c 128,-1,67
 380 50 380 50 414.5 29.5 c 128,-1,68
 449 9 449 9 482 9 c 0,69,0
 525 9 525 9 554.5 44 c 128,-1,1
EndSplineSet
Validated: 1
Position2: "'cpsp' Capital Spacing lookup 0 subtable" dx=5 dy=0 dh=10 dv=0
EndChar

StartChar: uni018F
Encoding: 399 399 162
Width: 640
GlyphClass: 2
Flags: W
AnchorPoint: "Anchor-15" 0 0 basechar 0
AnchorPoint: "Anchor-14" 337 625 basechar 0
AnchorPoint: "Anchor-13" 0 0 basechar 0
AnchorPoint: "Anchor-12" 372 0 basechar 0
LayerCount: 2
Fore
SplineSet
462.5 591 m 128,-1,1
 530 546 530 546 558 475.5 c 128,-1,2
 586 405 586 405 586 324 c 0,3,4
 586 220 586 220 544 144 c 128,-1,5
 502 68 502 68 430 28 c 128,-1,6
 358 -12 358 -12 270 -12 c 0,7,8
 195 -12 195 -12 144.5 16 c 128,-1,9
 94 44 94 44 70.5 84.5 c 128,-1,10
 47 125 47 125 47 163 c 0,11,12
 47 170 47 170 50 172.5 c 128,-1,13
 53 175 53 175 59 175 c 2,14,-1
 500 177 l 1,15,16
 512 227 512 227 512 288 c 0,17,18
 512 382 512 382 485 458.5 c 128,-1,19
 458 535 458 535 406 579 c 128,-1,20
 354 623 354 623 283 623 c 0,21,22
 216 623 216 623 155 586 c 128,-1,23
 94 549 94 549 71 481 c 0,24,25
 70 477 70 477 64 478 c 128,-1,26
 58 479 58 479 59 482 c 2,27,-1
 101 638 l 2,28,29
 102 642 102 642 107.5 641.5 c 128,-1,30
 113 641 113 641 112 637 c 256,31,32
 111 633 111 633 111 626 c 0,33,34
 111 607 111 607 128 607 c 0,35,36
 131 607 131 607 139 609 c 0,37,38
 182 624 182 624 213.5 630 c 128,-1,39
 245 636 245 636 284 636 c 0,40,0
 395 636 395 636 462.5 591 c 128,-1,1
425.5 46 m 128,-1,42
 474 85 474 85 495 158 c 1,43,-1
 121 153 l 1,44,45
 129 87 129 87 180 47 c 128,-1,46
 231 7 231 7 305 7 c 0,47,41
 377 7 377 7 425.5 46 c 128,-1,42
EndSplineSet
Validated: 1
Position2: "'cpsp' Capital Spacing lookup 0 subtable" dx=5 dy=0 dh=10 dv=0
EndChar

StartChar: T
Encoding: 84 84 163
Width: 634
GlyphClass: 2
Flags: W
AnchorPoint: "Anchor-15" 0 0 basechar 0
AnchorPoint: "Anchor-14" 317 625 basechar 0
AnchorPoint: "Anchor-13" 0 0 basechar 0
AnchorPoint: "Anchor-12" 323 0 basechar 0
LayerCount: 2
Fore
SplineSet
94.5 575 m 128,-1,1
 63 543 63 543 49 466 c 0,2,3
 49 464 49 464 43.5 464 c 128,-1,4
 38 464 38 464 38 466 c 0,5,6
 42 502 42 502 47 560 c 128,-1,7
 52 618 52 618 52 647 c 0,8,9
 52 652 52 652 57.5 652 c 128,-1,10
 63 652 63 652 63 647 c 0,11,12
 63 625 63 625 117 625 c 0,13,14
 202 622 202 622 318 622 c 0,15,16
 377 622 377 622 443 624 c 2,17,-1
 511 625 l 2,18,19
 547 625 547 625 564.5 630 c 128,-1,20
 582 635 582 635 587 650 c 0,21,22
 588 654 588 654 593 654 c 128,-1,23
 598 654 598 654 598 650 c 0,24,25
 595 621 595 621 592 562 c 128,-1,26
 589 503 589 503 589 466 c 0,27,28
 589 464 589 464 583 464 c 128,-1,29
 577 464 577 464 577 466 c 0,30,31
 574 544 574 544 545 575.5 c 128,-1,32
 516 607 516 607 449 607 c 0,33,34
 404 607 404 607 385 603 c 128,-1,35
 366 599 366 599 359 586 c 128,-1,36
 352 573 352 573 352 542 c 2,37,-1
 352 81 l 2,38,39
 352 50 352 50 359 36 c 128,-1,40
 366 22 366 22 386 17 c 128,-1,41
 406 12 406 12 449 12 c 0,42,43
 452 12 452 12 452 6 c 128,-1,44
 452 0 452 0 449 0 c 0,45,46
 416 0 416 0 396 1 c 2,47,-1
 318 2 l 1,48,-1
 243 1 l 2,49,50
 223 0 223 0 188 0 c 0,51,52
 186 0 186 0 186 6 c 128,-1,53
 186 12 186 12 188 12 c 0,54,55
 231 12 231 12 251 17 c 128,-1,56
 271 22 271 22 278.5 36.5 c 128,-1,57
 286 51 286 51 286 81 c 2,58,-1
 286 544 l 2,59,60
 286 575 286 575 279 587.5 c 128,-1,61
 272 600 272 600 253 603.5 c 128,-1,62
 234 607 234 607 189 607 c 0,63,0
 126 607 126 607 94.5 575 c 128,-1,1
EndSplineSet
Validated: 1
Position2: "'cpsp' Capital Spacing lookup 0 subtable" dx=5 dy=0 dh=10 dv=0
EndChar

StartChar: Tbar
Encoding: 358 358 164
Width: 632
GlyphClass: 2
Flags: W
AnchorPoint: "Anchor-15" 0 0 basechar 0
AnchorPoint: "Anchor-14" 317 625 basechar 0
AnchorPoint: "Anchor-13" 0 0 basechar 0
AnchorPoint: "Anchor-12" 323 0 basechar 0
LayerCount: 2
Fore
SplineSet
593 654 m 128,-1,1
 598 654 598 654 598 650 c 0,2,3
 595 621 595 621 592 562 c 128,-1,4
 589 503 589 503 589 466 c 0,5,6
 589 464 589 464 583 464 c 128,-1,7
 577 464 577 464 577 466 c 0,8,9
 574 544 574 544 545 575.5 c 128,-1,10
 516 607 516 607 449 607 c 0,11,12
 404 607 404 607 385 603 c 128,-1,13
 366 599 366 599 359 586 c 128,-1,14
 352 573 352 573 352 542 c 2,15,-1
 352 333 l 1,16,-1
 452 333 l 2,17,18
 454 333 454 333 455.5 330 c 128,-1,19
 457 327 457 327 457 323 c 0,20,21
 457 312 457 312 452 312 c 2,22,-1
 352 312 l 1,23,-1
 352 81 l 2,24,25
 352 50 352 50 359 36 c 128,-1,26
 366 22 366 22 386 17 c 128,-1,27
 406 12 406 12 449 12 c 0,28,29
 452 12 452 12 452 6 c 128,-1,30
 452 0 452 0 449 0 c 0,31,32
 416 0 416 0 396 1 c 2,33,-1
 318 2 l 1,34,-1
 243 1 l 2,35,36
 223 0 223 0 188 0 c 0,37,38
 186 0 186 0 186 6 c 128,-1,39
 186 12 186 12 188 12 c 0,40,41
 231 12 231 12 251 17 c 128,-1,42
 271 22 271 22 278.5 36.5 c 128,-1,43
 286 51 286 51 286 81 c 2,44,-1
 286 312 l 1,45,-1
 187 312 l 2,46,47
 183 312 183 312 183 323 c 0,48,49
 183 333 183 333 187 333 c 2,50,-1
 286 333 l 1,51,-1
 286 544 l 2,52,53
 286 575 286 575 279 587.5 c 128,-1,54
 272 600 272 600 253 603.5 c 128,-1,55
 234 607 234 607 189 607 c 0,56,57
 126 607 126 607 94.5 575 c 128,-1,58
 63 543 63 543 49 466 c 0,59,60
 49 464 49 464 43.5 464 c 128,-1,61
 38 464 38 464 38 466 c 0,62,63
 42 502 42 502 47 560 c 128,-1,64
 52 618 52 618 52 647 c 0,65,66
 52 652 52 652 57.5 652 c 128,-1,67
 63 652 63 652 63 647 c 0,68,69
 63 625 63 625 117 625 c 0,70,71
 202 622 202 622 318 622 c 0,72,73
 377 622 377 622 443 624 c 2,74,-1
 511 625 l 2,75,76
 547 625 547 625 564.5 630 c 128,-1,77
 582 635 582 635 587 650 c 0,78,0
 588 654 588 654 593 654 c 128,-1,1
EndSplineSet
Validated: 1
Position2: "'cpsp' Capital Spacing lookup 0 subtable" dx=5 dy=0 dh=10 dv=0
EndChar

StartChar: uni0162
Encoding: 354 354 166
Width: 634
GlyphClass: 2
Flags: W
AnchorPoint: "Anchor-15" 0 0 basechar 0
AnchorPoint: "Anchor-14" 0 0 basechar 0
AnchorPoint: "Anchor-13" 0 0 basechar 0
AnchorPoint: "Anchor-12" 323 0 basechar 0
LayerCount: 2
Fore
SplineSet
593 654 m 128,-1,1
 598 654 598 654 598 650 c 0,2,3
 595 621 595 621 592 562 c 128,-1,4
 589 503 589 503 589 466 c 0,5,6
 589 464 589 464 583 464 c 128,-1,7
 577 464 577 464 577 466 c 0,8,9
 574 544 574 544 545 575.5 c 128,-1,10
 516 607 516 607 449 607 c 0,11,12
 404 607 404 607 385 603 c 128,-1,13
 366 599 366 599 359 586 c 128,-1,14
 352 573 352 573 352 542 c 2,15,-1
 352 81 l 2,16,17
 352 50 352 50 359 36 c 128,-1,18
 366 22 366 22 386 17 c 128,-1,19
 406 12 406 12 449 12 c 0,20,21
 452 12 452 12 452 6 c 128,-1,22
 452 0 452 0 449 0 c 0,23,24
 417 0 417 0 398 1 c 2,25,-1
 323 2 l 1,26,27
 310 -39 310 -39 310 -54 c 0,28,29
 310 -70 310 -70 319 -79.5 c 128,-1,30
 328 -89 328 -89 351 -102 c 0,31,32
 376 -116 376 -116 390.5 -134 c 128,-1,33
 405 -152 405 -152 405 -179 c 0,34,35
 405 -216 405 -216 379 -245.5 c 128,-1,36
 353 -275 353 -275 302 -275 c 0,37,38
 274 -275 274 -275 255.5 -265 c 128,-1,39
 237 -255 237 -255 237 -237 c 0,40,41
 237 -224 237 -224 246 -215.5 c 128,-1,42
 255 -207 255 -207 268 -207 c 0,43,44
 279 -207 279 -207 285 -212.5 c 128,-1,45
 291 -218 291 -218 297 -229 c 0,46,47
 303 -242 303 -242 310.5 -248.5 c 128,-1,48
 318 -255 318 -255 333 -255 c 0,49,50
 367 -255 367 -255 367 -217 c 0,51,52
 367 -191 367 -191 348.5 -170.5 c 128,-1,53
 330 -150 330 -150 282 -124 c 0,54,55
 275 -121 275 -121 271 -118 c 128,-1,56
 267 -115 267 -115 267 -111 c 0,57,58
 267 -106 267 -106 273 -94 c 0,59,60
 289 -54 289 -54 309 2 c 1,61,-1
 239 1 l 2,62,63
 221 0 221 0 188 0 c 0,64,65
 186 0 186 0 186 6 c 128,-1,66
 186 12 186 12 188 12 c 0,67,68
 231 12 231 12 251 17 c 128,-1,69
 271 22 271 22 278.5 36.5 c 128,-1,70
 286 51 286 51 286 81 c 2,71,-1
 286 544 l 2,72,73
 286 575 286 575 279 587.5 c 128,-1,74
 272 600 272 600 253 603.5 c 128,-1,75
 234 607 234 607 189 607 c 0,76,77
 126 607 126 607 94.5 575 c 128,-1,78
 63 543 63 543 49 466 c 0,79,80
 49 464 49 464 43.5 464 c 128,-1,81
 38 464 38 464 38 466 c 0,82,83
 42 502 42 502 47 560 c 128,-1,84
 52 618 52 618 52 647 c 0,85,86
 52 652 52 652 57.5 652 c 128,-1,87
 63 652 63 652 63 647 c 0,88,89
 63 625 63 625 117 625 c 0,90,91
 202 622 202 622 318 622 c 0,92,93
 377 622 377 622 443 624 c 2,94,-1
 511 625 l 2,95,96
 547 625 547 625 564.5 630 c 128,-1,97
 582 635 582 635 587 650 c 0,98,0
 588 654 588 654 593 654 c 128,-1,1
EndSplineSet
Validated: 1
Substitution2: "'locl' Localized Forms in Latin lookup 14 subtable" uni021A
Substitution2: "'locl' Localized Forms in Latin lookup 13 subtable" uni021A
Substitution2: "'aalt' Access All Alternates lookup 0 subtable" uni021A
Position2: "'cpsp' Capital Spacing lookup 0 subtable" dx=5 dy=0 dh=10 dv=0
EndChar

StartChar: U
Encoding: 85 85 170
Width: 698
GlyphClass: 2
Flags: W
AnchorPoint: "Anchor-15" 675 625 basechar 0
AnchorPoint: "Anchor-14" 374 625 basechar 0
AnchorPoint: "Anchor-13" 492 12 basechar 0
AnchorPoint: "Anchor-12" 350 0 basechar 0
LayerCount: 2
Fore
SplineSet
485 613 m 0,1,2
 482 613 482 613 482 619 c 128,-1,3
 482 625 482 625 485 625 c 2,4,-1
 528 624 l 2,5,6
 564 622 564 622 585 622 c 0,7,8
 602 622 602 622 634 624 c 2,9,-1
 676 625 l 2,10,11
 678 625 678 625 678 619 c 128,-1,12
 678 613 678 613 676 613 c 0,13,14
 596 613 596 613 596 515 c 2,15,-1
 596 231 l 2,16,17
 596 116 596 116 532 51.5 c 128,-1,18
 468 -13 468 -13 360 -13 c 0,19,20
 286 -13 286 -13 230.5 16 c 128,-1,21
 175 45 175 45 144.5 98.5 c 128,-1,22
 114 152 114 152 114 224 c 2,23,-1
 114 544 l 2,24,25
 114 574 114 574 108 588 c 128,-1,26
 102 602 102 602 84.5 607.5 c 128,-1,27
 67 613 67 613 29 613 c 0,28,29
 27 613 27 613 27 619 c 128,-1,30
 27 625 27 625 29 625 c 2,31,-1
 78 624 l 2,32,33
 120 622 120 622 146 622 c 0,34,35
 174 622 174 622 216 624 c 2,36,-1
 264 625 l 2,37,38
 267 625 267 625 267 619 c 128,-1,39
 267 613 267 613 264 613 c 0,40,41
 227 613 227 613 209 607 c 128,-1,42
 191 601 191 601 185 586.5 c 128,-1,43
 179 572 179 572 179 542 c 2,44,-1
 179 259 l 2,45,46
 179 142 179 142 232.5 79.5 c 128,-1,47
 286 17 286 17 382 17 c 0,48,49
 472 17 472 17 522 73.5 c 128,-1,50
 572 130 572 130 572 230 c 2,51,-1
 572 515 l 2,52,0
 572 613 572 613 485 613 c 0,1,2
EndSplineSet
Validated: 1
Substitution2: "'ss01' Style Set 1 lookup 54 subtable" U.ss01
Substitution2: "'aalt' Access All Alternates lookup 0 subtable" U.ss01
Position2: "'cpsp' Capital Spacing lookup 0 subtable" dx=5 dy=0 dh=10 dv=0
EndChar

StartChar: Uhorn
Encoding: 431 431 183
Width: 698
GlyphClass: 2
Flags: W
AnchorPoint: "Anchor-15" 675 624 basechar 0
AnchorPoint: "Anchor-14" 373 625 basechar 0
AnchorPoint: "Anchor-13" 492 12 basechar 0
AnchorPoint: "Anchor-12" 370 0 basechar 0
LayerCount: 2
Fore
SplineSet
596 226 m 2,0,1
 596 113 596 113 530.5 50 c 128,-1,2
 465 -13 465 -13 355 -13 c 0,3,4
 244 -13 244 -13 179 49 c 128,-1,5
 114 111 114 111 114 219 c 2,6,-1
 114 544 l 2,7,8
 114 574 114 574 108 588 c 128,-1,9
 102 602 102 602 84.5 607.5 c 128,-1,10
 67 613 67 613 29 613 c 0,11,12
 27 613 27 613 27 619 c 128,-1,13
 27 625 27 625 29 625 c 2,14,-1
 78 624 l 2,15,16
 120 622 120 622 146 622 c 0,17,18
 174 622 174 622 216 624 c 2,19,-1
 264 625 l 2,20,21
 267 625 267 625 267 619 c 128,-1,22
 267 613 267 613 264 613 c 0,23,24
 227 613 227 613 209 607 c 128,-1,25
 191 601 191 601 185 586.5 c 128,-1,26
 179 572 179 572 179 542 c 2,27,-1
 179 254 l 2,28,29
 179 138 179 138 232 77.5 c 128,-1,30
 285 17 285 17 377 17 c 0,31,32
 468 17 468 17 520 72 c 128,-1,33
 572 127 572 127 572 225 c 2,34,-1
 572 515 l 2,35,36
 572 613 572 613 485 613 c 0,37,38
 482 613 482 613 482 619 c 128,-1,39
 482 625 482 625 485 625 c 2,40,-1
 528 624 l 2,41,42
 564 622 564 622 585 622 c 0,43,44
 632 622 632 622 653 632.5 c 128,-1,45
 674 643 674 643 674 667 c 0,46,47
 674 682 674 682 664 694 c 0,48,49
 656 706 656 706 656 717 c 0,50,51
 656 735 656 735 668.5 745.5 c 128,-1,52
 681 756 681 756 697 756 c 0,53,54
 716 756 716 756 726 742.5 c 128,-1,55
 736 729 736 729 736 709 c 0,56,57
 736 651 736 651 648 614 c 0,58,59
 625 605 625 605 610.5 585 c 128,-1,60
 596 565 596 565 596 515 c 2,61,-1
 596 226 l 2,0,1
EndSplineSet
Validated: 1
Substitution2: "'ss01' Style Set 1 lookup 54 subtable" Uhorn.ss01
Substitution2: "'aalt' Access All Alternates lookup 0 subtable" Uhorn.ss01
Position2: "'cpsp' Capital Spacing lookup 0 subtable" dx=5 dy=0 dh=10 dv=0
EndChar

StartChar: Uogonek
Encoding: 370 370 191
Width: 698
GlyphClass: 2
Flags: W
AnchorPoint: "Anchor-15" 675 625 basechar 0
AnchorPoint: "Anchor-14" 374 625 basechar 0
AnchorPoint: "Anchor-13" 492 12 basechar 0
AnchorPoint: "Anchor-12" 350 0 basechar 0
LayerCount: 2
Fore
SplineSet
678 619 m 128,-1,1
 678 613 678 613 676 613 c 0,2,3
 596 613 596 613 596 515 c 2,4,-1
 596 231 l 2,5,6
 596 136 596 136 551.5 75 c 128,-1,7
 507 14 507 14 429 -5 c 1,8,9
 392 -40 392 -40 375.5 -72.5 c 128,-1,10
 359 -105 359 -105 359 -143 c 0,11,12
 359 -191 359 -191 383 -218 c 128,-1,13
 407 -245 407 -245 452 -245 c 0,14,15
 486 -245 486 -245 517 -222 c 1,16,-1
 519 -222 l 2,17,18
 522 -222 522 -222 524.5 -225 c 128,-1,19
 527 -228 527 -228 524 -230 c 0,20,21
 472 -275 472 -275 416 -275 c 0,22,23
 362 -275 362 -275 332.5 -248 c 128,-1,24
 303 -221 303 -221 303 -176 c 0,25,26
 303 -94 303 -94 404 -10 c 1,27,28
 383 -13 383 -13 360 -13 c 0,29,30
 286 -13 286 -13 230.5 16 c 128,-1,31
 175 45 175 45 144.5 98.5 c 128,-1,32
 114 152 114 152 114 224 c 2,33,-1
 114 544 l 2,34,35
 114 574 114 574 108 588 c 128,-1,36
 102 602 102 602 84.5 607.5 c 128,-1,37
 67 613 67 613 29 613 c 0,38,39
 27 613 27 613 27 619 c 128,-1,40
 27 625 27 625 29 625 c 2,41,-1
 78 624 l 2,42,43
 120 622 120 622 146 622 c 0,44,45
 174 622 174 622 216 624 c 2,46,-1
 264 625 l 2,47,48
 267 625 267 625 267 619 c 128,-1,49
 267 613 267 613 264 613 c 0,50,51
 227 613 227 613 209 607 c 128,-1,52
 191 601 191 601 185 586.5 c 128,-1,53
 179 572 179 572 179 542 c 2,54,-1
 179 259 l 2,55,56
 179 142 179 142 232.5 79.5 c 128,-1,57
 286 17 286 17 382 17 c 0,58,59
 472 17 472 17 522 73.5 c 128,-1,60
 572 130 572 130 572 230 c 2,61,-1
 572 515 l 2,62,63
 572 613 572 613 485 613 c 0,64,65
 482 613 482 613 482 619 c 128,-1,66
 482 625 482 625 485 625 c 2,67,-1
 528 624 l 2,68,69
 564 622 564 622 585 622 c 0,70,71
 602 622 602 622 634 624 c 2,72,-1
 676 625 l 2,73,0
 678 625 678 625 678 619 c 128,-1,1
EndSplineSet
Validated: 1
Substitution2: "'ss01' Style Set 1 lookup 54 subtable" Uogonek.ss01
Substitution2: "'aalt' Access All Alternates lookup 0 subtable" Uogonek.ss01
Position2: "'cpsp' Capital Spacing lookup 0 subtable" dx=5 dy=0 dh=10 dv=0
EndChar

StartChar: V
Encoding: 86 86 194
Width: 666
GlyphClass: 2
Flags: W
AnchorPoint: "Anchor-15" 0 0 basechar 0
AnchorPoint: "Anchor-14" 332 625 basechar 0
AnchorPoint: "Anchor-13" 0 0 basechar 0
AnchorPoint: "Anchor-12" 332 0 basechar 0
LayerCount: 2
Fore
SplineSet
672 619 m 128,-1,1
 672 613 672 613 669 613 c 0,2,3
 635 613 635 613 610 595 c 128,-1,4
 585 577 585 577 568 534 c 2,5,-1
 355 1 l 2,6,7
 354 -3 354 -3 344 -3 c 0,8,9
 336 -3 336 -3 333 1 c 2,10,-1
 84 542 l 2,11,12
 67 581 67 581 48 597 c 128,-1,13
 29 613 29 613 -1 613 c 0,14,15
 -4 613 -4 613 -4 619 c 128,-1,16
 -4 625 -4 625 -1 625 c 2,17,-1
 37 624 l 2,18,19
 65 622 65 622 82 622 c 0,20,21
 122 622 122 622 168 624 c 2,22,-1
 209 625 l 2,23,24
 212 625 212 625 212 619 c 128,-1,25
 212 613 212 613 209 613 c 0,26,27
 178 613 178 613 162.5 605 c 128,-1,28
 147 597 147 597 147 578 c 0,29,30
 147 566 147 566 156 546 c 2,31,-1
 365 88 l 1,32,-1
 545 539 l 2,33,34
 553 560 553 560 553 572 c 0,35,36
 553 593 553 593 534 603 c 128,-1,37
 515 613 515 613 475 613 c 0,38,39
 472 613 472 613 472 619 c 128,-1,40
 472 625 472 625 475 625 c 2,41,-1
 518 624 l 2,42,43
 552 622 552 622 580 622 c 0,44,45
 601 622 601 622 627 624 c 2,46,-1
 669 625 l 2,47,0
 672 625 672 625 672 619 c 128,-1,1
EndSplineSet
Validated: 1
Position2: "'cpsp' Capital Spacing lookup 0 subtable" dx=5 dy=0 dh=10 dv=0
EndChar

StartChar: W
Encoding: 87 87 195
Width: 931
GlyphClass: 2
Flags: W
AnchorPoint: "Anchor-15" 0 0 basechar 0
AnchorPoint: "Anchor-14" 469 625 basechar 0
AnchorPoint: "Anchor-13" 0 0 basechar 0
AnchorPoint: "Anchor-12" 466 0 basechar 0
LayerCount: 2
Fore
SplineSet
937 619 m 128,-1,1
 937 613 937 613 935 613 c 0,2,3
 901 613 901 613 876 595 c 128,-1,4
 851 577 851 577 833 534 c 2,5,-1
 620 1 l 2,6,7
 619 -3 619 -3 609 -3 c 0,8,9
 601 -3 601 -3 598 1 c 2,10,-1
 468 285 l 1,11,-1
 355 1 l 2,12,13
 354 -3 354 -3 344 -3 c 0,14,15
 336 -3 336 -3 333 1 c 2,16,-1
 84 542 l 2,17,18
 66 582 66 582 48 597.5 c 128,-1,19
 30 613 30 613 -1 613 c 0,20,21
 -4 613 -4 613 -4 619 c 128,-1,22
 -4 625 -4 625 -1 625 c 2,23,-1
 37 624 l 2,24,25
 65 622 65 622 82 622 c 0,26,27
 118 622 118 622 160 624 c 2,28,-1
 201 625 l 2,29,30
 204 625 204 625 204 619 c 128,-1,31
 204 613 204 613 201 613 c 0,32,33
 171 613 171 613 156.5 606 c 128,-1,34
 142 599 142 599 142 582 c 0,35,36
 142 567 142 567 152 546 c 2,37,-1
 365 89 l 1,38,-1
 455 313 l 1,39,-1
 350 542 l 2,40,41
 332 581 332 581 314 597 c 128,-1,42
 296 613 296 613 267 613 c 0,43,44
 264 613 264 613 264 619 c 128,-1,45
 264 625 264 625 267 625 c 2,46,-1
 304 624 l 2,47,48
 332 622 332 622 348 622 c 0,49,50
 376 622 376 622 406 624 c 2,51,-1
 433 625 l 2,52,53
 436 625 436 625 436 619 c 128,-1,54
 436 613 436 613 433 613 c 0,55,56
 415 613 415 613 407.5 610 c 128,-1,57
 400 607 400 607 400 598 c 0,58,59
 400 585 400 585 418 546 c 2,60,-1
 491 390 l 1,61,-1
 550 539 l 2,62,63
 561 569 561 569 561 584 c 256,64,65
 561 599 561 599 551 606 c 128,-1,66
 541 613 541 613 519 613 c 0,67,68
 516 613 516 613 516 619 c 128,-1,69
 516 625 516 625 519 625 c 2,70,-1
 542 624 l 2,71,72
 562 622 562 622 584 622 c 0,73,74
 604 622 604 622 630 624 c 2,75,-1
 671 625 l 2,76,77
 673 625 673 625 673 619 c 128,-1,78
 673 613 673 613 671 613 c 0,79,80
 637 613 637 613 613.5 595.5 c 128,-1,81
 590 578 590 578 572 534 c 2,82,-1
 504 363 l 1,83,-1
 631 89 l 1,84,-1
 810 537 l 2,85,86
 818 558 818 558 818 572 c 0,87,88
 818 593 818 593 800 603 c 128,-1,89
 782 613 782 613 743 613 c 0,90,91
 740 613 740 613 740 619 c 128,-1,92
 740 625 740 625 743 625 c 2,93,-1
 784 624 l 2,94,95
 818 622 818 622 846 622 c 0,96,97
 866 622 866 622 892 624 c 2,98,-1
 935 625 l 2,99,0
 937 625 937 625 937 619 c 128,-1,1
EndSplineSet
Validated: 1
Position2: "'cpsp' Capital Spacing lookup 0 subtable" dx=5 dy=0 dh=10 dv=0
EndChar

StartChar: X
Encoding: 88 88 200
Width: 652
GlyphClass: 2
Flags: W
AnchorPoint: "Anchor-15" 0 0 basechar 0
AnchorPoint: "Anchor-14" 326 625 basechar 0
AnchorPoint: "Anchor-13" 0 0 basechar 0
AnchorPoint: "Anchor-12" 326 0 basechar 0
LayerCount: 2
Fore
SplineSet
637 6 m 128,-1,1
 637 0 637 0 635 0 c 0,2,3
 609 0 609 0 594 1 c 2,4,-1
 539 2 l 1,5,-1
 462 1 l 2,6,7
 444 0 444 0 413 0 c 0,8,9
 411 0 411 0 411 6 c 128,-1,10
 411 12 411 12 413 12 c 0,11,12
 440 12 440 12 452 16 c 128,-1,13
 464 20 464 20 464 29 c 256,14,15
 464 38 464 38 455 51 c 2,16,-1
 303 281 l 1,17,-1
 176 102 l 2,18,19
 152 68 152 68 152 47 c 0,20,21
 152 12 152 12 211 12 c 0,22,23
 214 12 214 12 214 6 c 128,-1,24
 214 0 214 0 211 0 c 0,25,26
 181 0 181 0 165 1 c 2,27,-1
 96 2 l 1,28,-1
 54 1 l 2,29,30
 43 0 43 0 17 0 c 0,31,32
 14 0 14 0 14 6 c 128,-1,33
 14 12 14 12 17 12 c 0,34,35
 86 12 86 12 153 103 c 2,36,-1
 294 296 l 1,37,-1
 133 540 l 2,38,39
 107 580 107 580 81.5 596.5 c 128,-1,40
 56 613 56 613 21 613 c 0,41,42
 19 613 19 613 19 619 c 128,-1,43
 19 625 19 625 21 625 c 2,44,-1
 59 624 l 2,45,46
 85 622 85 622 97 622 c 0,47,48
 131 622 131 622 179 624 c 2,49,-1
 231 625 l 2,50,51
 234 625 234 625 234 619 c 128,-1,52
 234 613 234 613 231 613 c 0,53,54
 205 613 205 613 192.5 609 c 128,-1,55
 180 605 180 605 180 595 c 0,56,57
 180 587 180 587 189 573 c 2,58,-1
 337 350 l 1,59,-1
 454 516 l 2,60,61
 481 554 481 554 481 578 c 0,62,63
 481 613 481 613 425 613 c 0,64,65
 422 613 422 613 422 619 c 128,-1,66
 422 625 422 625 425 625 c 2,67,-1
 470 624 l 2,68,69
 508 622 508 622 539 622 c 0,70,71
 557 622 557 622 581 624 c 2,72,-1
 618 625 l 2,73,74
 621 625 621 625 621 619 c 128,-1,75
 621 613 621 613 618 613 c 0,76,77
 585 613 585 613 549 588 c 128,-1,78
 513 563 513 563 477 514 c 2,79,-1
 346 335 l 1,80,-1
 513 83 l 2,81,82
 539 44 539 44 566.5 28 c 128,-1,83
 594 12 594 12 635 12 c 0,84,0
 637 12 637 12 637 6 c 128,-1,1
EndSplineSet
Validated: 1
Position2: "'cpsp' Capital Spacing lookup 0 subtable" dx=5 dy=0 dh=10 dv=0
EndChar

StartChar: Y
Encoding: 89 89 201
Width: 609
GlyphClass: 2
Flags: W
AnchorPoint: "Anchor-15" 0 0 basechar 0
AnchorPoint: "Anchor-14" 318 625 basechar 0
AnchorPoint: "Anchor-13" 0 0 basechar 0
AnchorPoint: "Anchor-12" 305 0 basechar 0
LayerCount: 2
Fore
SplineSet
616 619 m 128,-1,1
 616 613 616 613 614 613 c 0,2,3
 578 613 578 613 541 586.5 c 128,-1,4
 504 560 504 560 475 514 c 2,5,-1
 341 308 l 1,6,-1
 341 81 l 2,7,8
 341 50 341 50 347 36 c 128,-1,9
 353 22 353 22 370.5 17 c 128,-1,10
 388 12 388 12 426 12 c 0,11,12
 429 12 429 12 429 6 c 128,-1,13
 429 0 429 0 426 0 c 0,14,15
 395 0 395 0 378 1 c 2,16,-1
 308 2 l 1,17,-1
 239 1 l 2,18,19
 221 0 221 0 190 0 c 0,20,21
 187 0 187 0 187 6 c 128,-1,22
 187 12 187 12 190 12 c 0,23,24
 228 12 228 12 245.5 17 c 128,-1,25
 263 22 263 22 269.5 36.5 c 128,-1,26
 276 51 276 51 276 81 c 2,27,-1
 276 292 l 1,28,-1
 110 535 l 2,29,30
 82 579 82 579 57 596 c 128,-1,31
 32 613 32 613 -1 613 c 0,32,33
 -4 613 -4 613 -4 619 c 128,-1,34
 -4 625 -4 625 -1 625 c 0,35,36
 11 625 11 625 35 623 c 2,37,-1
 70 622 l 2,38,39
 104 622 104 622 156 624 c 2,40,-1
 210 625 l 2,41,42
 212 625 212 625 212 619 c 128,-1,43
 212 613 212 613 210 613 c 0,44,45
 158 613 158 613 158 592 c 0,46,47
 158 581 158 581 168 567 c 2,48,-1
 329 331 l 1,49,-1
 451 518 l 2,50,51
 473 553 473 553 473 577 c 0,52,53
 473 613 473 613 419 613 c 0,54,55
 417 613 417 613 417 619 c 128,-1,56
 417 625 417 625 419 625 c 2,57,-1
 466 624 l 2,58,59
 504 622 504 622 536 622 c 0,60,61
 553 622 553 622 577 624 c 2,62,-1
 614 625 l 2,63,0
 616 625 616 625 616 619 c 128,-1,1
EndSplineSet
Validated: 1
Position2: "'cpsp' Capital Spacing lookup 0 subtable" dx=5 dy=0 dh=10 dv=0
EndChar

StartChar: Z
Encoding: 90 90 211
Width: 595
GlyphClass: 2
Flags: W
AnchorPoint: "Anchor-15" 0 0 basechar 0
AnchorPoint: "Anchor-14" 313 625 basechar 0
AnchorPoint: "Anchor-13" 0 0 basechar 0
AnchorPoint: "Anchor-12" 298 0 basechar 0
LayerCount: 2
Fore
SplineSet
450 600 m 2,0,1
 453 605 453 605 452.5 606.5 c 128,-1,2
 452 608 452 608 445 608 c 0,3,4
 267 608 267 608 202 602.5 c 128,-1,5
 137 597 137 597 111 576 c 128,-1,6
 85 555 85 555 64 497 c 0,7,8
 64 495 64 495 60 495 c 0,9,10
 57 495 57 495 54 496.5 c 128,-1,11
 51 498 51 498 52 499 c 2,12,-1
 92 655 l 2,13,14
 92 656 92 656 96 656 c 0,15,16
 106 656 106 656 104 653 c 0,17,18
 103 650 103 650 103 645 c 0,19,20
 103 633 103 633 114.5 629 c 128,-1,21
 126 625 126 625 161 625 c 2,22,-1
 526 625 l 2,23,24
 531 625 531 625 533.5 620 c 128,-1,25
 536 615 536 615 533 612 c 2,26,-1
 143 27 l 1,27,-1
 140 21 l 2,28,29
 140 19 140 19 148 19 c 2,30,-1
 403 19 l 2,31,32
 470 19 470 19 505 47 c 128,-1,33
 540 75 540 75 551 135 c 0,34,35
 552 137 552 137 557 137 c 128,-1,36
 562 137 562 137 562 135 c 2,37,-1
 548 8 l 2,38,39
 548 5 548 5 545.5 1.5 c 128,-1,40
 543 -2 543 -2 539 -2 c 0,41,42
 390 0 390 0 61 0 c 0,43,44
 56 0 56 0 54 4.5 c 128,-1,45
 52 9 52 9 55 13 c 2,46,-1
 450 600 l 2,0,1
EndSplineSet
Validated: 1
Position2: "'cpsp' Capital Spacing lookup 0 subtable" dx=5 dy=0 dh=10 dv=0
EndChar

StartChar: I.loclNLD.c2sc
Encoding: 65542 -1 220
Width: 293
GlyphClass: 2
Flags: W
AnchorPoint: "Anchor-15" 0 0 basechar 0
AnchorPoint: "Anchor-14" 150 468 basechar 0
AnchorPoint: "Anchor-13" 249 12 basechar 0
AnchorPoint: "Anchor-12" 147 0 basechar 0
LayerCount: 2
Fore
SplineSet
183.5 36 m 128,-1,1
 189 22 189 22 204 17 c 128,-1,2
 219 12 219 12 253 12 c 0,3,4
 255 12 255 12 255 6 c 128,-1,5
 255 0 255 0 253 0 c 0,6,7
 225 0 225 0 209 1 c 2,8,-1
 146 2 l 1,9,-1
 87 1 l 2,10,11
 70 0 70 0 41 0 c 0,12,13
 39 0 39 0 39 6 c 128,-1,14
 39 12 39 12 41 12 c 0,15,16
 75 12 75 12 90 17 c 128,-1,17
 105 22 105 22 110.5 36 c 128,-1,18
 116 50 116 50 116 81 c 2,19,-1
 116 387 l 2,20,21
 116 417 116 417 110.5 431 c 128,-1,22
 105 445 105 445 89.5 450.5 c 128,-1,23
 74 456 74 456 41 456 c 0,24,25
 39 456 39 456 39 462 c 128,-1,26
 39 468 39 468 41 468 c 2,27,-1
 87 467 l 2,28,29
 123 465 123 465 146 465 c 0,30,31
 172 465 172 465 210 467 c 2,32,-1
 253 468 l 2,33,34
 255 468 255 468 255 462 c 128,-1,35
 255 456 255 456 253 456 c 0,36,37
 221 456 221 456 205 450 c 128,-1,38
 189 444 189 444 183.5 429.5 c 128,-1,39
 178 415 178 415 178 385 c 2,40,-1
 178 81 l 2,41,0
 178 50 178 50 183.5 36 c 128,-1,1
EndSplineSet
Validated: 1
Position2: "'cpsp' Capital Spacing lookup 0 subtable" dx=5 dy=0 dh=10 dv=0
EndChar

StartChar: J.loclNLD.c2sc
Encoding: 65543 -1 221
Width: 268
GlyphClass: 2
Flags: W
AnchorPoint: "Anchor-15" 0 0 basechar 0
AnchorPoint: "Anchor-14" 143 468 basechar 0
AnchorPoint: "Anchor-13" 0 0 basechar 0
AnchorPoint: "Anchor-12" 134 0 basechar 0
LayerCount: 2
Fore
SplineSet
111 387 m 2,0,1
 111 417 111 417 105.5 431 c 128,-1,2
 100 445 100 445 84.5 450.5 c 128,-1,3
 69 456 69 456 37 456 c 0,4,5
 35 456 35 456 35 462 c 128,-1,6
 35 468 35 468 37 468 c 2,7,-1
 81 467 l 2,8,9
 119 465 119 465 140 465 c 0,10,11
 164 465 164 465 202 467 c 2,12,-1
 243 468 l 2,13,14
 246 468 246 468 246 462 c 128,-1,15
 246 456 246 456 243 456 c 0,16,17
 212 456 212 456 197.5 450 c 128,-1,18
 183 444 183 444 177.5 429.5 c 128,-1,19
 172 415 172 415 172 385 c 2,20,-1
 172 69 l 2,21,22
 172 -6 172 -6 159.5 -52 c 128,-1,23
 147 -98 147 -98 117.5 -127.5 c 128,-1,24
 88 -157 88 -157 34 -181 c 0,25,26
 32 -182 32 -182 29.5 -177 c 128,-1,27
 27 -172 27 -172 29 -171 c 0,28,29
 68 -150 68 -150 89.5 -100 c 128,-1,30
 111 -50 111 -50 111 22 c 2,31,-1
 111 387 l 2,0,1
EndSplineSet
Validated: 1
Position2: "'cpsp' Capital Spacing lookup 0 subtable" dx=5 dy=0 dh=10 dv=0
EndChar

StartChar: Q.long.c2sc
Encoding: 65544 -1 222
Width: 577
GlyphClass: 2
Flags: W
AnchorPoint: "Anchor-15" 464 396 basechar 0
AnchorPoint: "Anchor-14" 289 625 basechar 0
AnchorPoint: "Anchor-13" 402 12 basechar 0
AnchorPoint: "Anchor-12" 289 0 basechar 0
LayerCount: 2
Fore
SplineSet
1127 -210 m 128,-1,1
 1129 -215 1129 -215 1126 -216 c 0,2,3
 1066 -230 1066 -230 1001 -230 c 0,4,5
 842 -230 842 -230 675.5 -166.5 c 128,-1,6
 509 -103 509 -103 362 2 c 1,7,8
 320 -12 320 -12 275 -12 c 0,9,10
 205 -12 205 -12 150.5 21 c 128,-1,11
 96 54 96 54 66 110 c 128,-1,12
 36 166 36 166 36 231 c 0,13,14
 36 309 36 309 76.5 365.5 c 128,-1,15
 117 422 117 422 179.5 451 c 128,-1,16
 242 480 242 480 307 480 c 0,17,18
 377 480 377 480 430.5 445.5 c 128,-1,19
 484 411 484 411 512.5 356 c 128,-1,20
 541 301 541 301 541 241 c 0,21,22
 541 178 541 178 510 123.5 c 128,-1,23
 479 69 479 69 426 34 c 1,24,25
 562 -65 562 -65 720.5 -138 c 128,-1,26
 879 -211 879 -211 1064 -211 c 0,27,28
 1098 -211 1098 -211 1123 -206 c 0,29,0
 1125 -205 1125 -205 1127 -210 c 128,-1,1
128.5 131 m 128,-1,31
 152 75 152 75 196.5 42 c 128,-1,32
 241 9 241 9 301 9 c 0,33,34
 379 9 379 9 425.5 64 c 128,-1,35
 472 119 472 119 472 216 c 0,36,37
 472 283 472 283 448.5 338 c 128,-1,38
 425 393 425 393 380 426 c 128,-1,39
 335 459 335 459 273 459 c 0,40,41
 193 459 193 459 149 405.5 c 128,-1,42
 105 352 105 352 105 256 c 0,43,30
 105 187 105 187 128.5 131 c 128,-1,31
EndSplineSet
Validated: 1
Substitution2: "'ss02' Style Set 2 lookup 55 subtable" Q.long.c2sc.ss02
Substitution2: "'ss01' Style Set 1 lookup 54 subtable" Q.long.c2sc.ss01
AlternateSubs2: "'aalt' Access All Alternates lookup 1 subtable" Q.long.c2sc.ss01 Q.long.c2sc.ss02
Position2: "'cpsp' Capital Spacing lookup 0 subtable" dx=5 dy=0 dh=10 dv=0
EndChar

StartChar: R.short.c2sc
Encoding: 65545 -1 223
Width: 533
GlyphClass: 2
Flags: W
AnchorPoint: "Anchor-15" 0 0 basechar 0
AnchorPoint: "Anchor-14" 229 468 basechar 0
AnchorPoint: "Anchor-13" 0 0 basechar 0
AnchorPoint: "Anchor-12" 284 0 basechar 0
LayerCount: 2
Fore
SplineSet
545 6 m 128,-1,1
 545 0 545 0 543 0 c 2,2,-1
 426 0 l 2,3,4
 408 0 408 0 362.5 60 c 128,-1,5
 317 120 317 120 253 226 c 1,6,7
 234 222 234 222 210 222 c 0,8,9
 185 222 185 222 172 224 c 1,10,-1
 172 81 l 2,11,12
 172 50 172 50 177 36 c 128,-1,13
 182 22 182 22 197 17 c 128,-1,14
 212 12 212 12 246 12 c 0,15,16
 248 12 248 12 248 6 c 128,-1,17
 248 0 248 0 246 0 c 0,18,19
 218 0 218 0 203 1 c 2,20,-1
 140 2 l 1,21,-1
 81 1 l 2,22,23
 64 0 64 0 35 0 c 0,24,25
 33 0 33 0 33 6 c 128,-1,26
 33 12 33 12 35 12 c 0,27,28
 68 12 68 12 83.5 17 c 128,-1,29
 99 22 99 22 105 36.5 c 128,-1,30
 111 51 111 51 111 81 c 2,31,-1
 111 387 l 2,32,33
 111 417 111 417 105.5 431 c 128,-1,34
 100 445 100 445 84.5 450.5 c 128,-1,35
 69 456 69 456 36 456 c 0,36,37
 34 456 34 456 34 462 c 128,-1,38
 34 468 34 468 36 468 c 2,39,-1
 82 467 l 2,40,41
 118 465 118 465 140 465 c 0,42,43
 158 465 158 465 173.5 466 c 128,-1,44
 189 467 189 467 200 468 c 0,45,46
 231 471 231 471 259 471 c 0,47,48
 324 471 324 471 358 446 c 128,-1,49
 392 421 392 421 392 374 c 0,50,51
 392 334 392 334 369 300 c 128,-1,52
 346 266 346 266 307 245 c 1,53,54
 363 153 363 153 401.5 103.5 c 128,-1,55
 440 54 440 54 472.5 33 c 128,-1,56
 505 12 505 12 543 12 c 0,57,0
 545 12 545 12 545 6 c 128,-1,1
217 239 m 0,59,60
 279 239 279 239 303.5 266.5 c 128,-1,61
 328 294 328 294 328 347 c 0,62,63
 328 457 328 457 233 457 c 0,64,65
 195 457 195 457 183.5 441 c 128,-1,66
 172 425 172 425 172 385 c 2,67,-1
 172 242 l 1,68,58
 190 239 190 239 217 239 c 0,59,60
EndSplineSet
Validated: 1
Substitution2: "'ss01' Style Set 1 lookup 54 subtable" R.short.c2sc.ss01
Substitution2: "'aalt' Access All Alternates lookup 0 subtable" R.short.c2sc.ss01
Position2: "'cpsp' Capital Spacing lookup 0 subtable" dx=5 dy=0 dh=10 dv=0
EndChar

StartChar: J.case
Encoding: 65552 -1 230
Width: 320
GlyphClass: 2
Flags: W
AnchorPoint: "Anchor-15" 0 0 basechar 0
AnchorPoint: "Anchor-14" 163 625 basechar 0
AnchorPoint: "Anchor-13" 0 0 basechar 0
AnchorPoint: "Anchor-12" 160 0 basechar 0
LayerCount: 2
Fore
SplineSet
189.5 -63.5 m 128,-1,1
 176 -113 176 -113 145 -144.5 c 128,-1,2
 114 -176 114 -176 56 -200 c 1,3,-1
 55 -201 l 2,4,5
 52 -201 52 -201 50 -196.5 c 128,-1,6
 48 -192 48 -192 50 -190 c 0,7,8
 99 -163 99 -163 118.5 -107 c 128,-1,9
 138 -51 138 -51 138 40 c 2,10,-1
 138 544 l 2,11,12
 138 574 138 574 131.5 588 c 128,-1,13
 125 602 125 602 107 607.5 c 128,-1,14
 89 613 89 613 51 613 c 0,15,16
 49 613 49 613 49 619 c 128,-1,17
 49 625 49 625 51 625 c 2,18,-1
 103 624 l 2,19,20
 145 622 145 622 169 622 c 0,21,22
 195 622 195 622 233 624 c 2,23,-1
 277 625 l 2,24,25
 279 625 279 625 279 619 c 128,-1,26
 279 613 279 613 277 613 c 0,27,28
 244 613 244 613 229 607 c 128,-1,29
 214 601 214 601 208.5 586.5 c 128,-1,30
 203 572 203 572 203 542 c 2,31,-1
 203 67 l 2,32,0
 203 -14 203 -14 189.5 -63.5 c 128,-1,1
EndSplineSet
Validated: 1
Position2: "'cpsp' Capital Spacing lookup 0 subtable" dx=5 dy=0 dh=10 dv=0
EndChar

StartChar: Q.cv01
Encoding: 65554 -1 232
Width: 766
GlyphClass: 2
Flags: W
AnchorPoint: "Anchor-15" 607 579 basechar 0
AnchorPoint: "Anchor-14" 384 625 basechar 0
AnchorPoint: "Anchor-13" 501 12 basechar 0
AnchorPoint: "Anchor-12" 384 0 basechar 0
LayerCount: 2
Fore
SplineSet
1232.5 -210 m 128,-1,1
 1234 -215 1234 -215 1232 -216 c 0,2,3
 1174 -229 1174 -229 1110 -229 c 0,4,5
 945 -229 945 -229 771.5 -167.5 c 128,-1,6
 598 -106 598 -106 444 -4 c 1,7,8
 404 -12 404 -12 366 -12 c 0,9,10
 273 -12 273 -12 200.5 31.5 c 128,-1,11
 128 75 128 75 88.5 149.5 c 128,-1,12
 49 224 49 224 49 312 c 0,13,14
 49 415 49 415 101 488.5 c 128,-1,15
 153 562 153 562 234.5 599 c 128,-1,16
 316 636 316 636 401 636 c 0,17,18
 496 636 496 636 568 591.5 c 128,-1,19
 640 547 640 547 678.5 474 c 128,-1,20
 717 401 717 401 717 319 c 0,21,22
 717 223 717 223 664.5 144 c 128,-1,23
 612 65 612 65 525 24 c 1,24,25
 643 -57 643 -57 813.5 -134 c 128,-1,26
 984 -211 984 -211 1170 -211 c 0,27,28
 1203 -211 1203 -211 1228 -206 c 0,29,0
 1231 -205 1231 -205 1232.5 -210 c 128,-1,1
160 175.5 m 128,-1,31
 195 98 195 98 258 53.5 c 128,-1,32
 321 9 321 9 401 9 c 0,33,34
 469 9 469 9 523.5 42 c 128,-1,35
 578 75 578 75 609.5 139 c 128,-1,36
 641 203 641 203 641 291 c 0,37,38
 641 385 641 385 606 458 c 128,-1,39
 571 531 571 531 507.5 572 c 128,-1,40
 444 613 444 613 359 613 c 0,41,42
 249 613 249 613 187 542 c 128,-1,43
 125 471 125 471 125 347 c 0,44,30
 125 253 125 253 160 175.5 c 128,-1,31
EndSplineSet
Validated: 1
Position2: "'cpsp' Capital Spacing lookup 0 subtable" dx=5 dy=0 dh=10 dv=0
EndChar

StartChar: Q.cv02
Encoding: 65555 -1 233
Width: 766
GlyphClass: 2
Flags: W
AnchorPoint: "Anchor-15" 607 579 basechar 0
AnchorPoint: "Anchor-14" 384 625 basechar 0
AnchorPoint: "Anchor-13" 501 12 basechar 0
AnchorPoint: "Anchor-12" 384 0 basechar 0
LayerCount: 2
Fore
SplineSet
1451 -198.5 m 128,-1,1
 1453 -204 1453 -204 1450 -205 c 0,2,3
 1401 -221 1401 -221 1339 -233 c 128,-1,4
 1277 -245 1277 -245 1176 -245 c 0,5,6
 785 -245 785 -245 335 -11 c 1,7,8
 250 -3 250 -3 185 42 c 128,-1,9
 120 87 120 87 84.5 158 c 128,-1,10
 49 229 49 229 49 312 c 0,11,12
 49 415 49 415 101 488.5 c 128,-1,13
 153 562 153 562 234.5 599 c 128,-1,14
 316 636 316 636 401 636 c 0,15,16
 496 636 496 636 568 591.5 c 128,-1,17
 640 547 640 547 678.5 474 c 128,-1,18
 717 401 717 401 717 319 c 0,19,20
 717 243 717 243 683 177 c 128,-1,21
 649 111 649 111 590 64.5 c 128,-1,22
 531 18 531 18 458 0 c 1,23,24
 549 -59 549 -59 682.5 -109 c 128,-1,25
 816 -159 816 -159 961 -189 c 128,-1,26
 1106 -219 1106 -219 1228 -219 c 0,27,28
 1366 -219 1366 -219 1447 -194 c 0,29,0
 1449 -193 1449 -193 1451 -198.5 c 128,-1,1
160 175.5 m 128,-1,31
 195 98 195 98 258 53.5 c 128,-1,32
 321 9 321 9 401 9 c 0,33,34
 469 9 469 9 523.5 42 c 128,-1,35
 578 75 578 75 609.5 139 c 128,-1,36
 641 203 641 203 641 291 c 0,37,38
 641 385 641 385 606 458 c 128,-1,39
 571 531 571 531 507.5 572 c 128,-1,40
 444 613 444 613 359 613 c 0,41,42
 249 613 249 613 187 542 c 128,-1,43
 125 471 125 471 125 347 c 0,44,30
 125 253 125 253 160 175.5 c 128,-1,31
EndSplineSet
Validated: 1
Position2: "'cpsp' Capital Spacing lookup 0 subtable" dx=5 dy=0 dh=10 dv=0
EndChar

StartChar: Q.long
Encoding: 65574 -1 252
Width: 766
GlyphClass: 2
Flags: W
AnchorPoint: "Anchor-15" 607 579 basechar 0
AnchorPoint: "Anchor-14" 384 625 basechar 0
AnchorPoint: "Anchor-13" 501 12 basechar 0
AnchorPoint: "Anchor-12" 384 0 basechar 0
LayerCount: 2
Fore
SplineSet
1232.5 -210 m 128,-1,1
 1234 -215 1234 -215 1232 -216 c 0,2,3
 1174 -229 1174 -229 1110 -229 c 0,4,5
 945 -229 945 -229 771.5 -167.5 c 128,-1,6
 598 -106 598 -106 444 -4 c 1,7,8
 404 -12 404 -12 366 -12 c 0,9,10
 273 -12 273 -12 200.5 31.5 c 128,-1,11
 128 75 128 75 88.5 149.5 c 128,-1,12
 49 224 49 224 49 312 c 0,13,14
 49 415 49 415 101 488.5 c 128,-1,15
 153 562 153 562 234.5 599 c 128,-1,16
 316 636 316 636 401 636 c 0,17,18
 496 636 496 636 568 591.5 c 128,-1,19
 640 547 640 547 678.5 474 c 128,-1,20
 717 401 717 401 717 319 c 0,21,22
 717 223 717 223 664.5 144 c 128,-1,23
 612 65 612 65 525 24 c 1,24,25
 643 -57 643 -57 813.5 -134 c 128,-1,26
 984 -211 984 -211 1170 -211 c 0,27,28
 1203 -211 1203 -211 1228 -206 c 0,29,0
 1231 -205 1231 -205 1232.5 -210 c 128,-1,1
160 175.5 m 128,-1,31
 195 98 195 98 258 53.5 c 128,-1,32
 321 9 321 9 401 9 c 0,33,34
 469 9 469 9 523.5 42 c 128,-1,35
 578 75 578 75 609.5 139 c 128,-1,36
 641 203 641 203 641 291 c 0,37,38
 641 385 641 385 606 458 c 128,-1,39
 571 531 571 531 507.5 572 c 128,-1,40
 444 613 444 613 359 613 c 0,41,42
 249 613 249 613 187 542 c 128,-1,43
 125 471 125 471 125 347 c 0,44,30
 125 253 125 253 160 175.5 c 128,-1,31
EndSplineSet
Validated: 1
Substitution2: "'ss02' Style Set 2 lookup 55 subtable" Q.long.ss02
Substitution2: "'ss01' Style Set 1 lookup 54 subtable" Q.long.ss01
AlternateSubs2: "'aalt' Access All Alternates lookup 1 subtable" Q.long.ss01 Q.long.ss02
Position2: "'cpsp' Capital Spacing lookup 0 subtable" dx=5 dy=0 dh=10 dv=0
EndChar

StartChar: R.short
Encoding: 65576 -1 254
Width: 607
GlyphClass: 2
Flags: W
AnchorPoint: "Anchor-15" 0 0 basechar 0
AnchorPoint: "Anchor-14" 267 625 basechar 0
AnchorPoint: "Anchor-13" 0 0 basechar 0
AnchorPoint: "Anchor-12" 326 0 basechar 0
LayerCount: 2
Fore
SplineSet
601 6 m 128,-1,1
 601 0 601 0 598 0 c 2,2,-1
 475 0 l 2,3,4
 457 0 457 0 408 89 c 128,-1,5
 359 178 359 178 297 324 c 1,6,7
 266 317 266 317 240 317 c 0,8,9
 221 317 221 317 193 319 c 1,10,-1
 193 81 l 2,11,12
 193 51 193 51 199.5 36.5 c 128,-1,13
 206 22 206 22 223.5 17 c 128,-1,14
 241 12 241 12 280 12 c 0,15,16
 283 12 283 12 283 6 c 128,-1,17
 283 0 283 0 280 0 c 0,18,19
 249 0 249 0 231 1 c 2,20,-1
 162 2 l 1,21,-1
 94 1 l 2,22,23
 76 0 76 0 43 0 c 0,24,25
 41 0 41 0 41 6 c 128,-1,26
 41 12 41 12 43 12 c 0,27,28
 81 12 81 12 99 17.5 c 128,-1,29
 117 23 117 23 124 37 c 128,-1,30
 131 51 131 51 131 81 c 2,31,-1
 131 544 l 2,32,33
 131 574 131 574 124.5 588 c 128,-1,34
 118 602 118 602 100.5 607.5 c 128,-1,35
 83 613 83 613 45 613 c 0,36,37
 42 613 42 613 42 619 c 128,-1,38
 42 625 42 625 45 625 c 2,39,-1
 94 624 l 2,40,41
 136 622 136 622 162 622 c 0,42,43
 180 622 180 622 196 623 c 128,-1,44
 212 624 212 624 224 625 c 0,45,46
 256 628 256 628 282 628 c 0,47,48
 363 628 363 628 407 595 c 128,-1,49
 451 562 451 562 451 503 c 0,50,51
 451 455 451 455 423.5 413 c 128,-1,52
 396 371 396 371 351 346 c 1,53,54
 410 217 410 217 450 146.5 c 128,-1,55
 490 76 490 76 525 44 c 128,-1,56
 560 12 560 12 598 12 c 0,57,0
 601 12 601 12 601 6 c 128,-1,1
254 340 m 0,59,60
 323 340 323 340 353 369.5 c 128,-1,61
 383 399 383 399 383 468 c 0,62,63
 383 613 383 613 261 613 c 0,64,65
 233 613 233 613 219.5 608.5 c 128,-1,66
 206 604 206 604 199.5 589.5 c 128,-1,67
 193 575 193 575 193 542 c 2,68,-1
 193 344 l 1,69,58
 218 340 218 340 254 340 c 0,59,60
EndSplineSet
Validated: 1
Substitution2: "'ss02' Style Set 2 lookup 55 subtable" R.short.ss02
Substitution2: "'ss01' Style Set 1 lookup 54 subtable" R.short.ss01
AlternateSubs2: "'aalt' Access All Alternates lookup 1 subtable" R.short.ss01 R.short.ss02
Position2: "'cpsp' Capital Spacing lookup 0 subtable" dx=5 dy=0 dh=10 dv=0
EndChar

StartChar: A.ss01
Encoding: 65583 -1 261
Width: 667
GlyphClass: 2
Flags: W
AnchorPoint: "Anchor-15" 0 0 basechar 0
AnchorPoint: "Anchor-14" 321 625 basechar 0
AnchorPoint: "Anchor-13" 611 12 basechar 0
AnchorPoint: "Anchor-12" 334 0 basechar 0
LayerCount: 2
Fore
SplineSet
668 4 m 128,-1,1
 668 -2 668 -2 663 -2 c 0,2,3
 645 -2 645 -2 605 0 c 256,4,5
 565 2 565 2 547 2 c 0,6,7
 526 2 526 2 492 0 c 0,8,9
 460 -2 460 -2 442 -2 c 0,10,11
 438 -2 438 -2 438 4 c 128,-1,12
 438 10 438 10 442 10 c 0,13,14
 480 10 480 10 496.5 17 c 128,-1,15
 513 24 513 24 513 42 c 0,16,17
 513 59 513 59 501 84 c 2,18,-1
 391 324 l 1,19,-1
 231 324 l 1,20,-1
 144 124 l 2,21,22
 128 89 128 89 128 65 c 0,23,24
 128 36 128 36 152.5 23 c 128,-1,25
 177 10 177 10 229 10 c 0,26,27
 234 10 234 10 234 4 c 128,-1,28
 234 -2 234 -2 229 -2 c 0,29,30
 211 -2 211 -2 177 0 c 0,31,32
 139 2 139 2 111 2 c 0,33,34
 85 2 85 2 51 0 c 0,35,36
 21 -2 21 -2 1 -2 c 0,37,38
 -4 -2 -4 -2 -4 4 c 128,-1,39
 -4 10 -4 10 1 10 c 0,40,41
 36 10 36 10 64.5 39 c 128,-1,42
 93 68 93 68 123 134 c 2,43,-1
 298 527 l 1,44,45
 289 544 289 544 273 567 c 0,46,47
 271 569 271 569 273 574.5 c 128,-1,48
 275 580 275 580 279 587 c 0,49,50
 305 634 305 634 305 682 c 0,51,52
 305 685 305 685 310 686 c 128,-1,53
 315 687 315 687 316 684 c 0,54,55
 337 603 337 603 389 491 c 2,56,-1
 549 135 l 2,57,58
 581 61 581 61 606 35.5 c 128,-1,59
 631 10 631 10 663 10 c 0,60,0
 668 10 668 10 668 4 c 128,-1,1
382 345 m 1,61,-1
 322 476 l 1,62,-1
 310 503 l 1,63,-1
 241 345 l 1,64,-1
 382 345 l 1,61,-1
EndSplineSet
Validated: 1
Position2: "'cpsp' Capital Spacing lookup 0 subtable" dx=5 dy=0 dh=10 dv=0
EndChar

StartChar: Aogonek.ss01
Encoding: 65586 -1 264
Width: 668
GlyphClass: 2
Flags: W
AnchorPoint: "Anchor-15" 0 0 basechar 0
AnchorPoint: "Anchor-14" 340 625 basechar 0
AnchorPoint: "Anchor-13" 665 12 basechar 0
AnchorPoint: "Anchor-12" 0 0 basechar 0
LayerCount: 2
Fore
SplineSet
670 4 m 128,-1,1
 670 -2 670 -2 665 -2 c 0,2,3
 646 -2 646 -2 612 0 c 2,4,-1
 570 1 l 2,5,6
 516 1 516 1 478.5 -36 c 128,-1,7
 441 -73 441 -73 441 -132 c 0,8,9
 441 -180 441 -180 467 -213 c 128,-1,10
 493 -246 493 -246 548 -246 c 0,11,12
 580 -246 580 -246 606 -232 c 1,13,-1
 608 -232 l 2,14,15
 611 -232 611 -232 613.5 -235 c 128,-1,16
 616 -238 616 -238 613 -240 c 0,17,18
 566 -275 566 -275 507 -275 c 0,19,20
 449 -275 449 -275 416.5 -247 c 128,-1,21
 384 -219 384 -219 384 -168 c 0,22,23
 384 -126 384 -126 403 -97 c 128,-1,24
 422 -68 422 -68 457 -34 c 0,25,26
 485 -6 485 -6 497.5 11.5 c 128,-1,27
 510 29 510 29 510 51 c 0,28,29
 510 65 510 65 502 84 c 2,30,-1
 393 331 l 1,31,-1
 235 331 l 1,32,-1
 144 124 l 2,33,34
 128 89 128 89 128 65 c 0,35,36
 128 36 128 36 152.5 23 c 128,-1,37
 177 10 177 10 229 10 c 0,38,39
 234 10 234 10 234 4 c 128,-1,40
 234 -2 234 -2 229 -2 c 0,41,42
 211 -2 211 -2 177 0 c 0,43,44
 139 2 139 2 111 2 c 0,45,46
 85 2 85 2 51 0 c 0,47,48
 21 -2 21 -2 1 -2 c 0,49,50
 -4 -2 -4 -2 -4 4 c 128,-1,51
 -4 10 -4 10 1 10 c 0,52,53
 36 10 36 10 64 38.5 c 128,-1,54
 92 67 92 67 123 134 c 2,55,-1
 300 535 l 1,56,57
 289 556 289 556 276 574 c 0,58,59
 273 578 273 578 283 594 c 0,60,61
 295 615 295 615 302.5 637 c 128,-1,62
 310 659 310 659 310 689 c 0,63,64
 310 692 310 692 315 693 c 128,-1,65
 320 694 320 694 321 691 c 0,66,67
 332 649 332 649 348 608.5 c 128,-1,68
 364 568 364 568 394 499 c 2,69,-1
 550 135 l 2,70,71
 582 62 582 62 607 36 c 128,-1,72
 632 10 632 10 665 10 c 0,73,0
 670 10 670 10 670 4 c 128,-1,1
383 352 m 1,74,-1
 325 484 l 1,75,-1
 313 511 l 1,76,-1
 244 352 l 1,77,-1
 383 352 l 1,74,-1
EndSplineSet
Validated: 1
Position2: "'cpsp' Capital Spacing lookup 0 subtable" dx=5 dy=0 dh=10 dv=0
EndChar

StartChar: B.ss01
Encoding: 65587 -1 265
Width: 558
GlyphClass: 2
Flags: W
AnchorPoint: "Anchor-15" 0 0 basechar 0
AnchorPoint: "Anchor-14" 280 625 basechar 0
AnchorPoint: "Anchor-13" 0 0 basechar 0
AnchorPoint: "Anchor-12" 280 0 basechar 0
LayerCount: 2
Fore
SplineSet
466.5 294 m 128,-1,1
 508 249 508 249 508 184 c 0,2,3
 508 131 508 131 482 88 c 128,-1,4
 456 45 456 45 411 20.5 c 128,-1,5
 366 -4 366 -4 310 -4 c 0,6,7
 278 -4 278 -4 239 -1 c 0,8,9
 226 0 226 0 206.5 1 c 128,-1,10
 187 2 187 2 162 2 c 2,11,-1
 94 1 l 2,12,13
 76 0 76 0 43 0 c 0,14,15
 41 0 41 0 41 6 c 128,-1,16
 41 12 41 12 43 12 c 0,17,18
 81 12 81 12 99 17.5 c 128,-1,19
 117 23 117 23 124 37 c 128,-1,20
 131 51 131 51 131 81 c 2,21,-1
 131 544 l 2,22,23
 131 574 131 574 124.5 588 c 128,-1,24
 118 602 118 602 100.5 607.5 c 128,-1,25
 83 613 83 613 45 613 c 0,26,27
 42 613 42 613 42 619 c 128,-1,28
 42 625 42 625 45 625 c 2,29,-1
 94 624 l 2,30,31
 136 622 136 622 162 622 c 0,32,33
 181 622 181 622 197 623 c 128,-1,34
 213 624 213 624 225 625 c 0,35,36
 257 628 257 628 283 628 c 0,37,38
 362 628 362 628 402.5 597.5 c 128,-1,39
 443 567 443 567 443 506 c 0,40,41
 443 465 443 465 423.5 426.5 c 128,-1,42
 404 388 404 388 361 349 c 1,43,0
 425 339 425 339 466.5 294 c 128,-1,1
219.5 609 m 128,-1,45
 207 605 207 605 201 590 c 128,-1,46
 195 575 195 575 195 542 c 2,47,-1
 195 351 l 1,48,-1
 330 351 l 1,49,-1
 340 351 l 1,50,51
 378 399 378 399 378 473 c 0,52,53
 378 543 378 543 347.5 578 c 128,-1,54
 317 613 317 613 259 613 c 0,55,44
 232 613 232 613 219.5 609 c 128,-1,45
402.5 52 m 128,-1,57
 438 90 438 90 438 159 c 0,58,59
 438 237 438 237 396 283.5 c 128,-1,60
 354 330 354 330 272 330 c 2,61,-1
 195 330 l 1,62,-1
 195 81 l 2,63,64
 195 55 195 55 203 41 c 128,-1,65
 211 27 211 27 232 20.5 c 128,-1,66
 253 14 253 14 295 14 c 0,67,56
 367 14 367 14 402.5 52 c 128,-1,57
EndSplineSet
Validated: 1
Position2: "'cpsp' Capital Spacing lookup 0 subtable" dx=5 dy=0 dh=10 dv=0
EndChar

StartChar: J.ss01
Encoding: 65588 -1 266
Width: 313
GlyphClass: 2
Flags: W
AnchorPoint: "Anchor-15" 0 0 basechar 0
AnchorPoint: "Anchor-14" 158 625 basechar 0
AnchorPoint: "Anchor-13" 0 0 basechar 0
AnchorPoint: "Anchor-12" 158 0 basechar 0
LayerCount: 2
Fore
SplineSet
184 -100 m 128,-1,1
 170 -163 170 -163 136.5 -203 c 128,-1,2
 103 -243 103 -243 41 -275 c 1,3,-1
 40 -275 l 2,4,5
 37 -275 37 -275 35 -270.5 c 128,-1,6
 33 -266 33 -266 36 -264 c 0,7,8
 90 -228 90 -228 111 -154.5 c 128,-1,9
 132 -81 132 -81 132 40 c 2,10,-1
 132 544 l 2,11,12
 132 574 132 574 125.5 588 c 128,-1,13
 119 602 119 602 101.5 607.5 c 128,-1,14
 84 613 84 613 46 613 c 0,15,16
 43 613 43 613 43 619 c 128,-1,17
 43 625 43 625 46 625 c 2,18,-1
 99 624 l 2,19,20
 141 622 141 622 164 622 c 0,21,22
 190 622 190 622 228 624 c 2,23,-1
 272 625 l 2,24,25
 274 625 274 625 274 619 c 128,-1,26
 274 613 274 613 272 613 c 0,27,28
 239 613 239 613 224 607 c 128,-1,29
 209 601 209 601 203.5 586.5 c 128,-1,30
 198 572 198 572 198 542 c 2,31,-1
 198 67 l 2,32,0
 198 -37 198 -37 184 -100 c 128,-1,1
EndSplineSet
Validated: 1
Position2: "'cpsp' Capital Spacing lookup 0 subtable" dx=5 dy=0 dh=10 dv=0
EndChar

StartChar: K.ss01
Encoding: 65589 -1 267
Width: 646
GlyphClass: 2
Flags: W
AnchorPoint: "Anchor-15" 0 0 basechar 0
AnchorPoint: "Anchor-14" 331 625 basechar 0
AnchorPoint: "Anchor-13" 0 0 basechar 0
AnchorPoint: "Anchor-12" 345 0 basechar 0
LayerCount: 2
Fore
SplineSet
651.5 32.5 m 128,-1,1
 653 27 653 27 651 25 c 0,2,3
 611 18 611 18 561 0 c 0,4,5
 536 -9 536 -9 528 -9 c 0,6,7
 514 -9 514 -9 499.5 0 c 128,-1,8
 485 9 485 9 453.5 39.5 c 128,-1,9
 422 70 422 70 351 144 c 2,10,-1
 186 319 l 1,11,-1
 186 81 l 2,12,13
 186 51 186 51 192 36.5 c 128,-1,14
 198 22 198 22 215.5 17 c 128,-1,15
 233 12 233 12 271 12 c 0,16,17
 274 12 274 12 274 6 c 128,-1,18
 274 0 274 0 271 0 c 0,19,20
 241 0 241 0 223 1 c 2,21,-1
 153 2 l 1,22,-1
 85 1 l 2,23,24
 67 0 67 0 35 0 c 0,25,26
 33 0 33 0 33 6 c 128,-1,27
 33 12 33 12 35 12 c 0,28,29
 73 12 73 12 90.5 17 c 128,-1,30
 108 22 108 22 114.5 36.5 c 128,-1,31
 121 51 121 51 121 81 c 2,32,-1
 121 544 l 2,33,34
 121 574 121 574 115 588 c 128,-1,35
 109 602 109 602 91.5 607.5 c 128,-1,36
 74 613 74 613 36 613 c 0,37,38
 34 613 34 613 34 619 c 128,-1,39
 34 625 34 625 36 625 c 2,40,-1
 86 624 l 2,41,42
 128 622 128 622 153 622 c 0,43,44
 182 622 182 622 224 624 c 2,45,-1
 271 625 l 2,46,47
 274 625 274 625 274 619 c 128,-1,48
 274 613 274 613 271 613 c 0,49,50
 234 613 234 613 216.5 607 c 128,-1,51
 199 601 199 601 192.5 586.5 c 128,-1,52
 186 572 186 572 186 542 c 2,53,-1
 186 331 l 1,54,-1
 409 544 l 2,55,56
 442 576 442 576 442 592 c 0,57,58
 442 613 442 613 384 613 c 0,59,60
 381 613 381 613 381 619 c 128,-1,61
 381 625 381 625 384 625 c 2,62,-1
 426 624 l 2,63,64
 464 622 464 622 498 622 c 256,65,66
 532 622 532 622 568 624 c 2,67,-1
 606 625 l 2,68,69
 609 625 609 625 609 619 c 128,-1,70
 609 613 609 613 606 613 c 0,71,72
 565 613 565 613 519.5 595 c 128,-1,73
 474 577 474 577 433 538 c 2,74,-1
 238 356 l 1,75,-1
 387 197 l 2,76,77
 478 101 478 101 526 66 c 128,-1,78
 574 31 574 31 609 31 c 0,79,80
 621 31 621 31 647 37 c 0,81,0
 650 38 650 38 651.5 32.5 c 128,-1,1
EndSplineSet
Validated: 1
Position2: "'cpsp' Capital Spacing lookup 0 subtable" dx=5 dy=0 dh=10 dv=0
EndChar

StartChar: Q.ss01
Encoding: 65593 -1 271
Width: 766
GlyphClass: 2
Flags: W
AnchorPoint: "Anchor-15" 607 579 basechar 0
AnchorPoint: "Anchor-14" 384 625 basechar 0
AnchorPoint: "Anchor-13" 501 12 basechar 0
AnchorPoint: "Anchor-12" 384 0 basechar 0
LayerCount: 2
Fore
SplineSet
764 -145 m 128,-1,1
 766 -151 766 -151 763 -152 c 0,2,3
 717 -162 717 -162 669 -181 c 0,4,5
 651 -190 651 -190 640 -190 c 256,6,7
 629 -190 629 -190 614.5 -179.5 c 128,-1,8
 600 -169 600 -169 562 -129.5 c 128,-1,9
 524 -90 524 -90 446 -3 c 1,10,11
 407 -12 407 -12 366 -12 c 0,12,13
 273 -12 273 -12 200.5 31.5 c 128,-1,14
 128 75 128 75 88.5 149.5 c 128,-1,15
 49 224 49 224 49 312 c 0,16,17
 49 415 49 415 101 488.5 c 128,-1,18
 153 562 153 562 234.5 599 c 128,-1,19
 316 636 316 636 401 636 c 0,20,21
 496 636 496 636 568 591.5 c 128,-1,22
 640 547 640 547 678.5 474 c 128,-1,23
 717 401 717 401 717 319 c 0,24,25
 717 218 717 218 658 135.5 c 128,-1,26
 599 53 599 53 505 15 c 1,27,28
 599 -80 599 -80 643 -113.5 c 128,-1,29
 687 -147 687 -147 719 -147 c 0,30,31
 735 -147 735 -147 760 -140 c 0,32,0
 762 -139 762 -139 764 -145 c 128,-1,1
160 175.5 m 128,-1,34
 195 98 195 98 258 53.5 c 128,-1,35
 321 9 321 9 401 9 c 0,36,37
 469 9 469 9 523.5 42 c 128,-1,38
 578 75 578 75 609.5 139 c 128,-1,39
 641 203 641 203 641 291 c 0,40,41
 641 385 641 385 606 458 c 128,-1,42
 571 531 571 531 507.5 572 c 128,-1,43
 444 613 444 613 359 613 c 0,44,45
 249 613 249 613 187 542 c 128,-1,46
 125 471 125 471 125 347 c 0,47,33
 125 253 125 253 160 175.5 c 128,-1,34
EndSplineSet
Validated: 1
Position2: "'cpsp' Capital Spacing lookup 0 subtable" dx=5 dy=0 dh=10 dv=0
EndChar

StartChar: R.ss01
Encoding: 65594 -1 272
Width: 663
GlyphClass: 2
Flags: W
AnchorPoint: "Anchor-15" 0 0 basechar 0
AnchorPoint: "Anchor-14" 264 625 basechar 0
AnchorPoint: "Anchor-13" 0 0 basechar 0
AnchorPoint: "Anchor-12" 347 0 basechar 0
LayerCount: 2
Fore
SplineSet
675 32 m 128,-1,1
 677 26 677 26 674 25 c 0,2,3
 635 17 635 17 595 3 c 0,4,5
 557 -9 557 -9 543 -9 c 0,6,7
 526 -9 526 -9 502.5 14 c 128,-1,8
 479 37 479 37 430.5 108 c 128,-1,9
 382 179 382 179 294 324 c 1,10,11
 270 317 270 317 240 317 c 0,12,13
 221 317 221 317 195 319 c 1,14,-1
 195 81 l 2,15,16
 195 50 195 50 201 36 c 128,-1,17
 207 22 207 22 224.5 17 c 128,-1,18
 242 12 242 12 280 12 c 0,19,20
 283 12 283 12 283 6 c 128,-1,21
 283 0 283 0 280 0 c 0,22,23
 249 0 249 0 231 1 c 2,24,-1
 162 2 l 1,25,-1
 94 1 l 2,26,27
 76 0 76 0 43 0 c 0,28,29
 41 0 41 0 41 6 c 128,-1,30
 41 12 41 12 43 12 c 0,31,32
 81 12 81 12 99 17.5 c 128,-1,33
 117 23 117 23 124 37 c 128,-1,34
 131 51 131 51 131 81 c 2,35,-1
 131 544 l 2,36,37
 131 574 131 574 124.5 588 c 128,-1,38
 118 602 118 602 100.5 607.5 c 128,-1,39
 83 613 83 613 45 613 c 0,40,41
 42 613 42 613 42 619 c 128,-1,42
 42 625 42 625 45 625 c 2,43,-1
 94 624 l 2,44,45
 136 622 136 622 162 622 c 0,46,47
 180 622 180 622 196 623 c 128,-1,48
 212 624 212 624 224 625 c 0,49,50
 256 628 256 628 282 628 c 0,51,52
 363 628 363 628 407 595 c 128,-1,53
 451 562 451 562 451 503 c 0,54,55
 451 454 451 454 423 412 c 128,-1,56
 395 370 395 370 348 345 c 1,57,58
 441 199 441 199 490.5 133 c 128,-1,59
 540 67 540 67 567.5 49 c 128,-1,60
 595 31 595 31 629 31 c 0,61,62
 642 31 642 31 654.5 33.5 c 128,-1,63
 667 36 667 36 671 37 c 0,64,0
 673 38 673 38 675 32 c 128,-1,1
254 340 m 0,66,67
 323 340 323 340 353 369.5 c 128,-1,68
 383 399 383 399 383 468 c 0,69,70
 383 613 383 613 261 613 c 0,71,72
 234 613 234 613 220.5 608.5 c 128,-1,73
 207 604 207 604 201 589.5 c 128,-1,74
 195 575 195 575 195 542 c 2,75,-1
 195 344 l 1,76,65
 220 340 220 340 254 340 c 0,66,67
EndSplineSet
Validated: 1
Position2: "'cpsp' Capital Spacing lookup 0 subtable" dx=5 dy=0 dh=10 dv=0
EndChar

StartChar: U.ss01
Encoding: 65598 -1 276
Width: 763
GlyphClass: 2
Flags: W
AnchorPoint: "Anchor-15" 739 625 basechar 0
AnchorPoint: "Anchor-14" 385 625 basechar 0
AnchorPoint: "Anchor-13" 649 12 basechar 0
AnchorPoint: "Anchor-12" 381 0 basechar 0
LayerCount: 2
Fore
SplineSet
729 6 m 128,-1,1
 729 0 729 0 726 0 c 2,2,-1
 647 1 l 1,3,-1
 595 0 l 2,4,5
 583 0 583 0 579.5 3 c 128,-1,6
 576 6 576 6 576 19 c 2,7,-1
 576 96 l 1,8,9
 513 39 513 39 455.5 13.5 c 128,-1,10
 398 -12 398 -12 331 -12 c 0,11,12
 268 -12 268 -12 217.5 12 c 128,-1,13
 167 36 167 36 138.5 81 c 128,-1,14
 110 126 110 126 110 186 c 2,15,-1
 110 544 l 2,16,17
 110 574 110 574 104 588 c 128,-1,18
 98 602 98 602 80.5 607.5 c 128,-1,19
 63 613 63 613 25 613 c 0,20,21
 22 613 22 613 22 619 c 128,-1,22
 22 625 22 625 25 625 c 2,23,-1
 74 624 l 2,24,25
 116 622 116 622 141 622 c 0,26,27
 169 622 169 622 213 624 c 2,28,-1
 260 625 l 2,29,30
 262 625 262 625 262 619 c 128,-1,31
 262 613 262 613 260 613 c 0,32,33
 223 613 223 613 205 607 c 128,-1,34
 187 601 187 601 180.5 586.5 c 128,-1,35
 174 572 174 572 174 542 c 2,36,-1
 174 221 l 2,37,38
 174 121 174 121 223.5 68.5 c 128,-1,39
 273 16 273 16 358 16 c 0,40,41
 415 16 415 16 466 38.5 c 128,-1,42
 517 61 517 61 576 114 c 1,43,-1
 576 542 l 2,44,45
 576 572 576 572 570 586.5 c 128,-1,46
 564 601 564 601 546.5 607 c 128,-1,47
 529 613 529 613 491 613 c 0,48,49
 488 613 488 613 488 619 c 128,-1,50
 488 625 488 625 491 625 c 2,51,-1
 539 624 l 2,52,53
 583 622 583 622 609 622 c 256,54,55
 635 622 635 622 677 624 c 2,56,-1
 726 625 l 2,57,58
 729 625 729 625 729 619 c 128,-1,59
 729 613 729 613 726 613 c 0,60,61
 688 613 688 613 670.5 607.5 c 128,-1,62
 653 602 653 602 646.5 588 c 128,-1,63
 640 574 640 574 640 544 c 2,64,-1
 640 81 l 2,65,66
 640 51 640 51 646.5 36.5 c 128,-1,67
 653 22 653 22 670.5 17 c 128,-1,68
 688 12 688 12 726 12 c 0,69,0
 729 12 729 12 729 6 c 128,-1,1
EndSplineSet
Validated: 1
Position2: "'cpsp' Capital Spacing lookup 0 subtable" dx=5 dy=0 dh=10 dv=0
EndChar

StartChar: Uhorn.ss01
Encoding: 65611 -1 289
Width: 763
GlyphClass: 2
Flags: W
AnchorPoint: "Anchor-15" 0 0 basechar 0
AnchorPoint: "Anchor-14" 381 625 basechar 0
AnchorPoint: "Anchor-13" 0 0 basechar 0
AnchorPoint: "Anchor-12" 381 0 basechar 0
LayerCount: 2
Fore
SplineSet
646.5 592.5 m 128,-1,1
 640 579 640 579 640 544 c 2,2,-1
 640 81 l 2,3,4
 640 51 640 51 646.5 36.5 c 128,-1,5
 653 22 653 22 670.5 17 c 128,-1,6
 688 12 688 12 726 12 c 0,7,8
 729 12 729 12 729 6 c 128,-1,9
 729 0 729 0 726 0 c 2,10,-1
 647 1 l 1,11,-1
 595 0 l 2,12,13
 583 0 583 0 579.5 3 c 128,-1,14
 576 6 576 6 576 19 c 2,15,-1
 576 96 l 1,16,17
 513 39 513 39 455.5 13.5 c 128,-1,18
 398 -12 398 -12 331 -12 c 0,19,20
 268 -12 268 -12 217.5 12 c 128,-1,21
 167 36 167 36 138.5 81 c 128,-1,22
 110 126 110 126 110 186 c 2,23,-1
 110 544 l 2,24,25
 110 574 110 574 104 588 c 128,-1,26
 98 602 98 602 80.5 607.5 c 128,-1,27
 63 613 63 613 25 613 c 0,28,29
 22 613 22 613 22 619 c 128,-1,30
 22 625 22 625 25 625 c 2,31,-1
 74 624 l 2,32,33
 116 622 116 622 141 622 c 0,34,35
 169 622 169 622 213 624 c 2,36,-1
 260 625 l 2,37,38
 262 625 262 625 262 619 c 128,-1,39
 262 613 262 613 260 613 c 0,40,41
 223 613 223 613 205 607 c 128,-1,42
 187 601 187 601 180.5 586.5 c 128,-1,43
 174 572 174 572 174 542 c 2,44,-1
 174 221 l 2,45,46
 174 121 174 121 223.5 68.5 c 128,-1,47
 273 16 273 16 358 16 c 0,48,49
 415 16 415 16 466 38.5 c 128,-1,50
 517 61 517 61 576 114 c 1,51,-1
 576 542 l 2,52,53
 576 572 576 572 570 586.5 c 128,-1,54
 564 601 564 601 546.5 607 c 128,-1,55
 529 613 529 613 491 613 c 0,56,57
 488 613 488 613 488 619 c 128,-1,58
 488 625 488 625 491 625 c 2,59,-1
 539 624 l 2,60,61
 583 622 583 622 609 622 c 0,62,63
 666 622 666 622 698.5 635 c 128,-1,64
 731 648 731 648 731 671 c 0,65,66
 731 679 731 679 723 691 c 0,67,68
 712 704 712 704 712 718 c 0,69,70
 712 735 712 735 724.5 745.5 c 128,-1,71
 737 756 737 756 754 756 c 0,72,73
 772 756 772 756 782 742 c 128,-1,74
 792 728 792 728 792 709 c 0,75,76
 792 679 792 679 772 659 c 128,-1,77
 752 639 752 639 731 630.5 c 128,-1,78
 710 622 710 622 677 612 c 0,79,0
 653 606 653 606 646.5 592.5 c 128,-1,1
EndSplineSet
Validated: 1
Position2: "'cpsp' Capital Spacing lookup 0 subtable" dx=5 dy=0 dh=10 dv=0
EndChar

StartChar: Uogonek.ss01
Encoding: 65619 -1 297
Width: 758
Flags: W
LayerCount: 2
Fore
SplineSet
724 6 m 128,-1,1
 724 0 724 0 721 0 c 2,2,-1
 623 1 l 2,3,4
 572 1 572 1 540.5 -37 c 128,-1,5
 509 -75 509 -75 509 -138 c 0,6,7
 509 -190 509 -190 534 -217.5 c 128,-1,8
 559 -245 559 -245 606 -245 c 0,9,10
 627 -245 627 -245 641 -239.5 c 128,-1,11
 655 -234 655 -234 671 -222 c 1,12,-1
 672 -222 l 2,13,14
 675 -222 675 -222 677.5 -225 c 128,-1,15
 680 -228 680 -228 678 -230 c 0,16,17
 651 -254 651 -254 624.5 -264.5 c 128,-1,18
 598 -275 598 -275 569 -275 c 0,19,20
 512 -275 512 -275 479.5 -247.5 c 128,-1,21
 447 -220 447 -220 447 -172 c 0,22,23
 447 -129 447 -129 464.5 -101 c 128,-1,24
 482 -73 482 -73 516 -39 c 0,25,26
 545 -11 545 -11 558.5 10 c 128,-1,27
 572 31 572 31 572 59 c 2,28,-1
 572 97 l 1,29,30
 509 39 509 39 451.5 13.5 c 128,-1,31
 394 -12 394 -12 327 -12 c 0,32,33
 265 -12 265 -12 215.5 12 c 128,-1,34
 166 36 166 36 138 81 c 128,-1,35
 110 126 110 126 110 186 c 2,36,-1
 110 544 l 2,37,38
 110 574 110 574 104 588 c 128,-1,39
 98 602 98 602 80.5 607.5 c 128,-1,40
 63 613 63 613 25 613 c 0,41,42
 22 613 22 613 22 619 c 128,-1,43
 22 625 22 625 25 625 c 2,44,-1
 74 624 l 2,45,46
 116 622 116 622 141 622 c 0,47,48
 169 622 169 622 213 624 c 2,49,-1
 260 625 l 2,50,51
 262 625 262 625 262 619 c 128,-1,52
 262 613 262 613 260 613 c 0,53,54
 223 613 223 613 205 607 c 128,-1,55
 187 601 187 601 180.5 586.5 c 128,-1,56
 174 572 174 572 174 542 c 2,57,-1
 174 221 l 2,58,59
 174 121 174 121 222.5 68.5 c 128,-1,60
 271 16 271 16 354 16 c 0,61,62
 410 16 410 16 461.5 38.5 c 128,-1,63
 513 61 513 61 572 114 c 1,64,-1
 572 542 l 2,65,66
 572 572 572 572 565.5 586.5 c 128,-1,67
 559 601 559 601 541.5 607 c 128,-1,68
 524 613 524 613 486 613 c 0,69,70
 484 613 484 613 484 619 c 128,-1,71
 484 625 484 625 486 625 c 2,72,-1
 534 624 l 2,73,74
 578 622 578 622 604 622 c 256,75,76
 630 622 630 622 672 624 c 2,77,-1
 721 625 l 2,78,79
 724 625 724 625 724 619 c 128,-1,80
 724 613 724 613 721 613 c 0,81,82
 683 613 683 613 665.5 607.5 c 128,-1,83
 648 602 648 602 641.5 588 c 128,-1,84
 635 574 635 574 635 544 c 2,85,-1
 635 81 l 2,86,87
 635 51 635 51 641 36.5 c 128,-1,88
 647 22 647 22 665 17 c 128,-1,89
 683 12 683 12 721 12 c 0,90,0
 724 12 724 12 724 6 c 128,-1,1
EndSplineSet
Validated: 1
Position2: "'cpsp' Capital Spacing lookup 0 subtable" dx=5 dy=0 dh=10 dv=0
EndChar

StartChar: Q.long.c2sc.ss01
Encoding: 65622 -1 300
Width: 577
GlyphClass: 2
Flags: W
AnchorPoint: "Anchor-15" 464 396 basechar 0
AnchorPoint: "Anchor-14" 285 468 basechar 0
AnchorPoint: "Anchor-13" 402 12 basechar 0
AnchorPoint: "Anchor-12" 289 0 basechar 0
LayerCount: 2
Fore
SplineSet
1122.5 -190.5 m 128,-1,1
 1124 -196 1124 -196 1122 -198 c 0,2,3
 1077 -214 1077 -214 1032 -235 c 0,4,5
 1019 -241 1019 -241 1008.5 -245 c 128,-1,6
 998 -249 998 -249 990 -249 c 0,7,8
 918 -249 918 -249 803 -214 c 128,-1,9
 688 -179 688 -179 565.5 -122 c 128,-1,10
 443 -65 443 -65 349 -2 c 1,11,12
 309 -12 309 -12 275 -12 c 0,13,14
 205 -12 205 -12 150.5 21 c 128,-1,15
 96 54 96 54 66 110 c 128,-1,16
 36 166 36 166 36 231 c 0,17,18
 36 309 36 309 76.5 365.5 c 128,-1,19
 117 422 117 422 179.5 451 c 128,-1,20
 242 480 242 480 307 480 c 0,21,22
 377 480 377 480 430.5 445.5 c 128,-1,23
 484 411 484 411 512.5 356 c 128,-1,24
 541 301 541 301 541 241 c 0,25,26
 541 170 541 170 501.5 110 c 128,-1,27
 462 50 462 50 397 17 c 1,28,29
 542 -77 542 -77 721.5 -138 c 128,-1,30
 901 -199 901 -199 1052 -199 c 0,31,32
 1081 -199 1081 -199 1118 -186 c 0,33,0
 1121 -185 1121 -185 1122.5 -190.5 c 128,-1,1
128.5 131 m 128,-1,35
 152 75 152 75 196.5 42 c 128,-1,36
 241 9 241 9 301 9 c 0,37,38
 379 9 379 9 425.5 64 c 128,-1,39
 472 119 472 119 472 216 c 0,40,41
 472 283 472 283 448.5 338 c 128,-1,42
 425 393 425 393 380 426 c 128,-1,43
 335 459 335 459 273 459 c 0,44,45
 193 459 193 459 149 405.5 c 128,-1,46
 105 352 105 352 105 256 c 0,47,34
 105 187 105 187 128.5 131 c 128,-1,35
EndSplineSet
Validated: 1
Position2: "'cpsp' Capital Spacing lookup 0 subtable" dx=5 dy=0 dh=10 dv=0
EndChar

StartChar: R.short.c2sc.ss01
Encoding: 65623 -1 301
Width: 537
GlyphClass: 2
Flags: W
AnchorPoint: "Anchor-15" 0 0 basechar 0
AnchorPoint: "Anchor-14" 231 468 basechar 0
AnchorPoint: "Anchor-13" 0 0 basechar 0
AnchorPoint: "Anchor-12" 269 0 basechar 0
LayerCount: 2
Fore
SplineSet
541.5 33.5 m 128,-1,1
 543 28 543 28 541 26 c 0,2,3
 510 18 510 18 473 2 c 0,4,5
 471 1 471 1 458.5 -4 c 128,-1,6
 446 -9 446 -9 435 -9 c 0,7,8
 423 -9 423 -9 414 -1.5 c 128,-1,9
 405 6 405 6 388 31.5 c 128,-1,10
 371 57 371 57 347 96 c 0,11,12
 289 191 289 191 265 229 c 1,13,14
 240 222 240 222 210 222 c 0,15,16
 185 222 185 222 172 224 c 1,17,-1
 172 81 l 2,18,19
 172 50 172 50 177 36 c 128,-1,20
 182 22 182 22 197 17 c 128,-1,21
 212 12 212 12 246 12 c 0,22,23
 248 12 248 12 248 6 c 128,-1,24
 248 0 248 0 246 0 c 0,25,26
 218 0 218 0 203 1 c 2,27,-1
 140 2 l 1,28,-1
 81 1 l 2,29,30
 64 0 64 0 35 0 c 0,31,32
 33 0 33 0 33 6 c 128,-1,33
 33 12 33 12 35 12 c 0,34,35
 68 12 68 12 83.5 17 c 128,-1,36
 99 22 99 22 105 36.5 c 128,-1,37
 111 51 111 51 111 81 c 2,38,-1
 111 387 l 2,39,40
 111 417 111 417 105.5 431 c 128,-1,41
 100 445 100 445 84.5 450.5 c 128,-1,42
 69 456 69 456 36 456 c 0,43,44
 34 456 34 456 34 462 c 128,-1,45
 34 468 34 468 36 468 c 2,46,-1
 82 467 l 2,47,48
 118 465 118 465 140 465 c 0,49,50
 158 465 158 465 173.5 466 c 128,-1,51
 189 467 189 467 200 468 c 0,52,53
 231 471 231 471 259 471 c 0,54,55
 324 471 324 471 358 446 c 128,-1,56
 392 421 392 421 392 374 c 0,57,58
 392 336 392 336 371.5 303 c 128,-1,59
 351 270 351 270 315 249 c 1,60,61
 387 143 387 143 415 104 c 128,-1,62
 443 65 443 65 462.5 49 c 128,-1,63
 482 33 482 33 503 33 c 0,64,65
 515 33 515 33 537 38 c 0,66,0
 540 39 540 39 541.5 33.5 c 128,-1,1
217 239 m 0,68,69
 279 239 279 239 303.5 266.5 c 128,-1,70
 328 294 328 294 328 347 c 0,71,72
 328 457 328 457 233 457 c 0,73,74
 195 457 195 457 183.5 441 c 128,-1,75
 172 425 172 425 172 385 c 2,76,-1
 172 242 l 1,77,67
 190 239 190 239 217 239 c 0,68,69
EndSplineSet
Validated: 1
Position2: "'cpsp' Capital Spacing lookup 0 subtable" dx=5 dy=0 dh=10 dv=0
EndChar

StartChar: Q.long.ss01
Encoding: 65631 -1 309
Width: 766
GlyphClass: 2
Flags: W
AnchorPoint: "Anchor-15" 607 579 basechar 0
AnchorPoint: "Anchor-14" 384 625 basechar 0
AnchorPoint: "Anchor-13" 501 12 basechar 0
AnchorPoint: "Anchor-12" 384 0 basechar 0
LayerCount: 2
Fore
SplineSet
1221.5 -186.5 m 128,-1,1
 1223 -192 1223 -192 1221 -193 c 0,2,3
 1181 -208 1181 -208 1130 -233 c 0,4,5
 1118 -239 1118 -239 1107.5 -243.5 c 128,-1,6
 1097 -248 1097 -248 1090 -248 c 0,7,8
 1018 -248 1018 -248 908 -214 c 128,-1,9
 798 -180 798 -180 679 -123 c 128,-1,10
 560 -66 560 -66 461 0 c 1,11,12
 415 -12 415 -12 366 -12 c 0,13,14
 273 -12 273 -12 200.5 31.5 c 128,-1,15
 128 75 128 75 88.5 149.5 c 128,-1,16
 49 224 49 224 49 312 c 0,17,18
 49 415 49 415 101 488.5 c 128,-1,19
 153 562 153 562 234.5 599 c 128,-1,20
 316 636 316 636 401 636 c 0,21,22
 496 636 496 636 568 591.5 c 128,-1,23
 640 547 640 547 678.5 474 c 128,-1,24
 717 401 717 401 717 319 c 0,25,26
 717 221 717 221 661.5 140.5 c 128,-1,27
 606 60 606 60 516 20 c 1,28,29
 664 -77 664 -77 833.5 -135 c 128,-1,30
 1003 -193 1003 -193 1160 -193 c 0,31,32
 1182 -193 1182 -193 1217 -182 c 0,33,0
 1220 -181 1220 -181 1221.5 -186.5 c 128,-1,1
160 175.5 m 128,-1,35
 195 98 195 98 258 53.5 c 128,-1,36
 321 9 321 9 401 9 c 0,37,38
 469 9 469 9 523.5 42 c 128,-1,39
 578 75 578 75 609.5 139 c 128,-1,40
 641 203 641 203 641 291 c 0,41,42
 641 385 641 385 606 458 c 128,-1,43
 571 531 571 531 507.5 572 c 128,-1,44
 444 613 444 613 359 613 c 0,45,46
 249 613 249 613 187 542 c 128,-1,47
 125 471 125 471 125 347 c 0,48,34
 125 253 125 253 160 175.5 c 128,-1,35
EndSplineSet
Validated: 1
Position2: "'cpsp' Capital Spacing lookup 0 subtable" dx=5 dy=0 dh=10 dv=0
EndChar

StartChar: R.short.ss01
Encoding: 65632 -1 310
Width: 669
GlyphClass: 2
Flags: W
AnchorPoint: "Anchor-15" 0 0 basechar 0
AnchorPoint: "Anchor-14" 264 625 basechar 0
AnchorPoint: "Anchor-13" 0 0 basechar 0
AnchorPoint: "Anchor-12" 347 0 basechar 0
LayerCount: 2
Fore
SplineSet
689 32.5 m 128,-1,1
 690 27 690 27 688 25 c 0,2,3
 639 15 639 15 599 0 c 0,4,5
 594 -2 594 -2 583.5 -5.5 c 128,-1,6
 573 -9 573 -9 566 -9 c 0,7,8
 538 -9 538 -9 514.5 13 c 128,-1,9
 491 35 491 35 452 98 c 128,-1,10
 413 161 413 161 320 323 c 1,11,12
 255 329 255 329 195 329 c 1,13,-1
 195 81 l 2,14,15
 195 50 195 50 201 36 c 128,-1,16
 207 22 207 22 224.5 17 c 128,-1,17
 242 12 242 12 280 12 c 0,18,19
 283 12 283 12 283 6 c 128,-1,20
 283 0 283 0 280 0 c 0,21,22
 249 0 249 0 231 1 c 2,23,-1
 162 2 l 1,24,-1
 94 1 l 2,25,26
 76 0 76 0 43 0 c 0,27,28
 41 0 41 0 41 6 c 128,-1,29
 41 12 41 12 43 12 c 0,30,31
 81 12 81 12 99 17.5 c 128,-1,32
 117 23 117 23 124 37 c 128,-1,33
 131 51 131 51 131 81 c 2,34,-1
 131 544 l 2,35,36
 131 574 131 574 124.5 588 c 128,-1,37
 118 602 118 602 100.5 607.5 c 128,-1,38
 83 613 83 613 45 613 c 0,39,40
 42 613 42 613 42 619 c 128,-1,41
 42 625 42 625 45 625 c 2,42,-1
 94 624 l 2,43,44
 136 622 136 622 162 622 c 0,45,46
 189 622 189 622 222 625 c 0,47,48
 234 626 234 626 250 627 c 128,-1,49
 266 628 266 628 283 628 c 0,50,51
 446 628 446 628 446 507 c 0,52,53
 446 424 446 424 367 348 c 1,54,55
 456 199 456 199 503.5 133 c 128,-1,56
 551 67 551 67 579.5 49 c 128,-1,57
 608 31 608 31 646 31 c 0,58,59
 659 31 659 31 685 37 c 0,60,0
 688 38 688 38 689 32.5 c 128,-1,1
195 347 m 1,61,62
 294 347 294 347 343 352 c 1,63,64
 362 375 362 375 370 404 c 128,-1,65
 378 433 378 433 378 474 c 0,66,67
 378 543 378 543 347 578 c 128,-1,68
 316 613 316 613 258 613 c 0,69,70
 232 613 232 613 219.5 609 c 128,-1,71
 207 605 207 605 201 590 c 128,-1,72
 195 575 195 575 195 542 c 2,73,-1
 195 347 l 1,61,62
EndSplineSet
Validated: 1
Position2: "'cpsp' Capital Spacing lookup 0 subtable" dx=5 dy=0 dh=10 dv=0
EndChar

StartChar: A.ss02
Encoding: 65636 -1 314
Width: 702
GlyphClass: 2
Flags: W
AnchorPoint: "Anchor-15" 0 0 basechar 0
AnchorPoint: "Anchor-14" 341 625 basechar 0
AnchorPoint: "Anchor-13" 664 12 basechar 0
AnchorPoint: "Anchor-12" 352 0 basechar 0
LayerCount: 2
Fore
SplineSet
703 6 m 128,-1,1
 703 0 703 0 699 0 c 0,2,3
 680 0 680 0 640 2 c 256,4,5
 600 4 600 4 582 4 c 0,6,7
 560 4 560 4 526 2 c 0,8,9
 494 0 494 0 477 0 c 0,10,11
 473 0 473 0 473 6 c 128,-1,12
 473 12 473 12 477 12 c 0,13,14
 514 12 514 12 531 19 c 128,-1,15
 548 26 548 26 548 43 c 0,16,17
 548 57 548 57 535 86 c 2,18,-1
 446 275 l 1,19,-1
 208 275 l 1,20,-1
 145 127 l 2,21,22
 131 93 131 93 131 71 c 0,23,24
 131 12 131 12 229 12 c 0,25,26
 234 12 234 12 234 6 c 128,-1,27
 234 0 234 0 229 0 c 0,28,29
 211 0 211 0 177 2 c 0,30,31
 139 4 139 4 111 4 c 0,32,33
 85 4 85 4 51 2 c 0,34,35
 21 0 21 0 1 0 c 0,36,37
 -4 0 -4 0 -4 6 c 128,-1,38
 -4 12 -4 12 1 12 c 0,39,40
 29 12 29 12 48.5 22.5 c 128,-1,41
 68 33 68 33 85.5 59.5 c 128,-1,42
 103 86 103 86 124 136 c 2,43,-1
 335 634 l 2,44,45
 337 637 337 637 342 637 c 128,-1,46
 347 637 347 637 348 634 c 2,47,-1
 584 137 l 2,48,49
 618 63 618 63 642 37.5 c 128,-1,50
 666 12 666 12 699 12 c 0,51,0
 703 12 703 12 703 6 c 128,-1,1
437 295 m 1,52,-1
 320 542 l 1,53,-1
 216 295 l 1,54,-1
 437 295 l 1,52,-1
EndSplineSet
Validated: 1
Position2: "'cpsp' Capital Spacing lookup 0 subtable" dx=5 dy=0 dh=10 dv=0
EndChar

StartChar: Aogonek.ss02
Encoding: 65656 -1 334
Width: 704
GlyphClass: 2
Flags: W
AnchorPoint: "Anchor-15" 0 0 basechar 0
AnchorPoint: "Anchor-14" 344 625 basechar 0
AnchorPoint: "Anchor-13" 665 12 basechar 0
AnchorPoint: "Anchor-12" 0 0 basechar 0
LayerCount: 2
Fore
SplineSet
703 3.5 m 128,-1,1
 703 -2 703 -2 699 -2 c 0,2,3
 677 -2 677 -2 645 0 c 2,4,-1
 603 1 l 2,5,6
 549 1 549 1 512 -35.5 c 128,-1,7
 475 -72 475 -72 475 -129 c 0,8,9
 475 -178 475 -178 502.5 -211.5 c 128,-1,10
 530 -245 530 -245 583 -245 c 0,11,12
 613 -245 613 -245 639 -232 c 1,13,-1
 640 -232 l 2,14,15
 643 -232 643 -232 645.5 -235 c 128,-1,16
 648 -238 648 -238 646 -240 c 0,17,18
 601 -275 601 -275 541 -275 c 0,19,20
 483 -275 483 -275 450 -245.5 c 128,-1,21
 417 -216 417 -216 417 -166 c 0,22,23
 417 -125 417 -125 436 -96.5 c 128,-1,24
 455 -68 455 -68 491 -34 c 0,25,26
 518 -9 518 -9 531 9 c 128,-1,27
 544 27 544 27 544 49 c 0,28,29
 544 65 544 65 535 84 c 2,30,-1
 444 275 l 1,31,-1
 208 275 l 1,32,-1
 145 127 l 2,33,34
 131 93 131 93 131 71 c 0,35,36
 131 12 131 12 229 12 c 0,37,38
 234 12 234 12 234 6 c 128,-1,39
 234 0 234 0 229 0 c 0,40,41
 211 0 211 0 177 2 c 0,42,43
 139 4 139 4 111 4 c 0,44,45
 85 4 85 4 51 2 c 0,46,47
 21 0 21 0 1 0 c 0,48,49
 -4 0 -4 0 -4 6 c 128,-1,50
 -4 12 -4 12 1 12 c 0,51,52
 29 12 29 12 48.5 22.5 c 128,-1,53
 68 33 68 33 85.5 59.5 c 128,-1,54
 103 86 103 86 124 136 c 2,55,-1
 335 634 l 2,56,57
 337 637 337 637 342 637 c 128,-1,58
 347 637 347 637 348 634 c 2,59,-1
 584 135 l 2,60,61
 618 62 618 62 642.5 35.5 c 128,-1,62
 667 9 667 9 699 9 c 0,63,0
 703 9 703 9 703 3.5 c 128,-1,1
434 295 m 1,64,-1
 319 538 l 1,65,-1
 216 295 l 1,66,-1
 434 295 l 1,64,-1
EndSplineSet
Validated: 1
Position2: "'cpsp' Capital Spacing lookup 0 subtable" dx=5 dy=0 dh=10 dv=0
EndChar

StartChar: C.ss02
Encoding: 65660 -1 338
Width: 686
GlyphClass: 2
Flags: W
AnchorPoint: "Anchor-15" 0 0 basechar 0
AnchorPoint: "Anchor-14" 388 625 basechar 0
AnchorPoint: "Anchor-13" 0 0 basechar 0
AnchorPoint: "Anchor-12" 414 0 basechar 0
LayerCount: 2
Fore
SplineSet
517 627 m 128,-1,1
 560 618 560 618 603 596 c 0,2,3
 610 592 610 592 611 589 c 128,-1,4
 612 586 612 586 614 574 c 2,5,-1
 626 455 l 2,6,7
 626 452 626 452 620.5 451.5 c 128,-1,8
 615 451 615 451 614 454 c 0,9,10
 568 621 568 621 408 621 c 0,11,12
 324 621 324 621 260 584 c 128,-1,13
 196 547 196 547 161 478.5 c 128,-1,14
 126 410 126 410 126 319 c 0,15,16
 126 232 126 232 164.5 159.5 c 128,-1,17
 203 87 203 87 268.5 45 c 128,-1,18
 334 3 334 3 411 3 c 0,19,20
 493 3 493 3 544 43 c 128,-1,21
 595 83 595 83 622 165 c 0,22,23
 622 167 622 167 627 167 c 0,24,25
 634 167 634 167 634 164 c 2,26,-1
 624 54 l 2,27,28
 623 42 623 42 621 39 c 128,-1,29
 619 36 619 36 613 32 c 0,30,31
 561 7 561 7 515.5 -3 c 128,-1,32
 470 -13 470 -13 411 -13 c 0,33,34
 306 -13 306 -13 223.5 28.5 c 128,-1,35
 141 70 141 70 95 145 c 128,-1,36
 49 220 49 220 49 317 c 0,37,38
 49 411 49 411 96 483.5 c 128,-1,39
 143 556 143 556 225.5 596 c 128,-1,40
 308 636 308 636 411 636 c 0,41,0
 474 636 474 636 517 627 c 128,-1,1
EndSplineSet
Validated: 1
Position2: "'cpsp' Capital Spacing lookup 0 subtable" dx=5 dy=0 dh=10 dv=0
EndChar

StartChar: Ccedilla.ss02
Encoding: 65663 -1 341
Width: 686
GlyphClass: 2
Flags: W
AnchorPoint: "Anchor-15" 0 0 basechar 0
AnchorPoint: "Anchor-14" 0 0 basechar 0
AnchorPoint: "Anchor-13" 0 0 basechar 0
AnchorPoint: "Anchor-12" 414 0 basechar 0
LayerCount: 2
Fore
SplineSet
627 167 m 0,1,2
 634 167 634 167 634 164 c 2,3,-1
 624 54 l 2,4,5
 623 42 623 42 621 39 c 128,-1,6
 619 36 619 36 613 32 c 0,7,8
 561 7 561 7 515.5 -3 c 128,-1,9
 470 -13 470 -13 411 -13 c 2,10,-1
 409 -13 l 1,11,12
 400 -43 400 -43 400 -57 c 256,13,14
 400 -71 400 -71 408.5 -79 c 128,-1,15
 417 -87 417 -87 443 -102 c 0,16,17
 468 -116 468 -116 482.5 -134 c 128,-1,18
 497 -152 497 -152 497 -179 c 0,19,20
 497 -216 497 -216 470.5 -245.5 c 128,-1,21
 444 -275 444 -275 393 -275 c 0,22,23
 365 -275 365 -275 347 -265 c 128,-1,24
 329 -255 329 -255 329 -237 c 0,25,26
 329 -224 329 -224 338 -215.5 c 128,-1,27
 347 -207 347 -207 359 -207 c 0,28,29
 370 -207 370 -207 376 -212.5 c 128,-1,30
 382 -218 382 -218 388 -229 c 0,31,32
 395 -242 395 -242 402.5 -248.5 c 128,-1,33
 410 -255 410 -255 425 -255 c 0,34,35
 459 -255 459 -255 459 -217 c 0,36,37
 459 -191 459 -191 440.5 -170.5 c 128,-1,38
 422 -150 422 -150 373 -124 c 0,39,40
 359 -117 359 -117 359 -111 c 0,41,42
 359 -107 359 -107 364 -94 c 0,43,44
 376 -64 376 -64 395 -13 c 1,45,46
 294 -10 294 -10 215.5 32.5 c 128,-1,47
 137 75 137 75 93 148.5 c 128,-1,48
 49 222 49 222 49 317 c 0,49,50
 49 411 49 411 96 483.5 c 128,-1,51
 143 556 143 556 225.5 596 c 128,-1,52
 308 636 308 636 411 636 c 0,53,54
 474 636 474 636 517 627 c 128,-1,55
 560 618 560 618 603 596 c 0,56,57
 610 592 610 592 611 589 c 128,-1,58
 612 586 612 586 614 574 c 2,59,-1
 626 455 l 2,60,61
 626 452 626 452 620.5 451.5 c 128,-1,62
 615 451 615 451 614 454 c 0,63,64
 568 621 568 621 408 621 c 0,65,66
 324 621 324 621 260 584 c 128,-1,67
 196 547 196 547 161 478.5 c 128,-1,68
 126 410 126 410 126 319 c 0,69,70
 126 232 126 232 164.5 159.5 c 128,-1,71
 203 87 203 87 268.5 45 c 128,-1,72
 334 3 334 3 411 3 c 0,73,74
 493 3 493 3 544 43 c 128,-1,75
 595 83 595 83 622 165 c 0,76,0
 622 167 622 167 627 167 c 0,1,2
EndSplineSet
Validated: 1
Position2: "'cpsp' Capital Spacing lookup 0 subtable" dx=5 dy=0 dh=10 dv=0
EndChar

StartChar: G.ss02
Encoding: 65666 -1 344
Width: 713
GlyphClass: 2
Flags: W
AnchorPoint: "Anchor-15" 0 0 basechar 0
AnchorPoint: "Anchor-14" 394 625 basechar 0
AnchorPoint: "Anchor-13" 0 0 basechar 0
AnchorPoint: "Anchor-12" 425 0 basechar 0
LayerCount: 2
Fore
SplineSet
216.5 32 m 128,-1,1
 135 76 135 76 92 151 c 128,-1,2
 49 226 49 226 49 316 c 0,3,4
 49 413 49 413 98 485.5 c 128,-1,5
 147 558 147 558 232.5 597 c 128,-1,6
 318 636 318 636 424 636 c 0,7,8
 477 636 477 636 524 626 c 128,-1,9
 571 616 571 616 602 597 c 0,10,11
 610 593 610 593 611 590 c 128,-1,12
 612 587 612 587 613 575 c 2,13,-1
 625 457 l 2,14,15
 625 454 625 454 619.5 453 c 128,-1,16
 614 452 614 452 613 456 c 0,17,18
 567 620 567 620 405 620 c 0,19,20
 326 620 326 620 262.5 584.5 c 128,-1,21
 199 549 199 549 162.5 483.5 c 128,-1,22
 126 418 126 418 126 331 c 0,23,24
 126 246 126 246 161 171 c 128,-1,25
 196 96 196 96 266 49.5 c 128,-1,26
 336 3 336 3 435 3 c 0,27,28
 506 3 506 3 535 30.5 c 128,-1,29
 564 58 564 58 564 125 c 0,30,31
 564 177 564 177 557.5 197.5 c 128,-1,32
 551 218 551 218 528.5 225 c 128,-1,33
 506 232 506 232 450 232 c 0,34,35
 444 232 444 232 444 240 c 0,36,37
 444 243 444 243 445.5 245.5 c 128,-1,38
 447 248 447 248 449 248 c 0,39,40
 527 243 527 243 575 243 c 0,41,42
 621 243 621 243 674 246 c 0,43,44
 676 246 676 246 677.5 243.5 c 128,-1,45
 679 241 679 241 679 239 c 0,46,47
 679 232 679 232 674 232 c 0,48,49
 671 232 671 232 668 232 c 0,50,51
 649 233 649 233 639.5 225.5 c 128,-1,52
 630 218 630 218 627 195.5 c 128,-1,53
 624 173 624 173 624 115 c 0,54,55
 624 70 624 70 627.5 51 c 128,-1,56
 631 32 631 32 631 27 c 0,57,58
 631 21 631 21 629 19 c 128,-1,59
 627 17 627 17 620 15 c 0,60,61
 496 -12 496 -12 408 -12 c 0,62,0
 298 -12 298 -12 216.5 32 c 128,-1,1
EndSplineSet
Validated: 1
Position2: "'cpsp' Capital Spacing lookup 0 subtable" dx=5 dy=0 dh=10 dv=0
EndChar

StartChar: R.ss02
Encoding: 65671 -1 349
Width: 673
GlyphClass: 2
Flags: W
AnchorPoint: "Anchor-15" 0 0 basechar 0
AnchorPoint: "Anchor-14" 275 625 basechar 0
AnchorPoint: "Anchor-13" 0 0 basechar 0
AnchorPoint: "Anchor-12" 341 0 basechar 0
LayerCount: 2
Fore
SplineSet
685 6 m 128,-1,1
 685 0 685 0 683 0 c 2,2,-1
 554 0 l 2,3,4
 529 0 529 0 460 83 c 128,-1,5
 391 166 391 166 296 311 c 1,6,7
 269 305 269 305 240 305 c 0,8,9
 234 305 234 305 195 308 c 1,10,-1
 195 81 l 2,11,12
 195 50 195 50 201 36 c 128,-1,13
 207 22 207 22 224.5 17 c 128,-1,14
 242 12 242 12 280 12 c 0,15,16
 283 12 283 12 283 6 c 128,-1,17
 283 0 283 0 280 0 c 0,18,19
 249 0 249 0 231 1 c 2,20,-1
 162 2 l 1,21,-1
 94 1 l 2,22,23
 76 0 76 0 43 0 c 0,24,25
 41 0 41 0 41 6 c 128,-1,26
 41 12 41 12 43 12 c 0,27,28
 81 12 81 12 99 17.5 c 128,-1,29
 117 23 117 23 124 37 c 128,-1,30
 131 51 131 51 131 81 c 2,31,-1
 131 544 l 2,32,33
 131 574 131 574 124.5 588 c 128,-1,34
 118 602 118 602 100.5 607.5 c 128,-1,35
 83 613 83 613 45 613 c 0,36,37
 42 613 42 613 42 619 c 128,-1,38
 42 625 42 625 45 625 c 2,39,-1
 94 624 l 2,40,41
 136 622 136 622 162 622 c 0,42,43
 184 622 184 622 203 623 c 128,-1,44
 222 624 222 624 235 625 c 0,45,46
 272 628 272 628 302 628 c 0,47,48
 381 628 381 628 424 592 c 128,-1,49
 467 556 467 556 467 496 c 0,50,51
 467 442 467 442 435.5 398.5 c 128,-1,52
 404 355 404 355 352 330 c 1,53,54
 436 209 436 209 493.5 140.5 c 128,-1,55
 551 72 551 72 595.5 42 c 128,-1,56
 640 12 640 12 683 12 c 0,57,0
 685 12 685 12 685 6 c 128,-1,1
254 328 m 0,59,60
 332 328 332 328 365.5 362 c 128,-1,61
 399 396 399 396 399 467 c 0,62,63
 399 545 399 545 364.5 579 c 128,-1,64
 330 613 330 613 264 613 c 0,65,66
 225 613 225 613 210 599 c 128,-1,67
 195 585 195 585 195 542 c 2,68,-1
 195 332 l 1,69,58
 220 328 220 328 254 328 c 0,59,60
EndSplineSet
Validated: 1
Position2: "'cpsp' Capital Spacing lookup 0 subtable" dx=5 dy=0 dh=10 dv=0
EndChar

StartChar: Q.long.c2sc.ss02
Encoding: 65678 -1 356
Width: 577
GlyphClass: 2
Flags: W
AnchorPoint: "Anchor-15" 464 396 basechar 0
AnchorPoint: "Anchor-14" 289 625 basechar 0
AnchorPoint: "Anchor-13" 402 12 basechar 0
AnchorPoint: "Anchor-12" 289 0 basechar 0
LayerCount: 2
Fore
SplineSet
1334 -197.5 m 128,-1,1
 1336 -203 1336 -203 1333 -204 c 0,2,3
 1283 -220 1283 -220 1224 -231 c 128,-1,4
 1165 -242 1165 -242 1067 -242 c 0,5,6
 705 -242 705 -242 285 -12 c 1,7,-1
 275 -12 l 2,8,9
 205 -12 205 -12 150.5 21 c 128,-1,10
 96 54 96 54 66 110 c 128,-1,11
 36 166 36 166 36 231 c 0,12,13
 36 309 36 309 76.5 365.5 c 128,-1,14
 117 422 117 422 179.5 451 c 128,-1,15
 242 480 242 480 307 480 c 0,16,17
 377 480 377 480 430.5 445.5 c 128,-1,18
 484 411 484 411 512.5 356 c 128,-1,19
 541 301 541 301 541 241 c 0,20,21
 541 165 541 165 496 102 c 128,-1,22
 451 39 451 39 379 9 c 1,23,24
 468 -51 468 -51 597 -103 c 128,-1,25
 726 -155 726 -155 864.5 -186 c 128,-1,26
 1003 -217 1003 -217 1118 -217 c 0,27,28
 1251 -217 1251 -217 1330 -193 c 0,29,0
 1332 -192 1332 -192 1334 -197.5 c 128,-1,1
128.5 131 m 128,-1,31
 152 75 152 75 196.5 42 c 128,-1,32
 241 9 241 9 301 9 c 0,33,34
 379 9 379 9 425.5 64 c 128,-1,35
 472 119 472 119 472 216 c 0,36,37
 472 283 472 283 448.5 338 c 128,-1,38
 425 393 425 393 380 426 c 128,-1,39
 335 459 335 459 273 459 c 0,40,41
 193 459 193 459 149 405.5 c 128,-1,42
 105 352 105 352 105 256 c 0,43,30
 105 187 105 187 128.5 131 c 128,-1,31
EndSplineSet
Validated: 1
Position2: "'cpsp' Capital Spacing lookup 0 subtable" dx=5 dy=0 dh=10 dv=0
EndChar

StartChar: Q.long.ss02
Encoding: 65682 -1 360
Width: 766
GlyphClass: 2
Flags: W
AnchorPoint: "Anchor-15" 607 579 basechar 0
AnchorPoint: "Anchor-14" 384 625 basechar 0
AnchorPoint: "Anchor-13" 501 12 basechar 0
AnchorPoint: "Anchor-12" 384 0 basechar 0
LayerCount: 2
Fore
SplineSet
1451 -198.5 m 128,-1,1
 1453 -204 1453 -204 1450 -205 c 0,2,3
 1401 -221 1401 -221 1339 -233 c 128,-1,4
 1277 -245 1277 -245 1176 -245 c 0,5,6
 785 -245 785 -245 335 -11 c 1,7,8
 250 -3 250 -3 185 42 c 128,-1,9
 120 87 120 87 84.5 158 c 128,-1,10
 49 229 49 229 49 312 c 0,11,12
 49 415 49 415 101 488.5 c 128,-1,13
 153 562 153 562 234.5 599 c 128,-1,14
 316 636 316 636 401 636 c 0,15,16
 496 636 496 636 568 591.5 c 128,-1,17
 640 547 640 547 678.5 474 c 128,-1,18
 717 401 717 401 717 319 c 0,19,20
 717 243 717 243 683 177 c 128,-1,21
 649 111 649 111 590 64.5 c 128,-1,22
 531 18 531 18 458 0 c 1,23,24
 549 -59 549 -59 682.5 -109 c 128,-1,25
 816 -159 816 -159 961 -189 c 128,-1,26
 1106 -219 1106 -219 1228 -219 c 0,27,28
 1366 -219 1366 -219 1447 -194 c 0,29,0
 1449 -193 1449 -193 1451 -198.5 c 128,-1,1
160 175.5 m 128,-1,31
 195 98 195 98 258 53.5 c 128,-1,32
 321 9 321 9 401 9 c 0,33,34
 469 9 469 9 523.5 42 c 128,-1,35
 578 75 578 75 609.5 139 c 128,-1,36
 641 203 641 203 641 291 c 0,37,38
 641 385 641 385 606 458 c 128,-1,39
 571 531 571 531 507.5 572 c 128,-1,40
 444 613 444 613 359 613 c 0,41,42
 249 613 249 613 187 542 c 128,-1,43
 125 471 125 471 125 347 c 0,44,30
 125 253 125 253 160 175.5 c 128,-1,31
EndSplineSet
Validated: 1
Position2: "'cpsp' Capital Spacing lookup 0 subtable" dx=5 dy=0 dh=10 dv=0
EndChar

StartChar: R.short.ss02
Encoding: 65683 -1 361
Width: 607
GlyphClass: 2
Flags: W
AnchorPoint: "Anchor-15" 0 0 basechar 0
AnchorPoint: "Anchor-14" 267 625 basechar 0
AnchorPoint: "Anchor-13" 0 0 basechar 0
AnchorPoint: "Anchor-12" 326 0 basechar 0
LayerCount: 2
Fore
SplineSet
606 6 m 128,-1,1
 606 0 606 0 603 0 c 2,2,-1
 480 0 l 2,3,4
 463 0 463 0 413 88 c 128,-1,5
 363 176 363 176 304 312 c 1,6,7
 267 305 267 305 240 305 c 0,8,9
 234 305 234 305 195 308 c 1,10,-1
 195 81 l 2,11,12
 195 50 195 50 201 36 c 128,-1,13
 207 22 207 22 224.5 17 c 128,-1,14
 242 12 242 12 280 12 c 0,15,16
 283 12 283 12 283 6 c 128,-1,17
 283 0 283 0 280 0 c 0,18,19
 249 0 249 0 231 1 c 2,20,-1
 162 2 l 1,21,-1
 94 1 l 2,22,23
 76 0 76 0 43 0 c 0,24,25
 41 0 41 0 41 6 c 128,-1,26
 41 12 41 12 43 12 c 0,27,28
 81 12 81 12 99 17.5 c 128,-1,29
 117 23 117 23 124 37 c 128,-1,30
 131 51 131 51 131 81 c 2,31,-1
 131 544 l 2,32,33
 131 574 131 574 124.5 588 c 128,-1,34
 118 602 118 602 100.5 607.5 c 128,-1,35
 83 613 83 613 45 613 c 0,36,37
 42 613 42 613 42 619 c 128,-1,38
 42 625 42 625 45 625 c 2,39,-1
 94 624 l 2,40,41
 136 622 136 622 162 622 c 0,42,43
 184 622 184 622 203.5 623 c 128,-1,44
 223 624 223 624 238 625 c 0,45,46
 277 628 277 628 307 628 c 0,47,48
 386 628 386 628 429 592 c 128,-1,49
 472 556 472 556 472 496 c 0,50,51
 472 444 472 444 441 400 c 128,-1,52
 410 356 410 356 358 331 c 1,53,54
 415 210 415 210 455 142.5 c 128,-1,55
 495 75 495 75 530 43.5 c 128,-1,56
 565 12 565 12 603 12 c 0,57,0
 606 12 606 12 606 6 c 128,-1,1
254 328 m 0,59,60
 335 328 335 328 369.5 362 c 128,-1,61
 404 396 404 396 404 467 c 0,62,63
 404 546 404 546 368.5 579.5 c 128,-1,64
 333 613 333 613 264 613 c 0,65,66
 225 613 225 613 210 599 c 128,-1,67
 195 585 195 585 195 542 c 2,68,-1
 195 332 l 1,69,58
 220 328 220 328 254 328 c 0,59,60
EndSplineSet
Validated: 1
Position2: "'cpsp' Capital Spacing lookup 0 subtable" dx=5 dy=0 dh=10 dv=0
EndChar

StartChar: U.ss03
Encoding: 65690 -1 368
Width: 763
GlyphClass: 2
Flags: W
AnchorPoint: "Anchor-15" 739 625 basechar 0
AnchorPoint: "Anchor-14" 385 625 basechar 0
AnchorPoint: "Anchor-13" 649 12 basechar 0
AnchorPoint: "Anchor-12" 381 0 basechar 0
LayerCount: 2
Fore
SplineSet
729 6 m 128,-1,1
 729 0 729 0 726 0 c 2,2,-1
 647 1 l 1,3,-1
 595 0 l 2,4,5
 583 0 583 0 579.5 3 c 128,-1,6
 576 6 576 6 576 19 c 2,7,-1
 576 96 l 1,8,9
 513 39 513 39 455.5 13.5 c 128,-1,10
 398 -12 398 -12 331 -12 c 0,11,12
 268 -12 268 -12 217.5 12 c 128,-1,13
 167 36 167 36 138.5 81 c 128,-1,14
 110 126 110 126 110 186 c 2,15,-1
 110 544 l 2,16,17
 110 574 110 574 104 588 c 128,-1,18
 98 602 98 602 80.5 607.5 c 128,-1,19
 63 613 63 613 25 613 c 0,20,21
 22 613 22 613 22 619 c 128,-1,22
 22 625 22 625 25 625 c 2,23,-1
 74 624 l 2,24,25
 116 622 116 622 141 622 c 0,26,27
 169 622 169 622 213 624 c 2,28,-1
 260 625 l 2,29,30
 262 625 262 625 262 619 c 128,-1,31
 262 613 262 613 260 613 c 0,32,33
 223 613 223 613 205 607 c 128,-1,34
 187 601 187 601 180.5 586.5 c 128,-1,35
 174 572 174 572 174 542 c 2,36,-1
 174 221 l 2,37,38
 174 121 174 121 223.5 68.5 c 128,-1,39
 273 16 273 16 358 16 c 0,40,41
 415 16 415 16 466 38.5 c 128,-1,42
 517 61 517 61 576 114 c 1,43,-1
 576 542 l 2,44,45
 576 572 576 572 570 586.5 c 128,-1,46
 564 601 564 601 546.5 607 c 128,-1,47
 529 613 529 613 491 613 c 0,48,49
 488 613 488 613 488 619 c 128,-1,50
 488 625 488 625 491 625 c 2,51,-1
 539 624 l 2,52,53
 583 622 583 622 609 622 c 256,54,55
 635 622 635 622 677 624 c 2,56,-1
 726 625 l 2,57,58
 729 625 729 625 729 619 c 128,-1,59
 729 613 729 613 726 613 c 0,60,61
 688 613 688 613 670.5 607.5 c 128,-1,62
 653 602 653 602 646.5 588 c 128,-1,63
 640 574 640 574 640 544 c 2,64,-1
 640 81 l 2,65,66
 640 51 640 51 646.5 36.5 c 128,-1,67
 653 22 653 22 670.5 17 c 128,-1,68
 688 12 688 12 726 12 c 0,69,0
 729 12 729 12 729 6 c 128,-1,1
EndSplineSet
Validated: 1
Position2: "'cpsp' Capital Spacing lookup 0 subtable" dx=5 dy=0 dh=10 dv=0
EndChar

StartChar: Uhorn.ss03
Encoding: 65703 -1 381
Width: 763
GlyphClass: 2
Flags: W
AnchorPoint: "Anchor-15" 0 0 basechar 0
AnchorPoint: "Anchor-14" 381 625 basechar 0
AnchorPoint: "Anchor-13" 0 0 basechar 0
AnchorPoint: "Anchor-12" 381 0 basechar 0
LayerCount: 2
Fore
SplineSet
646.5 592.5 m 128,-1,1
 640 579 640 579 640 544 c 2,2,-1
 640 81 l 2,3,4
 640 51 640 51 646.5 36.5 c 128,-1,5
 653 22 653 22 670.5 17 c 128,-1,6
 688 12 688 12 726 12 c 0,7,8
 729 12 729 12 729 6 c 128,-1,9
 729 0 729 0 726 0 c 2,10,-1
 647 1 l 1,11,-1
 595 0 l 2,12,13
 583 0 583 0 579.5 3 c 128,-1,14
 576 6 576 6 576 19 c 2,15,-1
 576 96 l 1,16,17
 513 39 513 39 455.5 13.5 c 128,-1,18
 398 -12 398 -12 331 -12 c 0,19,20
 268 -12 268 -12 217.5 12 c 128,-1,21
 167 36 167 36 138.5 81 c 128,-1,22
 110 126 110 126 110 186 c 2,23,-1
 110 544 l 2,24,25
 110 574 110 574 104 588 c 128,-1,26
 98 602 98 602 80.5 607.5 c 128,-1,27
 63 613 63 613 25 613 c 0,28,29
 22 613 22 613 22 619 c 128,-1,30
 22 625 22 625 25 625 c 2,31,-1
 74 624 l 2,32,33
 116 622 116 622 141 622 c 0,34,35
 169 622 169 622 213 624 c 2,36,-1
 260 625 l 2,37,38
 262 625 262 625 262 619 c 128,-1,39
 262 613 262 613 260 613 c 0,40,41
 223 613 223 613 205 607 c 128,-1,42
 187 601 187 601 180.5 586.5 c 128,-1,43
 174 572 174 572 174 542 c 2,44,-1
 174 221 l 2,45,46
 174 121 174 121 223.5 68.5 c 128,-1,47
 273 16 273 16 358 16 c 0,48,49
 415 16 415 16 466 38.5 c 128,-1,50
 517 61 517 61 576 114 c 1,51,-1
 576 542 l 2,52,53
 576 572 576 572 570 586.5 c 128,-1,54
 564 601 564 601 546.5 607 c 128,-1,55
 529 613 529 613 491 613 c 0,56,57
 488 613 488 613 488 619 c 128,-1,58
 488 625 488 625 491 625 c 2,59,-1
 539 624 l 2,60,61
 583 622 583 622 609 622 c 0,62,63
 666 622 666 622 698.5 635 c 128,-1,64
 731 648 731 648 731 671 c 0,65,66
 731 679 731 679 723 691 c 0,67,68
 712 704 712 704 712 718 c 0,69,70
 712 735 712 735 724.5 745.5 c 128,-1,71
 737 756 737 756 754 756 c 0,72,73
 772 756 772 756 782 742 c 128,-1,74
 792 728 792 728 792 709 c 0,75,76
 792 679 792 679 772 659 c 128,-1,77
 752 639 752 639 731 630.5 c 128,-1,78
 710 622 710 622 677 612 c 0,79,0
 653 606 653 606 646.5 592.5 c 128,-1,1
EndSplineSet
Validated: 1
Position2: "'cpsp' Capital Spacing lookup 0 subtable" dx=5 dy=0 dh=10 dv=0
EndChar

StartChar: Uogonek.ss03
Encoding: 65711 -1 389
Width: 758
Flags: W
LayerCount: 2
Fore
SplineSet
724 6 m 128,-1,1
 724 0 724 0 721 0 c 2,2,-1
 623 1 l 2,3,4
 572 1 572 1 540.5 -37 c 128,-1,5
 509 -75 509 -75 509 -138 c 0,6,7
 509 -190 509 -190 534 -217.5 c 128,-1,8
 559 -245 559 -245 606 -245 c 0,9,10
 627 -245 627 -245 641 -239.5 c 128,-1,11
 655 -234 655 -234 671 -222 c 1,12,-1
 672 -222 l 2,13,14
 675 -222 675 -222 677.5 -225 c 128,-1,15
 680 -228 680 -228 678 -230 c 0,16,17
 651 -254 651 -254 624.5 -264.5 c 128,-1,18
 598 -275 598 -275 569 -275 c 0,19,20
 512 -275 512 -275 479.5 -247.5 c 128,-1,21
 447 -220 447 -220 447 -172 c 0,22,23
 447 -129 447 -129 464.5 -101 c 128,-1,24
 482 -73 482 -73 516 -39 c 0,25,26
 545 -11 545 -11 558.5 10 c 128,-1,27
 572 31 572 31 572 59 c 2,28,-1
 572 97 l 1,29,30
 509 39 509 39 451.5 13.5 c 128,-1,31
 394 -12 394 -12 327 -12 c 0,32,33
 265 -12 265 -12 215.5 12 c 128,-1,34
 166 36 166 36 138 81 c 128,-1,35
 110 126 110 126 110 186 c 2,36,-1
 110 544 l 2,37,38
 110 574 110 574 104 588 c 128,-1,39
 98 602 98 602 80.5 607.5 c 128,-1,40
 63 613 63 613 25 613 c 0,41,42
 22 613 22 613 22 619 c 128,-1,43
 22 625 22 625 25 625 c 2,44,-1
 74 624 l 2,45,46
 116 622 116 622 141 622 c 0,47,48
 169 622 169 622 213 624 c 2,49,-1
 260 625 l 2,50,51
 262 625 262 625 262 619 c 128,-1,52
 262 613 262 613 260 613 c 0,53,54
 223 613 223 613 205 607 c 128,-1,55
 187 601 187 601 180.5 586.5 c 128,-1,56
 174 572 174 572 174 542 c 2,57,-1
 174 221 l 2,58,59
 174 121 174 121 222.5 68.5 c 128,-1,60
 271 16 271 16 354 16 c 0,61,62
 410 16 410 16 461.5 38.5 c 128,-1,63
 513 61 513 61 572 114 c 1,64,-1
 572 542 l 2,65,66
 572 572 572 572 565.5 586.5 c 128,-1,67
 559 601 559 601 541.5 607 c 128,-1,68
 524 613 524 613 486 613 c 0,69,70
 484 613 484 613 484 619 c 128,-1,71
 484 625 484 625 486 625 c 2,72,-1
 534 624 l 2,73,74
 578 622 578 622 604 622 c 256,75,76
 630 622 630 622 672 624 c 2,77,-1
 721 625 l 2,78,79
 724 625 724 625 724 619 c 128,-1,80
 724 613 724 613 721 613 c 0,81,82
 683 613 683 613 665.5 607.5 c 128,-1,83
 648 602 648 602 641.5 588 c 128,-1,84
 635 574 635 574 635 544 c 2,85,-1
 635 81 l 2,86,87
 635 51 635 51 641 36.5 c 128,-1,88
 647 22 647 22 665 17 c 128,-1,89
 683 12 683 12 721 12 c 0,90,0
 724 12 724 12 724 6 c 128,-1,1
EndSplineSet
Validated: 1
Position2: "'cpsp' Capital Spacing lookup 0 subtable" dx=5 dy=0 dh=10 dv=0
EndChar

StartChar: W.ss03
Encoding: 65714 -1 392
Width: 920
GlyphClass: 2
Flags: W
AnchorPoint: "Anchor-15" 0 0 basechar 0
AnchorPoint: "Anchor-14" 471 625 basechar 0
AnchorPoint: "Anchor-13" 0 0 basechar 0
AnchorPoint: "Anchor-12" 466 0 basechar 0
LayerCount: 2
Fore
SplineSet
926 619 m 128,-1,1
 926 613 926 613 924 613 c 0,2,3
 845 613 845 613 823 534 c 2,4,-1
 667 1 l 2,5,6
 667 -3 667 -3 656 -3 c 0,7,8
 646 -3 646 -3 645 1 c 2,9,-1
 454 521 l 1,10,-1
 298 1 l 2,11,12
 298 -3 298 -3 287 -3 c 0,13,14
 278 -3 278 -3 275 1 c 2,15,-1
 84 542 l 2,16,17
 71 581 71 581 51 597 c 128,-1,18
 31 613 31 613 -1 613 c 0,19,20
 -4 613 -4 613 -4 619 c 128,-1,21
 -4 625 -4 625 -1 625 c 2,22,-1
 37 624 l 2,23,24
 65 622 65 622 82 622 c 0,25,26
 134 622 134 622 184 624 c 0,27,28
 199 625 199 625 224 625 c 0,29,30
 227 625 227 625 227 619 c 128,-1,31
 227 613 227 613 224 613 c 0,32,33
 147 613 147 613 147 570 c 0,34,35
 147 561 147 561 152 546 c 2,36,-1
 307 109 l 1,37,-1
 461 625 l 2,38,39
 463 628 463 628 472 628 c 0,40,41
 483 628 483 628 483 625 c 2,42,-1
 675 107 l 1,43,-1
 799 537 l 2,44,45
 803 549 803 549 803 561 c 0,46,47
 803 613 803 613 709 613 c 0,48,49
 706 613 706 613 706 619 c 128,-1,50
 706 625 706 625 709 625 c 2,51,-1
 759 624 l 2,52,53
 803 622 803 622 835 622 c 0,54,55
 855 622 855 622 881 624 c 2,56,-1
 924 625 l 2,57,0
 926 625 926 625 926 619 c 128,-1,1
EndSplineSet
Validated: 1
Position2: "'cpsp' Capital Spacing lookup 0 subtable" dx=5 dy=0 dh=10 dv=0
EndChar

StartChar: a
Encoding: 97 97 522
Width: 419
GlyphClass: 2
Flags: W
AnchorPoint: "Anchor-15" 0 0 basechar 0
AnchorPoint: "Anchor-14" 209 386 basechar 0
AnchorPoint: "Anchor-13" 375 12 basechar 0
AnchorPoint: "Anchor-12" 209 0 basechar 0
LayerCount: 2
Fore
SplineSet
415 54 m 2,0,1
 419 54 419 54 420 49.5 c 128,-1,2
 421 45 421 45 417 43 c 2,3,-1
 314 -6 l 2,4,5
 310 -8 310 -8 306 -8 c 0,6,7
 293 -8 293 -8 283 9 c 128,-1,8
 273 26 273 26 270 56 c 1,9,-1
 208 23 l 2,10,11
 177 7 177 7 157 0 c 128,-1,12
 137 -7 137 -7 118 -7 c 0,13,14
 87 -7 87 -7 70.5 9.5 c 128,-1,15
 54 26 54 26 54 51 c 0,16,17
 54 78 54 78 74.5 94.5 c 128,-1,18
 95 111 95 111 148 129 c 2,19,-1
 269 172 l 1,20,-1
 269 255 l 2,21,22
 269 321 269 321 252 347.5 c 128,-1,23
 235 374 235 374 205 374 c 0,24,25
 171 374 171 374 152 350 c 128,-1,26
 133 326 133 326 129 292 c 0,27,28
 125 254 125 254 92 254 c 0,29,30
 76 254 76 254 67 262 c 128,-1,31
 58 270 58 270 58 284 c 0,32,33
 58 307 58 307 88 333 c 128,-1,34
 118 359 118 359 160.5 377 c 128,-1,35
 203 395 203 395 237 395 c 0,36,37
 277 395 277 395 301 367.5 c 128,-1,38
 325 340 325 340 325 285 c 2,39,-1
 325 108 l 2,40,41
 325 73 325 73 334 57 c 128,-1,42
 343 41 343 41 364 41 c 0,43,44
 383 41 383 41 413 54 c 1,45,-1
 415 54 l 2,0,1
269 70 m 1,46,-1
 269 76 l 1,47,-1
 269 160 l 1,48,-1
 166 121 l 2,49,50
 143 112 143 112 133.5 101 c 128,-1,51
 124 90 124 90 124 73 c 0,52,53
 124 52 124 52 136 40.5 c 128,-1,54
 148 29 148 29 167 29 c 256,55,56
 186 29 186 29 208 39 c 2,57,-1
 269 70 l 1,46,-1
EndSplineSet
Validated: 1
Substitution2: "Single Substitution lookup 63 subtable" ordfeminine
Substitution2: "'ss02' Style Set 2 lookup 55 subtable" a.ss02
Substitution2: "'smcp' Lowercase to Small Capitals lookup 43 subtable" a.sc
AlternateSubs2: "'aalt' Access All Alternates lookup 1 subtable" ordfeminine a.ss02 a.sc
EndChar

StartChar: aogonek
Encoding: 261 261 543
Width: 419
GlyphClass: 2
Flags: W
AnchorPoint: "Anchor-15" 0 0 basechar 0
AnchorPoint: "Anchor-14" 209 386 basechar 0
AnchorPoint: "Anchor-13" 375 12 basechar 0
AnchorPoint: "Anchor-12" 209 0 basechar 0
LayerCount: 2
Fore
SplineSet
415 54 m 2,0,1
 419 54 419 54 420 49.5 c 128,-1,2
 421 45 421 45 417 43 c 2,3,-1
 314 -6 l 1,4,-1
 310 -8 l 1,5,6
 274 -41 274 -41 258 -73.5 c 128,-1,7
 242 -106 242 -106 242 -143 c 0,8,9
 242 -191 242 -191 266 -218 c 128,-1,10
 290 -245 290 -245 335 -245 c 0,11,12
 369 -245 369 -245 400 -222 c 1,13,-1
 402 -222 l 2,14,15
 405 -222 405 -222 407.5 -225 c 128,-1,16
 410 -228 410 -228 407 -230 c 0,17,18
 355 -275 355 -275 299 -275 c 0,19,20
 245 -275 245 -275 215.5 -248 c 128,-1,21
 186 -221 186 -221 186 -176 c 0,22,23
 186 -93 186 -93 295 -4 c 1,24,25
 286 2 286 2 279 17.5 c 128,-1,26
 272 33 272 33 270 56 c 1,27,-1
 208 23 l 2,28,29
 177 7 177 7 157 0 c 128,-1,30
 137 -7 137 -7 118 -7 c 0,31,32
 87 -7 87 -7 70.5 9.5 c 128,-1,33
 54 26 54 26 54 51 c 0,34,35
 54 78 54 78 74.5 94.5 c 128,-1,36
 95 111 95 111 148 129 c 2,37,-1
 269 172 l 1,38,-1
 269 255 l 2,39,40
 269 321 269 321 252 347.5 c 128,-1,41
 235 374 235 374 205 374 c 0,42,43
 171 374 171 374 152 350 c 128,-1,44
 133 326 133 326 129 292 c 0,45,46
 125 254 125 254 92 254 c 0,47,48
 76 254 76 254 67 262 c 128,-1,49
 58 270 58 270 58 284 c 0,50,51
 58 307 58 307 88 333 c 128,-1,52
 118 359 118 359 160.5 377 c 128,-1,53
 203 395 203 395 237 395 c 0,54,55
 277 395 277 395 301 367.5 c 128,-1,56
 325 340 325 340 325 285 c 2,57,-1
 325 108 l 2,58,59
 325 73 325 73 334 57 c 128,-1,60
 343 41 343 41 364 41 c 0,61,62
 383 41 383 41 413 54 c 1,63,-1
 415 54 l 2,0,1
269 70 m 1,64,-1
 269 76 l 1,65,-1
 269 160 l 1,66,-1
 166 121 l 2,67,68
 143 112 143 112 133.5 101 c 128,-1,69
 124 90 124 90 124 73 c 0,70,71
 124 52 124 52 136 40.5 c 128,-1,72
 148 29 148 29 167 29 c 256,73,74
 186 29 186 29 208 39 c 2,75,-1
 269 70 l 1,64,-1
EndSplineSet
Validated: 1
Substitution2: "'ss02' Style Set 2 lookup 55 subtable" aogonek.ss02
Substitution2: "'smcp' Lowercase to Small Capitals lookup 43 subtable" aogonek.sc
AlternateSubs2: "'aalt' Access All Alternates lookup 1 subtable" aogonek.ss02 aogonek.sc
EndChar

StartChar: ae
Encoding: 230 230 547
Width: 589
GlyphClass: 2
Flags: W
AnchorPoint: "Anchor-15" 0 0 basechar 0
AnchorPoint: "Anchor-14" 305 386 basechar 0
AnchorPoint: "Anchor-13" 0 0 basechar 0
AnchorPoint: "Anchor-12" 295 0 basechar 0
LayerCount: 2
Fore
SplineSet
553 56 m 2,0,1
 556 56 556 56 559 52.5 c 128,-1,2
 562 49 562 49 559 46 c 0,3,4
 525 15 525 15 492.5 1.5 c 128,-1,5
 460 -12 460 -12 420 -12 c 0,6,7
 321 -12 321 -12 282 62 c 1,8,-1
 201 21 l 2,9,10
 170 5 170 5 152 -1 c 128,-1,11
 134 -7 134 -7 114 -7 c 0,12,13
 83 -7 83 -7 65 9.5 c 128,-1,14
 47 26 47 26 47 52 c 256,15,16
 47 78 47 78 67 93 c 128,-1,17
 87 108 87 108 141 127 c 2,18,-1
 257 166 l 1,19,-1
 257 170 l 1,20,21
 253 257 253 257 248.5 296 c 128,-1,22
 244 335 244 335 229.5 356.5 c 128,-1,23
 215 378 215 378 183 378 c 0,24,25
 150 378 150 378 135 354.5 c 128,-1,26
 120 331 120 331 116 291 c 0,27,28
 113 255 113 255 82 255 c 0,29,30
 64 255 64 255 55 263.5 c 128,-1,31
 46 272 46 272 46 287 c 0,32,33
 46 309 46 309 71 334.5 c 128,-1,34
 96 360 96 360 133.5 377.5 c 128,-1,35
 171 395 171 395 205 395 c 256,36,37
 239 395 239 395 265.5 376.5 c 128,-1,38
 292 358 292 358 302 326 c 1,39,40
 330 358 330 358 368.5 376.5 c 128,-1,41
 407 395 407 395 451 395 c 0,42,43
 501 395 501 395 528 368.5 c 128,-1,44
 555 342 555 342 555 294 c 0,45,46
 555 283 555 283 552 278 c 128,-1,47
 549 273 549 273 542 273 c 2,48,-1
 496 273 l 1,49,-1
 321 271 l 1,50,51
 316 243 316 243 316 215 c 0,52,53
 318 135 318 135 345 78 c 128,-1,54
 372 21 372 21 451 21 c 0,55,56
 513 21 513 21 552 56 c 1,57,-1
 553 56 l 2,0,1
359 351.5 m 128,-1,59
 335 328 335 328 324 285 c 1,60,-1
 485 289 l 1,61,62
 485 330 485 330 467 352.5 c 128,-1,63
 449 375 449 375 418 375 c 0,64,58
 383 375 383 375 359 351.5 c 128,-1,59
277 72 m 1,65,66
 263 105 263 105 258 154 c 1,67,-1
 159 118 l 2,68,69
 136 110 136 110 127 100 c 128,-1,70
 118 90 118 90 118 74 c 0,71,72
 118 54 118 54 130 41.5 c 128,-1,73
 142 29 142 29 162 29 c 0,74,75
 186 29 186 29 201 36 c 2,76,-1
 277 72 l 1,65,66
EndSplineSet
Validated: 1
Substitution2: "'ss02' Style Set 2 lookup 55 subtable" ae.ss02
Substitution2: "'smcp' Lowercase to Small Capitals lookup 43 subtable" ae.sc
AlternateSubs2: "'aalt' Access All Alternates lookup 1 subtable" ae.ss02 ae.sc
EndChar

StartChar: b
Encoding: 98 98 550
Width: 510
GlyphClass: 2
Flags: W
AnchorPoint: "Anchor-15" 0 0 basechar 0
AnchorPoint: "Anchor-14" 255 386 basechar 0
AnchorPoint: "Anchor-13" 0 0 basechar 0
AnchorPoint: "Anchor-12" 255 0 basechar 0
LayerCount: 2
Fore
SplineSet
392 378 m 128,-1,1
 429 357 429 357 451 315.5 c 128,-1,2
 473 274 473 274 473 214 c 0,3,4
 473 142 473 142 441.5 90.5 c 128,-1,5
 410 39 410 39 359.5 13 c 128,-1,6
 309 -13 309 -13 253 -13 c 0,7,8
 176 -13 176 -13 117 31 c 1,9,-1
 41 -5 l 1,10,-1
 39 -5 l 2,11,12
 35 -5 35 -5 34 -1 c 128,-1,13
 33 3 33 3 36 5 c 0,14,15
 68 27 68 27 81 46.5 c 128,-1,16
 94 66 94 66 94 103 c 2,17,-1
 94 597 l 2,18,19
 94 633 94 633 86.5 649 c 128,-1,20
 79 665 79 665 61 665 c 0,21,22
 47 665 47 665 16 652 c 1,23,-1
 14 652 l 2,24,25
 11 652 11 652 9.5 657 c 128,-1,26
 8 662 8 662 11 663 c 2,27,-1
 136 724 l 1,28,-1
 141 725 l 2,29,30
 143 725 143 725 146.5 722.5 c 128,-1,31
 150 720 150 720 150 717 c 2,32,-1
 150 312 l 1,33,34
 188 352 188 352 226 375.5 c 128,-1,35
 264 399 264 399 312 399 c 0,36,0
 355 399 355 399 392 378 c 128,-1,1
374.5 51 m 128,-1,38
 407 96 407 96 407 180 c 0,39,40
 407 270 407 270 372 318 c 128,-1,41
 337 366 337 366 279 366 c 0,42,43
 245 366 245 366 214 347.5 c 128,-1,44
 183 329 183 329 150 296 c 1,45,-1
 150 132 l 2,46,47
 150 88 150 88 171.5 60 c 128,-1,48
 193 32 193 32 224 19 c 128,-1,49
 255 6 255 6 284 6 c 0,50,37
 342 6 342 6 374.5 51 c 128,-1,38
EndSplineSet
Validated: 1
Substitution2: "Single Substitution lookup 63 subtable" b.clipped
Substitution2: "'smcp' Lowercase to Small Capitals lookup 43 subtable" b.sc
AlternateSubs2: "'aalt' Access All Alternates lookup 1 subtable" b.clipped b.sc
EndChar

StartChar: c
Encoding: 99 99 551
Width: 411
GlyphClass: 2
Flags: W
AnchorPoint: "Anchor-15" 0 0 basechar 0
AnchorPoint: "Anchor-14" 225 386 basechar 0
AnchorPoint: "Anchor-13" 0 0 basechar 0
AnchorPoint: "Anchor-12" 229 0 basechar 0
LayerCount: 2
Fore
SplineSet
122 16.5 m 128,-1,1
 78 45 78 45 57 90 c 128,-1,2
 36 135 36 135 36 185 c 0,3,4
 36 249 36 249 68 296.5 c 128,-1,5
 100 344 100 344 150.5 369.5 c 128,-1,6
 201 395 201 395 254 395 c 0,7,8
 298 395 298 395 334.5 377.5 c 128,-1,9
 371 360 371 360 371 334 c 0,10,11
 371 321 371 321 361.5 311.5 c 128,-1,12
 352 302 352 302 336 302 c 0,13,14
 309 302 309 302 292 335 c 0,15,16
 279 355 279 355 264 365 c 128,-1,17
 249 375 249 375 221 375 c 0,18,19
 165 375 165 375 133.5 331.5 c 128,-1,20
 102 288 102 288 102 215 c 0,21,22
 102 131 102 131 144 77 c 128,-1,23
 186 23 186 23 270 23 c 0,24,25
 331 23 331 23 372 56 c 1,26,-1
 373 56 l 2,27,28
 376 56 376 56 378.5 53 c 128,-1,29
 381 50 381 50 379 48 c 0,30,31
 344 17 344 17 308.5 2.5 c 128,-1,32
 273 -12 273 -12 231 -12 c 0,33,0
 166 -12 166 -12 122 16.5 c 128,-1,1
EndSplineSet
Validated: 1
Substitution2: "'smcp' Lowercase to Small Capitals lookup 43 subtable" c.sc
Substitution2: "'aalt' Access All Alternates lookup 0 subtable" c.sc
EndChar

StartChar: ccedilla
Encoding: 231 231 554
Width: 411
GlyphClass: 2
Flags: W
AnchorPoint: "Anchor-15" 0 0 basechar 0
AnchorPoint: "Anchor-14" 0 0 basechar 0
AnchorPoint: "Anchor-13" 0 0 basechar 0
AnchorPoint: "Anchor-12" 229 0 basechar 0
LayerCount: 2
Fore
SplineSet
224 -12 m 1,0,1
 214 -42 214 -42 214 -57 c 0,2,3
 214 -71 214 -71 222.5 -78.5 c 128,-1,4
 231 -86 231 -86 258 -102 c 0,5,6
 283 -116 283 -116 297.5 -134 c 128,-1,7
 312 -152 312 -152 312 -179 c 0,8,9
 312 -216 312 -216 285.5 -245.5 c 128,-1,10
 259 -275 259 -275 208 -275 c 0,11,12
 180 -275 180 -275 162 -265 c 128,-1,13
 144 -255 144 -255 144 -237 c 0,14,15
 144 -224 144 -224 153 -215.5 c 128,-1,16
 162 -207 162 -207 174 -207 c 0,17,18
 185 -207 185 -207 191 -212.5 c 128,-1,19
 197 -218 197 -218 203 -229 c 0,20,21
 210 -242 210 -242 217 -248.5 c 128,-1,22
 224 -255 224 -255 239 -255 c 0,23,24
 273 -255 273 -255 273 -217 c 0,25,26
 273 -191 273 -191 254.5 -170.5 c 128,-1,27
 236 -150 236 -150 188 -124 c 0,28,29
 181 -121 181 -121 177 -118 c 128,-1,30
 173 -115 173 -115 173 -111 c 0,31,32
 173 -106 173 -106 179 -94 c 0,33,34
 192 -61 192 -61 210 -11 c 1,35,36
 152 -6 152 -6 113 23 c 128,-1,37
 74 52 74 52 55 95 c 128,-1,38
 36 138 36 138 36 185 c 0,39,40
 36 249 36 249 68 296.5 c 128,-1,41
 100 344 100 344 150.5 369.5 c 128,-1,42
 201 395 201 395 254 395 c 0,43,44
 298 395 298 395 334.5 377.5 c 128,-1,45
 371 360 371 360 371 334 c 0,46,47
 371 321 371 321 361.5 311.5 c 128,-1,48
 352 302 352 302 336 302 c 0,49,50
 309 302 309 302 292 335 c 0,51,52
 279 355 279 355 264 365 c 128,-1,53
 249 375 249 375 221 375 c 0,54,55
 165 375 165 375 133.5 331.5 c 128,-1,56
 102 288 102 288 102 215 c 0,57,58
 102 131 102 131 144 77 c 128,-1,59
 186 23 186 23 270 23 c 0,60,61
 331 23 331 23 372 56 c 1,62,-1
 373 56 l 2,63,64
 376 56 376 56 378.5 53 c 128,-1,65
 381 50 381 50 379 48 c 0,66,67
 344 17 344 17 308.5 2.5 c 128,-1,68
 273 -12 273 -12 231 -12 c 2,69,-1
 224 -12 l 1,0,1
EndSplineSet
Validated: 1
Substitution2: "'smcp' Lowercase to Small Capitals lookup 43 subtable" ccedilla.sc
Substitution2: "'aalt' Access All Alternates lookup 0 subtable" ccedilla.sc
EndChar

StartChar: d
Encoding: 100 100 557
Width: 512
GlyphClass: 2
Flags: W
AnchorPoint: "Anchor-15" 487 386 basechar 0
AnchorPoint: "Anchor-14" 257 386 basechar 0
AnchorPoint: "Anchor-13" 0 0 basechar 0
AnchorPoint: "Anchor-12" 257 0 basechar 0
LayerCount: 2
Fore
SplineSet
506 57 m 2,0,1
 510 57 510 57 511.5 52 c 128,-1,2
 513 47 513 47 510 45 c 2,3,-1
 400 -7 l 2,4,5
 394 -9 394 -9 392 -9 c 0,6,7
 379 -9 379 -9 370 13 c 128,-1,8
 361 35 361 35 360 74 c 1,9,10
 323 35 323 35 282.5 11 c 128,-1,11
 242 -13 242 -13 192 -13 c 0,12,13
 150 -13 150 -13 114.5 11 c 128,-1,14
 79 35 79 35 57.5 78.5 c 128,-1,15
 36 122 36 122 36 178 c 0,16,17
 36 249 36 249 71 299 c 128,-1,18
 106 349 106 349 159 374 c 128,-1,19
 212 399 212 399 264 399 c 0,20,21
 317 399 317 399 360 373 c 1,22,-1
 360 597 l 2,23,24
 360 633 360 633 352.5 649 c 128,-1,25
 345 665 345 665 327 665 c 0,26,27
 314 665 314 665 281 651 c 1,28,-1
 279 651 l 2,29,30
 275 651 275 651 273.5 655.5 c 128,-1,31
 272 660 272 660 275 662 c 2,32,-1
 402 724 l 2,33,34
 404 725 404 725 407 725 c 0,35,36
 409 725 409 725 412.5 722.5 c 128,-1,37
 416 720 416 720 416 717 c 2,38,-1
 416 110 l 2,39,40
 416 74 416 74 424.5 58 c 128,-1,41
 433 42 433 42 452 42 c 0,42,43
 481 42 481 42 504 56 c 2,44,-1
 506 57 l 2,0,1
298 40.5 m 128,-1,46
 329 58 329 58 360 90 c 1,47,-1
 360 310 l 1,48,49
 336 343 336 343 307 361 c 128,-1,50
 278 379 278 379 237 379 c 0,51,52
 174 379 174 379 137.5 334.5 c 128,-1,53
 101 290 101 290 101 208 c 0,54,55
 101 153 101 153 118 111 c 128,-1,56
 135 69 135 69 164.5 46 c 128,-1,57
 194 23 194 23 231 23 c 0,58,45
 267 23 267 23 298 40.5 c 128,-1,46
EndSplineSet
Validated: 1
Substitution2: "'smcp' Lowercase to Small Capitals lookup 43 subtable" d.sc
Substitution2: "'aalt' Access All Alternates lookup 0 subtable" d.sc
EndChar

StartChar: eth
Encoding: 240 240 558
Width: 470
GlyphClass: 2
Flags: W
AnchorPoint: "Anchor-15" 0 0 basechar 0
AnchorPoint: "Anchor-14" 232 386 basechar 0
AnchorPoint: "Anchor-13" 0 0 basechar 0
AnchorPoint: "Anchor-12" 0 0 basechar 0
LayerCount: 2
Fore
SplineSet
403 405 m 128,-1,1
 438 316 438 316 438 227 c 0,2,3
 438 106 438 106 377.5 46.5 c 128,-1,4
 317 -13 317 -13 223 -13 c 0,5,6
 166 -13 166 -13 122.5 14 c 128,-1,7
 79 41 79 41 55.5 87 c 128,-1,8
 32 133 32 133 32 186 c 0,9,10
 32 255 32 255 64 303 c 128,-1,11
 96 351 96 351 144 375 c 128,-1,12
 192 399 192 399 241 399 c 0,13,14
 299 399 299 399 344 366 c 1,15,16
 317 460 317 460 259 547 c 1,17,-1
 125 484 l 1,18,-1
 124 484 l 2,19,20
 119 484 119 484 116 493.5 c 128,-1,21
 113 503 113 503 117 505 c 2,22,-1
 246 566 l 1,23,24
 177 661 177 661 90 716 c 0,25,26
 88 718 88 718 88 719 c 0,27,28
 88 721 88 721 90.5 723.5 c 128,-1,29
 93 726 93 726 96 725 c 0,30,31
 202 677 202 677 288 586 c 1,32,-1
 391 635 l 1,33,-1
 392 635 l 2,34,35
 397 635 397 635 400.5 625.5 c 128,-1,36
 404 616 404 616 399 614 c 2,37,-1
 303 569 l 1,38,0
 368 494 368 494 403 405 c 128,-1,1
339 48 m 128,-1,40
 370 90 370 90 370 191 c 0,41,42
 370 246 370 246 359 303 c 1,43,44
 339 340 339 340 305 360 c 128,-1,45
 271 380 271 380 229 380 c 0,46,47
 172 380 172 380 135.5 336.5 c 128,-1,48
 99 293 99 293 99 215 c 0,49,50
 99 158 99 158 118 110.5 c 128,-1,51
 137 63 137 63 171.5 34.5 c 128,-1,52
 206 6 206 6 251 6 c 0,53,39
 308 6 308 6 339 48 c 128,-1,40
EndSplineSet
Validated: 1
Substitution2: "'smcp' Lowercase to Small Capitals lookup 43 subtable" eth.sc
Substitution2: "'aalt' Access All Alternates lookup 0 subtable" eth.sc
EndChar

StartChar: dcroat
Encoding: 273 273 560
Width: 513
GlyphClass: 2
Flags: W
AnchorPoint: "Anchor-15" 487 386 basechar 0
AnchorPoint: "Anchor-14" 257 386 basechar 0
AnchorPoint: "Anchor-13" 0 0 basechar 0
AnchorPoint: "Anchor-12" 257 0 basechar 0
LayerCount: 2
Fore
SplineSet
506 57 m 2,0,1
 510 57 510 57 511.5 52 c 128,-1,2
 513 47 513 47 510 45 c 2,3,-1
 400 -7 l 2,4,5
 394 -9 394 -9 392 -9 c 0,6,7
 379 -9 379 -9 370 13 c 128,-1,8
 361 35 361 35 360 74 c 1,9,10
 323 35 323 35 282.5 11 c 128,-1,11
 242 -13 242 -13 192 -13 c 0,12,13
 150 -13 150 -13 114.5 11 c 128,-1,14
 79 35 79 35 57.5 78.5 c 128,-1,15
 36 122 36 122 36 178 c 0,16,17
 36 249 36 249 71 299 c 128,-1,18
 106 349 106 349 159 374 c 128,-1,19
 212 399 212 399 264 399 c 0,20,21
 317 399 317 399 360 373 c 1,22,-1
 360 502 l 1,23,-1
 191 502 l 2,24,25
 189 502 189 502 187.5 505 c 128,-1,26
 186 508 186 508 186 512 c 256,27,28
 186 516 186 516 187.5 519 c 128,-1,29
 189 522 189 522 191 522 c 2,30,-1
 360 522 l 1,31,-1
 360 597 l 2,32,33
 360 633 360 633 352.5 649 c 128,-1,34
 345 665 345 665 327 665 c 0,35,36
 314 665 314 665 281 651 c 1,37,-1
 279 651 l 2,38,39
 275 651 275 651 273.5 655.5 c 128,-1,40
 272 660 272 660 275 662 c 2,41,-1
 402 724 l 2,42,43
 404 725 404 725 407 725 c 0,44,45
 409 725 409 725 412.5 722.5 c 128,-1,46
 416 720 416 720 416 717 c 2,47,-1
 416 522 l 1,48,-1
 482 522 l 2,49,50
 487 522 487 522 487 512 c 256,51,52
 487 502 487 502 482 502 c 2,53,-1
 416 502 l 1,54,-1
 416 110 l 2,55,56
 416 74 416 74 424.5 58 c 128,-1,57
 433 42 433 42 452 42 c 0,58,59
 481 42 481 42 504 56 c 2,60,-1
 506 57 l 2,0,1
298 40.5 m 128,-1,62
 329 58 329 58 360 90 c 1,63,-1
 360 310 l 1,64,65
 336 343 336 343 307 361 c 128,-1,66
 278 379 278 379 237 379 c 0,67,68
 174 379 174 379 137.5 334.5 c 128,-1,69
 101 290 101 290 101 208 c 0,70,71
 101 153 101 153 118 111 c 128,-1,72
 135 69 135 69 164.5 46 c 128,-1,73
 194 23 194 23 231 23 c 0,74,61
 267 23 267 23 298 40.5 c 128,-1,62
EndSplineSet
Validated: 1
Substitution2: "'smcp' Lowercase to Small Capitals lookup 43 subtable" dcroat.sc
Substitution2: "'aalt' Access All Alternates lookup 0 subtable" dcroat.sc
EndChar

StartChar: e
Encoding: 101 101 563
Width: 408
GlyphClass: 2
Flags: W
AnchorPoint: "Anchor-15" 0 0 basechar 0
AnchorPoint: "Anchor-14" 227 386 basechar 0
AnchorPoint: "Anchor-13" 374 12 basechar 0
AnchorPoint: "Anchor-12" 230 0 basechar 0
LayerCount: 2
Fore
SplineSet
364 56 m 2,0,1
 367 56 367 56 369.5 52.5 c 128,-1,2
 372 49 372 49 370 46 c 0,3,4
 302 -12 302 -12 224 -12 c 0,5,6
 165 -12 165 -12 122 15 c 128,-1,7
 79 42 79 42 57.5 85.5 c 128,-1,8
 36 129 36 129 36 180 c 0,9,10
 36 240 36 240 64.5 289 c 128,-1,11
 93 338 93 338 142 366.5 c 128,-1,12
 191 395 191 395 251 395 c 0,13,14
 305 395 305 395 335 368.5 c 128,-1,15
 365 342 365 342 365 296 c 0,16,17
 365 284 365 284 362.5 278.5 c 128,-1,18
 360 273 360 273 353 273 c 2,19,-1
 107 271 l 1,20,21
 102 244 102 244 102 219 c 0,22,23
 102 132 102 132 144 77.5 c 128,-1,24
 186 23 186 23 260 23 c 0,25,26
 317 23 317 23 363 56 c 1,27,-1
 364 56 l 2,0,1
148.5 351.5 m 128,-1,29
 121 328 121 328 110 285 c 1,30,-1
 296 289 l 1,31,32
 296 330 296 330 274.5 352.5 c 128,-1,33
 253 375 253 375 217 375 c 0,34,28
 176 375 176 375 148.5 351.5 c 128,-1,29
EndSplineSet
Validated: 1
Substitution2: "'ss02' Style Set 2 lookup 55 subtable" e.ss02
Substitution2: "'smcp' Lowercase to Small Capitals lookup 43 subtable" e.sc
AlternateSubs2: "'aalt' Access All Alternates lookup 1 subtable" e.ss02 e.sc
EndChar

StartChar: eogonek
Encoding: 281 281 579
Width: 408
GlyphClass: 2
Flags: W
AnchorPoint: "Anchor-15" 0 0 basechar 0
AnchorPoint: "Anchor-14" 203 386 basechar 0
AnchorPoint: "Anchor-13" 374 12 basechar 0
AnchorPoint: "Anchor-12" 230 0 basechar 0
LayerCount: 2
Fore
SplineSet
371 -222 m 2,0,1
 374 -222 374 -222 376.5 -225 c 128,-1,2
 379 -228 379 -228 376 -230 c 0,3,4
 351 -254 351 -254 328 -264.5 c 128,-1,5
 305 -275 305 -275 279 -275 c 0,6,7
 230 -275 230 -275 203.5 -249 c 128,-1,8
 177 -223 177 -223 177 -179 c 0,9,10
 177 -93 177 -93 287 -2 c 1,11,12
 258 -12 258 -12 224 -12 c 0,13,14
 165 -12 165 -12 122 15 c 128,-1,15
 79 42 79 42 57.5 85.5 c 128,-1,16
 36 129 36 129 36 180 c 0,17,18
 36 240 36 240 64.5 289 c 128,-1,19
 93 338 93 338 142 366.5 c 128,-1,20
 191 395 191 395 251 395 c 0,21,22
 305 395 305 395 335 368.5 c 128,-1,23
 365 342 365 342 365 296 c 0,24,25
 365 284 365 284 362.5 278.5 c 128,-1,26
 360 273 360 273 353 273 c 2,27,-1
 107 271 l 1,28,29
 102 244 102 244 102 219 c 0,30,31
 102 132 102 132 144 77.5 c 128,-1,32
 186 23 186 23 260 23 c 0,33,34
 317 23 317 23 363 56 c 1,35,-1
 364 56 l 2,36,37
 367 56 367 56 369.5 52.5 c 128,-1,38
 372 49 372 49 370 46 c 0,39,40
 354 32 354 32 337 22 c 0,41,42
 283 -22 283 -22 258.5 -63 c 128,-1,43
 234 -104 234 -104 234 -149 c 0,44,45
 234 -195 234 -195 254 -220.5 c 128,-1,46
 274 -246 274 -246 312 -246 c 0,47,48
 331 -246 331 -246 343 -240 c 128,-1,49
 355 -234 355 -234 369 -222 c 1,50,-1
 371 -222 l 2,0,1
148.5 351.5 m 128,-1,52
 121 328 121 328 110 285 c 1,53,-1
 296 289 l 1,54,55
 296 330 296 330 274.5 352.5 c 128,-1,56
 253 375 253 375 217 375 c 0,57,51
 176 375 176 375 148.5 351.5 c 128,-1,52
EndSplineSet
Validated: 1
Substitution2: "'ss02' Style Set 2 lookup 55 subtable" eogonek.ss02
Substitution2: "'smcp' Lowercase to Small Capitals lookup 43 subtable" eogonek.sc
AlternateSubs2: "'aalt' Access All Alternates lookup 1 subtable" eogonek.ss02 eogonek.sc
EndChar

StartChar: uni0259
Encoding: 601 601 581
Width: 405
Flags: W
LayerCount: 2
Fore
SplineSet
284 362 m 128,-1,1
 327 335 327 335 348 291 c 128,-1,2
 369 247 369 247 369 195 c 0,3,4
 369 136 369 136 342.5 88.5 c 128,-1,5
 316 41 316 41 270 14.5 c 128,-1,6
 224 -12 224 -12 166 -12 c 0,7,8
 107 -12 107 -12 74 15 c 128,-1,9
 41 42 41 42 41 88 c 0,10,11
 41 111 41 111 53 111 c 2,12,-1
 300 112 l 1,13,14
 303 132 303 132 303 155 c 0,15,16
 303 250 303 250 265 312 c 128,-1,17
 227 374 227 374 154 374 c 0,18,19
 108 374 108 374 84.5 348.5 c 128,-1,20
 61 323 61 323 48 279 c 0,21,22
 47 277 47 277 41.5 278 c 128,-1,23
 36 279 36 279 37 281 c 2,24,-1
 70 410 l 2,25,26
 71 413 71 413 77 412 c 128,-1,27
 83 411 83 411 82 409 c 0,28,29
 81 405 81 405 81 399 c 0,30,31
 81 383 81 383 104 383 c 0,32,33
 111 383 111 383 133 385 c 0,34,35
 161 389 161 389 180 389 c 0,36,0
 241 389 241 389 284 362 c 128,-1,1
263.5 31 m 128,-1,38
 288 54 288 54 298 99 c 1,39,-1
 110 95 l 1,40,41
 111 53 111 53 136 30.5 c 128,-1,42
 161 8 161 8 202 8 c 0,43,37
 239 8 239 8 263.5 31 c 128,-1,38
EndSplineSet
Validated: 1
Substitution2: "'smcp' Lowercase to Small Capitals lookup 43 subtable" uni0259.sc
Substitution2: "'aalt' Access All Alternates lookup 0 subtable" uni0259.sc
EndChar

StartChar: f
Encoding: 102 102 582
Width: 305
GlyphClass: 2
Flags: W
AnchorPoint: "Anchor-15" 0 0 basechar 0
AnchorPoint: "Anchor-14" 153 386 basechar 0
AnchorPoint: "Anchor-13" 0 0 basechar 0
AnchorPoint: "Anchor-12" 153 0 basechar 0
LayerCount: 2
Fore
SplineSet
402.5 710.5 m 128,-1,1
 435 695 435 695 435 673 c 0,2,3
 435 658 435 658 424.5 649.5 c 128,-1,4
 414 641 414 641 400 641 c 0,5,6
 388 641 388 641 379 647 c 128,-1,7
 370 653 370 653 360 667 c 0,8,9
 345 688 345 688 327.5 698.5 c 128,-1,10
 310 709 310 709 284 709 c 0,11,12
 226 709 226 709 192 642 c 128,-1,13
 158 575 158 575 158 439 c 2,14,-1
 158 375 l 1,15,16
 204 376 204 376 286 385 c 0,17,18
 289 385 289 385 291 378 c 128,-1,19
 293 371 293 371 293 361 c 0,20,21
 293 353 293 353 290 344.5 c 128,-1,22
 287 336 287 336 283 337 c 0,23,24
 225 351 225 351 158 353 c 1,25,-1
 158 81 l 2,26,27
 158 50 158 50 165 36 c 128,-1,28
 172 22 172 22 192 17 c 128,-1,29
 212 12 212 12 256 12 c 0,30,31
 259 12 259 12 259 6 c 128,-1,32
 259 0 259 0 256 0 c 2,33,-1
 192 1 l 2,34,35
 171 2 171 2 128 2 c 2,36,-1
 72 1 l 2,37,38
 58 0 58 0 32 0 c 0,39,40
 29 0 29 0 29 6 c 128,-1,41
 29 12 29 12 32 12 c 0,42,43
 62 12 62 12 76 17.5 c 128,-1,44
 90 23 90 23 95.5 37 c 128,-1,45
 101 51 101 51 101 81 c 2,46,-1
 101 306 l 2,47,48
 101 332 101 332 96 342.5 c 128,-1,49
 91 353 91 353 76.5 356.5 c 128,-1,50
 62 360 62 360 28 360 c 0,51,52
 25 360 25 360 25 366.5 c 128,-1,53
 25 373 25 373 28 373 c 0,54,55
 69 373 69 373 83.5 382.5 c 128,-1,56
 98 392 98 392 99 418 c 0,57,58
 104 580 104 580 158.5 653 c 128,-1,59
 213 726 213 726 319 726 c 0,60,0
 370 726 370 726 402.5 710.5 c 128,-1,1
EndSplineSet
Validated: 1
Substitution2: "Single Substitution lookup 63 subtable" f.short
Substitution2: "'cv05' Character Variants 05 lookup 49 subtable" f.cv05
Substitution2: "'smcp' Lowercase to Small Capitals lookup 43 subtable" f.sc
AlternateSubs2: "'aalt' Access All Alternates lookup 1 subtable" f.short f.cv05 f.sc
EndChar

StartChar: g
Encoding: 103 103 583
Width: 433
GlyphClass: 2
Flags: W
AnchorPoint: "Anchor-15" 0 0 basechar 0
AnchorPoint: "Anchor-14" 212 386 basechar 0
AnchorPoint: "Anchor-13" 0 0 basechar 0
AnchorPoint: "Anchor-12" 216 0 basechar 0
LayerCount: 2
Fore
SplineSet
242 29 m 2,0,1
 302 20 302 20 337 10.5 c 128,-1,2
 372 1 372 1 397 -22.5 c 128,-1,3
 422 -46 422 -46 422 -88 c 0,4,5
 422 -133 422 -133 388 -178.5 c 128,-1,6
 354 -224 354 -224 296.5 -253 c 128,-1,7
 239 -282 239 -282 173 -282 c 0,8,9
 102 -282 102 -282 58.5 -248 c 128,-1,10
 15 -214 15 -214 15 -161 c 0,11,12
 15 -82 15 -82 129 -6 c 1,13,14
 61 14 61 14 61 62 c 0,15,16
 61 90 61 90 80.5 116.5 c 128,-1,17
 100 143 100 143 133 165 c 1,18,19
 94 179 94 179 73 208.5 c 128,-1,20
 52 238 52 238 52 275 c 0,21,22
 52 327 52 327 96 360 c 128,-1,23
 140 393 140 393 207 393 c 0,24,25
 273 393 273 393 309 362 c 1,26,27
 362 394 362 394 416 394 c 0,28,29
 419 394 419 394 420.5 387 c 128,-1,30
 422 380 422 380 422 372 c 0,31,32
 422 360 422 360 419 348 c 128,-1,33
 416 336 416 336 412 338 c 0,34,35
 409 339 409 339 390.5 346 c 128,-1,36
 372 353 372 353 346 353 c 0,37,38
 335 353 335 353 321 351 c 1,39,40
 347 321 347 321 347 280 c 0,41,42
 347 246 347 246 328 217.5 c 128,-1,43
 309 189 309 189 275 172 c 128,-1,44
 241 155 241 155 196 155 c 0,45,46
 167 155 167 155 145 161 c 1,47,48
 128 149 128 149 118 132.5 c 128,-1,49
 108 116 108 116 108 97 c 0,50,51
 108 66 108 66 136.5 53.5 c 128,-1,52
 165 41 165 41 222 32 c 2,53,-1
 242 29 l 2,0,1
133.5 358 m 128,-1,55
 115 338 115 338 115 296 c 0,56,57
 115 238 115 238 145.5 203.5 c 128,-1,58
 176 169 176 169 217 169 c 0,59,60
 247 169 247 169 266 191.5 c 128,-1,61
 285 214 285 214 285 260 c 0,62,63
 285 312 285 312 254.5 345 c 128,-1,64
 224 378 224 378 182 378 c 0,65,54
 152 378 152 378 133.5 358 c 128,-1,55
297.5 -234 m 128,-1,67
 333 -216 333 -216 351.5 -186.5 c 128,-1,68
 370 -157 370 -157 370 -123 c 0,69,70
 370 -84 370 -84 345 -63 c 128,-1,71
 320 -42 320 -42 286.5 -34 c 128,-1,72
 253 -26 253 -26 192 -18 c 0,73,74
 161 -14 161 -14 149 -11 c 1,75,76
 113 -34 113 -34 93.5 -61 c 128,-1,77
 74 -88 74 -88 74 -129 c 0,78,79
 74 -185 74 -185 111.5 -218.5 c 128,-1,80
 149 -252 149 -252 213 -252 c 0,81,66
 262 -252 262 -252 297.5 -234 c 128,-1,67
EndSplineSet
Validated: 1
Substitution2: "'ss02' Style Set 2 lookup 55 subtable" g.ss02
Substitution2: "'ss01' Style Set 1 lookup 54 subtable" g.ss01
Substitution2: "'smcp' Lowercase to Small Capitals lookup 43 subtable" g.sc
AlternateSubs2: "'aalt' Access All Alternates lookup 1 subtable" g.ss01 g.ss02 g.sc
EndChar

StartChar: uni0123
Encoding: 291 291 588
Width: 433
GlyphClass: 2
Flags: W
AnchorPoint: "Anchor-15" 0 0 basechar 0
AnchorPoint: "Anchor-14" 212 386 basechar 0
AnchorPoint: "Anchor-13" 0 0 basechar 0
AnchorPoint: "Anchor-12" 0 0 basechar 0
LayerCount: 2
Fore
SplineSet
175.5 504 m 128,-1,1
 161 523 161 523 161 558 c 0,2,3
 161 591 161 591 176.5 619.5 c 128,-1,4
 192 648 192 648 222 675 c 0,5,6
 223 676 223 676 225 676 c 0,7,8
 228 676 228 676 230 672.5 c 128,-1,9
 232 669 232 669 230 668 c 0,10,11
 186 628 186 628 186 578 c 0,12,13
 186 558 186 558 192 549 c 1,14,15
 200 564 200 564 222 564 c 0,16,17
 240 564 240 564 250.5 553.5 c 128,-1,18
 261 543 261 543 261 525 c 0,19,20
 261 504 261 504 249 494.5 c 128,-1,21
 237 485 237 485 217 485 c 0,22,0
 190 485 190 485 175.5 504 c 128,-1,1
242 29 m 2,23,24
 302 20 302 20 337 10.5 c 128,-1,25
 372 1 372 1 397 -22.5 c 128,-1,26
 422 -46 422 -46 422 -88 c 0,27,28
 422 -133 422 -133 388 -178.5 c 128,-1,29
 354 -224 354 -224 296.5 -253 c 128,-1,30
 239 -282 239 -282 173 -282 c 0,31,32
 102 -282 102 -282 58.5 -248 c 128,-1,33
 15 -214 15 -214 15 -161 c 0,34,35
 15 -82 15 -82 129 -6 c 1,36,37
 61 14 61 14 61 62 c 0,38,39
 61 90 61 90 80.5 116.5 c 128,-1,40
 100 143 100 143 133 165 c 1,41,42
 94 179 94 179 73 208.5 c 128,-1,43
 52 238 52 238 52 275 c 0,44,45
 52 327 52 327 96 360 c 128,-1,46
 140 393 140 393 207 393 c 0,47,48
 273 393 273 393 309 362 c 1,49,50
 362 394 362 394 416 394 c 0,51,52
 419 394 419 394 420.5 387 c 128,-1,53
 422 380 422 380 422 372 c 0,54,55
 422 360 422 360 419 348 c 128,-1,56
 416 336 416 336 412 338 c 0,57,58
 409 339 409 339 390.5 346 c 128,-1,59
 372 353 372 353 346 353 c 0,60,61
 335 353 335 353 321 351 c 1,62,63
 347 321 347 321 347 280 c 0,64,65
 347 246 347 246 328 217.5 c 128,-1,66
 309 189 309 189 275 172 c 128,-1,67
 241 155 241 155 196 155 c 0,68,69
 167 155 167 155 145 161 c 1,70,71
 128 149 128 149 118 132.5 c 128,-1,72
 108 116 108 116 108 97 c 0,73,74
 108 66 108 66 136.5 53.5 c 128,-1,75
 165 41 165 41 222 32 c 2,76,-1
 242 29 l 2,23,24
133.5 358 m 128,-1,78
 115 338 115 338 115 296 c 0,79,80
 115 238 115 238 145.5 203.5 c 128,-1,81
 176 169 176 169 217 169 c 0,82,83
 247 169 247 169 266 191.5 c 128,-1,84
 285 214 285 214 285 260 c 0,85,86
 285 312 285 312 254.5 345 c 128,-1,87
 224 378 224 378 182 378 c 0,88,77
 152 378 152 378 133.5 358 c 128,-1,78
297.5 -234 m 128,-1,90
 333 -216 333 -216 351.5 -186.5 c 128,-1,91
 370 -157 370 -157 370 -123 c 0,92,93
 370 -84 370 -84 345 -63 c 128,-1,94
 320 -42 320 -42 286.5 -34 c 128,-1,95
 253 -26 253 -26 192 -18 c 0,96,97
 161 -14 161 -14 149 -11 c 1,98,99
 113 -34 113 -34 93.5 -61 c 128,-1,100
 74 -88 74 -88 74 -129 c 0,101,102
 74 -185 74 -185 111.5 -218.5 c 128,-1,103
 149 -252 149 -252 213 -252 c 0,104,89
 262 -252 262 -252 297.5 -234 c 128,-1,90
EndSplineSet
Validated: 1
Substitution2: "'ss02' Style Set 2 lookup 55 subtable" uni0123.ss02
Substitution2: "'ss01' Style Set 1 lookup 54 subtable" uni0123.ss01
Substitution2: "'smcp' Lowercase to Small Capitals lookup 43 subtable" uni0123.sc
AlternateSubs2: "'aalt' Access All Alternates lookup 1 subtable" uni0123.ss01 uni0123.ss02 uni0123.sc
EndChar

StartChar: h
Encoding: 104 104 592
Width: 499
GlyphClass: 2
Flags: W
AnchorPoint: "Anchor-15" 0 0 basechar 0
AnchorPoint: "Anchor-14" 125 660 basechar 0
AnchorPoint: "Anchor-13" 0 0 basechar 0
AnchorPoint: "Anchor-12" 250 0 basechar 0
LayerCount: 2
Fore
SplineSet
480 6 m 128,-1,1
 480 0 480 0 477 0 c 0,2,3
 454 0 454 0 440 1 c 2,4,-1
 386 2 l 1,5,-1
 332 1 l 2,6,7
 318 0 318 0 295 0 c 0,8,9
 292 0 292 0 292 6 c 128,-1,10
 292 12 292 12 295 12 c 0,11,12
 322 12 322 12 335 17.5 c 128,-1,13
 348 23 348 23 353 37.5 c 128,-1,14
 358 52 358 52 358 81 c 2,15,-1
 358 240 l 2,16,17
 358 299 358 299 335.5 327.5 c 128,-1,18
 313 356 313 356 266 356 c 0,19,20
 235 356 235 356 203 339.5 c 128,-1,21
 171 323 171 323 145 294 c 1,22,-1
 145 81 l 2,23,24
 145 52 145 52 150 37.5 c 128,-1,25
 155 23 155 23 168 17.5 c 128,-1,26
 181 12 181 12 208 12 c 0,27,28
 211 12 211 12 211 6 c 128,-1,29
 211 0 211 0 208 0 c 0,30,31
 185 0 185 0 171 1 c 2,32,-1
 117 2 l 1,33,-1
 63 1 l 2,34,35
 49 0 49 0 26 0 c 0,36,37
 23 0 23 0 23 6 c 128,-1,38
 23 12 23 12 26 12 c 0,39,40
 53 12 53 12 66 17.5 c 128,-1,41
 79 23 79 23 84 37.5 c 128,-1,42
 89 52 89 52 89 81 c 2,43,-1
 89 598 l 2,44,45
 89 634 89 634 82 650 c 128,-1,46
 75 666 75 666 57 666 c 0,47,48
 42 666 42 666 11 652 c 1,49,-1
 9 652 l 2,50,51
 6 652 6 652 4 657 c 128,-1,52
 2 662 2 662 6 663 c 2,53,-1
 133 725 l 1,54,-1
 136 725 l 2,55,56
 140 725 140 725 142.5 722.5 c 128,-1,57
 145 720 145 720 145 717 c 2,58,-1
 145 311 l 1,59,60
 183 355 183 355 220.5 375.5 c 128,-1,61
 258 396 258 396 299 396 c 0,62,63
 354 396 354 396 384 365 c 128,-1,64
 414 334 414 334 414 275 c 2,65,-1
 414 81 l 2,66,67
 414 52 414 52 419 37.5 c 128,-1,68
 424 23 424 23 437 17.5 c 128,-1,69
 450 12 450 12 477 12 c 0,70,0
 480 12 480 12 480 6 c 128,-1,1
EndSplineSet
Validated: 1
Substitution2: "Single Substitution lookup 63 subtable" h.clipped
Substitution2: "'smcp' Lowercase to Small Capitals lookup 43 subtable" h.sc
AlternateSubs2: "'aalt' Access All Alternates lookup 1 subtable" h.clipped h.sc
EndChar

StartChar: hbar
Encoding: 295 295 593
Width: 499
GlyphClass: 2
Flags: W
AnchorPoint: "Anchor-15" 0 0 basechar 0
AnchorPoint: "Anchor-14" 125 660 basechar 0
AnchorPoint: "Anchor-13" 0 0 basechar 0
AnchorPoint: "Anchor-12" 250 0 basechar 0
LayerCount: 2
Fore
SplineSet
480 6 m 128,-1,1
 480 0 480 0 477 0 c 0,2,3
 454 0 454 0 440 1 c 2,4,-1
 386 2 l 1,5,-1
 332 1 l 2,6,7
 318 0 318 0 295 0 c 0,8,9
 292 0 292 0 292 6 c 128,-1,10
 292 12 292 12 295 12 c 0,11,12
 322 12 322 12 335 17.5 c 128,-1,13
 348 23 348 23 353 37.5 c 128,-1,14
 358 52 358 52 358 81 c 2,15,-1
 358 240 l 2,16,17
 358 299 358 299 335.5 327.5 c 128,-1,18
 313 356 313 356 266 356 c 0,19,20
 235 356 235 356 203 339.5 c 128,-1,21
 171 323 171 323 145 294 c 1,22,-1
 145 81 l 2,23,24
 145 52 145 52 150 37.5 c 128,-1,25
 155 23 155 23 168 17.5 c 128,-1,26
 181 12 181 12 208 12 c 0,27,28
 211 12 211 12 211 6 c 128,-1,29
 211 0 211 0 208 0 c 0,30,31
 185 0 185 0 171 1 c 2,32,-1
 117 2 l 1,33,-1
 63 1 l 2,34,35
 49 0 49 0 26 0 c 0,36,37
 23 0 23 0 23 6 c 128,-1,38
 23 12 23 12 26 12 c 0,39,40
 53 12 53 12 66 17.5 c 128,-1,41
 79 23 79 23 84 37.5 c 128,-1,42
 89 52 89 52 89 81 c 2,43,-1
 89 502 l 1,44,-1
 12 502 l 2,45,46
 10 502 10 502 8.5 505 c 128,-1,47
 7 508 7 508 7 512 c 256,48,49
 7 516 7 516 8.5 519 c 128,-1,50
 10 522 10 522 12 522 c 2,51,-1
 89 522 l 1,52,-1
 89 598 l 2,53,54
 89 634 89 634 82 650 c 128,-1,55
 75 666 75 666 57 666 c 0,56,57
 42 666 42 666 11 652 c 1,58,-1
 9 652 l 2,59,60
 6 652 6 652 4 657 c 128,-1,61
 2 662 2 662 6 663 c 2,62,-1
 133 725 l 1,63,-1
 136 725 l 2,64,65
 140 725 140 725 142.5 722.5 c 128,-1,66
 145 720 145 720 145 717 c 2,67,-1
 145 522 l 1,68,-1
 304 522 l 2,69,70
 306 522 306 522 307.5 519 c 128,-1,71
 309 516 309 516 309 512 c 256,72,73
 309 508 309 508 307.5 505 c 128,-1,74
 306 502 306 502 304 502 c 2,75,-1
 145 502 l 1,76,-1
 145 311 l 1,77,78
 183 355 183 355 220.5 375.5 c 128,-1,79
 258 396 258 396 299 396 c 0,80,81
 354 396 354 396 384 365 c 128,-1,82
 414 334 414 334 414 275 c 2,83,-1
 414 81 l 2,84,85
 414 52 414 52 419 37.5 c 128,-1,86
 424 23 424 23 437 17.5 c 128,-1,87
 450 12 450 12 477 12 c 0,88,0
 480 12 480 12 480 6 c 128,-1,1
EndSplineSet
Validated: 1
Substitution2: "Single Substitution lookup 63 subtable" hbar.clipped
Substitution2: "'smcp' Lowercase to Small Capitals lookup 43 subtable" hbar.sc
AlternateSubs2: "'aalt' Access All Alternates lookup 1 subtable" hbar.clipped hbar.sc
EndChar

StartChar: dotlessi
Encoding: 305 305 598
Width: 273
GlyphClass: 2
Flags: W
AnchorPoint: "Anchor-15" 0 0 basechar 0
AnchorPoint: "Anchor-14" 137 386 basechar 0
AnchorPoint: "Anchor-13" 245 19 basechar 0
AnchorPoint: "Anchor-12" 137 0 basechar 0
LayerCount: 2
Fore
SplineSet
51 6 m 128,-1,1
 51 12 51 12 53 12 c 0,2,3
 80 12 80 12 93.5 17.5 c 128,-1,4
 107 23 107 23 112 37.5 c 128,-1,5
 117 52 117 52 117 81 c 2,6,-1
 117 268 l 2,7,8
 117 304 117 304 109.5 320 c 128,-1,9
 102 336 102 336 84 336 c 256,10,11
 66 336 66 336 39 322 c 1,12,-1
 38 322 l 2,13,14
 34 322 34 322 32 327 c 128,-1,15
 30 332 30 332 33 334 c 2,16,-1
 163 394 l 1,17,-1
 167 395 l 2,18,19
 169 395 169 395 172 392.5 c 128,-1,20
 175 390 175 390 175 387 c 0,21,22
 175 380 175 380 174 347 c 128,-1,23
 173 314 173 314 173 269 c 2,24,-1
 173 81 l 2,25,26
 173 51 173 51 178 37 c 128,-1,27
 183 23 183 23 196 17.5 c 128,-1,28
 209 12 209 12 236 12 c 0,29,30
 239 12 239 12 239 6 c 128,-1,31
 239 0 239 0 236 0 c 0,32,33
 213 0 213 0 199 1 c 2,34,-1
 145 2 l 1,35,-1
 91 1 l 2,36,37
 77 0 77 0 53 0 c 0,38,0
 51 0 51 0 51 6 c 128,-1,1
EndSplineSet
Validated: 1
Substitution2: "'smcp' Lowercase to Small Capitals lookup 43 subtable" dotlessi.sc
Substitution2: "'aalt' Access All Alternates lookup 0 subtable" dotlessi.sc
EndChar

